<mxfile host="app.diagrams.net" modified="2022-05-16T18:16:00.394Z" agent="5.0 (Windows NT 10.0; Win64; x64) AppleWebKit/537.36 (KHTML, like Gecko) Chrome/101.0.4951.67 Safari/537.36" etag="aHFs0A5GVstSvxowqvHW" version="18.0.4" type="github">
  <diagram id="pfJU0M3YZg1MHBfZ_uT6" name="Page-1">
    <mxGraphModel dx="2557" dy="965" grid="1" gridSize="10" guides="1" tooltips="1" connect="1" arrows="1" fold="1" page="1" pageScale="1" pageWidth="827" pageHeight="1169" math="0" shadow="0">
      <root>
        <mxCell id="0" />
        <mxCell id="1" parent="0" />
        <mxCell id="4wYjV3V1VM_4UX03if4N-2" value="" style="shape=image;verticalLabelPosition=bottom;labelBackgroundColor=default;verticalAlign=top;aspect=fixed;imageAspect=0;image=data:image/png,iVBORw0KGgoAAAANSUhEUgAABAkAAAK5CAYAAADdHXfOAAAgAElEQVR4nOzdeXhV1b0//vcezzxlDpkIYQYhEMSooFcQLbVVCzi1aq2tWnurfa7WW/z6dPjqpaKtVXvtVXvr7wr3OgHV2yu1aJU6fKFQGYIMMsUwJCSQBMLJfKb9+yMQoUKG/Tmc5ML79Tw+z5Gz12d/zl5rr7XPyj5rK5ZlWSAiIiIiIiKic5460AkQERERERER0eDASQIiIiIiIiIiAsBJAiIiIiIiIiI6hpMERERERERERASAkwREREREREREdAwnCYiIiIiIiIgIACcJiIiIiIiIiOgYfaATICIiIiIiIjpbdHZ2YuPGjVi/fj1aW1sBALfffjsyMjKSup+KigosXboUmzZtQkdHB4qKinDFFVdgzpw5MAzDdlzFsiwriXkSERERERERnVNqamqwYMEC/O1vf8OmTZsQi8VOen/z5s0YP358UvaVSCRw33334emnnz7l++PHj8cbb7yB4cOH24rPSQIiIiIiIiIigVWrVmHatGmnfT+ZkwQ//OEP8cQTTwAAxowZg7vvvhvp6el45513sHjxYliWhby8PHz88cfIzc3td3xOEhAREREREREJrF27Ft/+9rcxefJklJWVoaysDG+99RYeffRRAMmbJFi7di3Ky8sBAFdddRWWLl0Kl8vV/f5bb72Fq6++GvF4HHPnzsWyZcv6vQ+uSUBEREREREQkcMEFF2DLli0n/duqVauSvp9f/vKXAACn04kXXnjhpAkCAPjyl7+M2267DS+88AJef/11VFVVobi4uF/74NMNiIiIiIiIiAa5o0eP4n/+538AALNmzUJ2dvYpt/vWt74FALAsy9adBAM2SdDQ0IB33nkHy5Ytw4cffoj29vaBSoWIiIiIiIhoUFu/fj0ikQiArkmC0ykvL4fH4wEAfPDBB/3eT8onCfbv34+5c+ciKysLV155Ja677jpceumlSEtLw/e///3uR0QQERERERERUZetW7d2v540adJpt9M0Deeddx4AYOPGjf3eT0onCXbv3o2ysjK8/vrrsCwLhYWFuOyyyxAKhdDR0YHf/OY3uOiii9Dc3JzKtIiIiIiIiIgGtX379nW/zsrK6nHb4z9FqKur6/d+UjZJkEgk8PWvfx319fXQNA3PPfcc9u7di5UrV6K+vh4PPfQQAOCTTz7BD37wg1SlRUREREREROeIHTt2YNiwYb3+95e//GWgU/2CcDjc/TonJ6fHbd1uN4Cu7+H9/Wl/yp5u8Prrr+Pjjz8GAPzkJz/BXXfd1f2epmn4l3/5F1RXV2PRokV48cUX8dBDD6GkpCTpedz8yOuorDlsu3zQ60RTS4coh1GF6dixr1EUY2huEHtqm0QxpIbnpWG34FgCwPCCDOw+cEQUw6WraO+M2i6fn+VH9aFw7xv2YHRRBrbvbRDFyE7z4uDhFtvlk9I2izKwo1pWH0Oz/NhTK4vx3r/OE5VXFBVxKy6K8X5NCzY2yO5qWrusAo1NbbbLS9sEAIwemont+2XnaX66F9WHjtounxFwYcmCr4pyUKDCQkIUY+uRfWjskPWbP1uwXVQ+GX33qIIM7Ngv62+CPieamu33FyOHZ2LiFcNEOVyRl4lCnyGK8cOnV2Fz5SHb5V2mjvZITJQDx8LPnTVj4SC4Ths0bTMJMVwOg20TyWmbcy4dgwduulgUYzBxXb5gQPabaKlDpKqq1+3a2uxfw50pdu+4j0ajX3gKQk9SNknw4osvAuh6VMO99957ym0efPBBLFq0CJZl4be//S0ee+yxpOfx6d56bK2qt10+N92L2kbZRbvbaWDjrv7f9nEiVVHEMaQchibOweE0sXH3QVEMn6miuS1iu3w0lsCWKvsXmQDgdZniY1GSF0Jljf2LxKS0TbdDXB+qlRAfiwRkX/AVSx6jsTOCvS2ywWHbnnocqLc/0SBtEwDg9TjFdRrtjIrOkbxMLyxhfQAQx2iJtuFIRHahKW3bShL67mSMIdL+wvAZSBeuIRS10hC3FFGMXfsbRcfC5zZF4wfAsfBEZ81YOAiu0wZN2zR0cQzpZ2Hb/NyU0UNE5amL4gzhz3/+c6/blZaWpiCb/vH5fLbKGUb/JuVTMkkQi8W6b9e49NJLEQwGT7ndqFGjMHr0aGzfvh3Lly8/I5MEREREREREdG5SdAcuv/zygU7DlhMnCQ4ePAi/33/abY//xEBRlH7dRQCkaE2CXbt2dd+uMXHixB63nTBhAoCu34ocf7wDERERERER0bmsoKCg+3V9fc93xx861HUHzvEFDPsjJZME27d//hvOESNG9LhtYWEhACAej6O6uvqM5kVERERERET0v8G4ceO6X2/atOm02yUSCWzZsgWAvZ9NpOTnBicusJCfn9/jtunp6d2vDx48iGHD+rYwUkVFBV555ZVet4u2pfe6DREREREREdFgcv7558M0TUQiEbz77ru4++67T7ndunXrup+EMGPGjH7vJyWTBCeuDNnbYgsn/l4ikej7Stbbtm3D448/3ut2Y772YwBmn+MSERERERERDbRAIICrrroKb7zxBt5++200Njae9Ef24xYtWtT9+tprr+33flL2dIPjLMvq8f3+TAycaPjw4bjjjjt63e6vzW4AskfKEBERERERESXT/v37u39+f9NNN+Hll1/+wjYPPPAA3njjDbS2tuK2227D73//e5jm538Ef+edd/D8888DAK6++upef+5/KimZJDjx7oGmpp6fGXt8FUagf49qmDp1KqZOndrrdmXfeR6A/UcgEhERERERkZCW8r9Xn3HTpk3DgQMHuv//xO++X/rSl076Mv+9730PP/zhD/u9jwsvvBB33nknfvvb32L58uWYOnUqbr31Vni9XqxduxaLFy9GPB5HRkYGnn76aVufIyU1c+KjGXpbjLCxsbH7dU5OzhnLiYiIiIiIiChZ9u3bh/3795/yvZqampP+v6GhwfZ+nnnmGaiqiueeew6bNm3C/ffff9L748aNw6uvvoqhQ4faip+SSYKxY8d2v96xY0eP23722WcAAKfTiSFDhpzRvIiIiIiIiIiS4bnnnjtpPb6ejB49+gv/lpGRgaVLlwL4/Kl/p2IYBp599lncddddWLp0KTZt2oSOjg4UFRXhiiuuwJw5c/p1V/7fS8kkQUlJCdLT09HY2IiKiooetz3+/vjx46HrZ98tKERERERERHT2+fKXvywq73K5MG/evD5vX1paausRh71J2bfwK6+8Ei+//DI++ugj1NbWIjc39wvbrF27Fnv27AEAXHfddWckj3S/G3mZPT9hoSchrxOqqohycJi6KAcAcDvlMaScDnkOTlNDXoZXFMOlKfB7HLbL+1yG+HM4TE0cI+BxDHzb1OX14U5Cu4Al+xyWZUlDwFRU+DT7M7AAkBl0Q5KGtE0AgMOQ16nXLTtHMgMuQHQkAAuWOAYsEwrcohCDoe92GPL+Js3rEvUXHqcJlyJ7UlAkZonP9fSAU3QsnKYmGj8AjoUnOmvGwkFwnTZo2qZDR16Wv/cNe+AyZJ/lrGqbmirKwe2UXZcQ9VXKJgnuvPNOvPzyy4jH45g/f/5Jj2UAup5qMH/+fACAw+HArbfeekbyaAy3oaa+2Xb5RMJCbWOLKIehOUFRDgCQE/KKY0gVZPrFORRkBlBT1/Nilr3xuU00t0Vslw95XeLPMSw3JI7hNPXB0TaF9ZHjlx/PmPgJJAo6Yu29b9aDA01xbK6R5VF/pA0HGuwfC2mbAI61TWGdhlymMA/r2H/2KVBhwd7Tb47besSJbUdkkwTS+shOQt+djDFE2l+kZYewdo+sTmfmJtAW79stmafTcLRDdCyk4wfAsfBEZ9VYOMDXaYOmbeaEUHNYdp76TJVtE8fa5tEOUQ5tEdk4SNRXsumsfrj00kvxla98BQCwePFi3HPPPaiv73rKQGVlJW644Qa8//77AID777+fixYSERERERGdrTR14P6jHqX0CP3Xf/0XJk+eDKBrRcasrCwoioLhw4dj2bJlAIDrr78ejzzySCrTIiIiIiIiIiKkeJIgEAhg9erVePTRR1FUVHTSe5MmTcKLL76I1157DarK2R0iIiIiIiKiVEv54wMcDgfmz5+P+fPno7GxEeFwGJmZmfB6ZQv2EBEREREREZHMgD5jMD09Henp6QOZAhEREREREREdM6CTBERERERERHQO0vlVdLDij/+JiIiIiIiICAAnCYiIiIiIiIjoGE4SEBEREREREREAThIQERERERER0TFcLYKIiIiIiIhSS9UGOgM6DcWyLGugk0ilW/7lddQ1ttgubxoaItG4KIeA14mjLR2iGH6PA+HWTlEMqYDHgaPCHAJeB462yGJouoZ4wn4z9roMtAg/R9DrRJOwTl1OA+0dUdvlk9I2fS4cbYuIYvidBsKtsmPxXwsuF5WPJWJoitg/zwFgxeY4Pt7TLorRur0SHYI6dTl1tHfERDmE/C4cEZ5jXqeJlg777cLnNvCfP7lSlIOiqOJb315YX4udDbI63fbuJ6LyfrcD4baB728cDgOdgv7CF/TCPaxAlMOscQ6MzROFwPOLd2FvdbPt8pqqIp5IiHJIyljoc+Joq6zv1QDRZ/G6DbS02e+vgLNoLEzGdZrXibBgPNVUBfFYEj6HcEwP+Fzi9q0lEmdH23SZaO+0PyabpoZIQhHlcMl5BfjxzReLYgwmrmt/PWD7bv/vewds3/8bnHN3EmzbU4+tVfW2y+eme1ErmGQAgIvPK8CqzftFMcpG5mL9zlpRDKnysXlYs61GGCMfa7ZVi2L4/G40CwbB8UUZ2FJZJ8ph+oRCfPTJPlGMkrwQKmuO2C6flLY5cShWfSprV2XF6Vi/44AoRjjaJCofTQCftcja1dZ9Liz/2H5fAQCZ9YdQ22D/C4y0TQDA9NKh+GiL7FiML87EFkG/OSTdi6glu1A1FBMJyOa0N+5pwQeVh0Ux9gvP88kjc7FB2HcnYwzJzQqi9rD9/mLEsBzUhWV/ATp/WCa2NcnO9e17DmPdNvvH0+c2ReMHkKSx8LxCrPlU1m/6TFU2FhZnYUvVIVEOZ81YmIzrtDH5WL/L/rWFz2WiublNlEP5+AKs2S7rb8rHFcjbpm6dHW2zMBOVByRt04faZll/M7ooU1SeqK+4JgERERERERERAeAkAREREREREREdw0kCIiIiIiIiIgLASQIiIiIiIiIiOoaTBEREREREREQEgJMERERERERERHTMOfcIRCIiIiIiIhpgOr+KDlYpr5nOzk7s2LED1dXVqKurg2EYKCoqwuTJk+H1elOdDhEREREREREdk7JJgqVLl+Lxxx/Hxo0bEY/Hv5iIrmPevHlYuHAhioqKUpUWERERERERER2TsjUJVq5ciXXr1nVPELhcLhQXF8PlcgEAYrEYXn31VZSVlWH9+vWpSouIiIiIiIiIjknZJEFRURF++MMf4g9/+AMOHDiAtrY2fPbZZ2hra8PWrVtxyy23AAAaGxtx4403nvJuAyIiIiIiIiI6c1L2c4P58+ef9r2xY8di8eLF6OjowNKlS7F7926sXLkSs2bNSnoeeRl+xOIJ2+V9Lgf8HocoB6/TxKjCdFGMgNchjiHl8zgxqjhLFMPrdYljOPx+dMbs12maz4FRliLKweOW10e63wVdsz9vl5S26XZg1NBMUYyAV96+c9w5ovIJy0K2S5ZDeEorMopDohhrl4Thd5u2y6f5ZG0CANw+N0aNKhTFSPMaGKVo9sv7nHCosrbZNadt/zwHgG9fYmDuhS5RjPm7hH23R95XeD0Ocb/p83vhD9pfB2h4UQB3XZUtyuH8zHTk+4aIYvwpqwXN7fb/qGAaGiIdEVEOviT0/16XiVEFshgOQ0NnNGa7fFrIi1GiDACP6ywaC4XnWCDgwahh9scyU1cRae8Q5eDzODGqSDame00Vo3Jka4Y5DF3WNv3ya0WP14VRw3JFMdJDHuhO+23L5zLhzxClAL9PNoYNOqr9aws6swbVkpI333wzli5dCgDYu3fvGdlHTUMYO/Y12i6fm+5FbWOLKIeMgFuUA9A10SCNIRXyu7Fj/2FZDK9LHMOXqaC5PWq7vJEfwI5qWQ5Zfoe4PkryQqisOWK7fFLaZnoAO6rt5wAA3oKA+FhYwi+DahK+UHZaFg51yr487D90FAfqm22Xl7YJAMjKycCOmiZRDGOIT9Qu8tI94jpVoIhjQI0gYrWKQkjbticJfXdGyCfuN3NzgNrD9o9FWoYDR+PtohxMQ4EF2V2DdYfbRMfC5zLR3NwmyiHkdYrrNBTwYMd+WQyf20Rzm/0+y9A0cbvK8rvOjrEw5BUfC6/PI+o3fS4DzUdlnyPkS8J1mlMT16m4beq6vG2m+cTXeiWKispa++NpbpoXtS32r1cB4JJxsvJEfZWynxv0hd/v735tmvb/+kZERERERERE/TeoJgleffVVAICmaZgxY8YAZ0NERERERER0bhkUPzfYu3cvnnrqKTz//PMAutYvyM/PH+CsiIiIiIiIiM4tAzJJMHv2bKxZswYAkEgkEA6HAQBDhgzBggULcNttt/U7ZkVFBV555ZVet4u2Dexif0RERERERESD1YBMEjQ3N6Op6eSFP1RVxeTJkzF8+HBbMbdt24bHH3+81+3GfO3HALjeARERERER0YDRB8VN7XQKA1IzTz/9NJqamtDZ2YkjR45g7dq1WLRoEZYvX47ly5fjiSeewH333devmIWFhZg3b16v223XXIBwNWUiIiIiIiKis9GATBKUlZWd9P/f+MY38NOf/hTz5s3D+++/j/vvvx8XXnghLrzwwj7HnDZtGqZNm9b7vr/zPFBf3++ciYiIiIiIiM52g+bpBunp6XjxxRehKAoA4KmnnhrgjIiIiIiIiIjOLYNmkgAAioqKMG7cOABdCxESERERERERUeoMqkkCADDNrkUFo9HoAGdCREREREREdG4ZVEtKNjU1YcuWLQCAgoKCM7KPdL8beZk+2+VDXidUVRHl4DB1UQ4A4HbKY0g5TQ15GV5ZDIc8hivght9tfzFKn8tAXobsWDp0TVwfAY9j4NumoYqPhdtliI+FIpy/VKBAVTRRjAyXgeF+hyjGjpAHkhqRtgkAcOgq8tI8ohhel4m8dPt5ZAYdgOhIABYscQyP7kLI9ItiDIa+OxnnaZrPCVWxf54F3A7kuWV9t0PRoEvP04BLdCycpga/U5aD0yGvU2cSrgtcpga/236f5XMb4vHYYZwlY6EuvzZxOzTkpduP4TRU+A1RCnAaybhOS0bb1OH3CNqmKxltU95vBjymqE5DXgdUU/aENbdD1l8R9VVKJgnC4TDa29uRnZ192m0sy8Ldd9+NSCQCALjhhhvOSC6N4TbU1DfbLp9IWKhtbBHlMDQnKMoBAHJCXnEMqYJMP2rqmnrfsKcYaV5xDJ/uQnO7/TtPQm4DNQ2yYzksS14fTlMf+LZZkIWaI22iGDluVXwsNEV2gacoKlTIrq4uGaLighxZHi8ekfU30jYBAMOKYqipPyqKEXKqqGmU5JEAYIlyUKDCQkIUo9ifi7iVKYpRU/+eqHx2EvruoUPSxX1WQjdQe7jVdvlJ8TRcU5QvysGhOQFhnTaGO0THwucy0dws6/MKMv3iOi3ITUdNoywPn1NDc1vEdvmQxyEej4dlyY/FoBgLc4LiY5GT7kfNQfsxfC4DzUdln6Mgw4eaQ7L+vyDkEtepz23K2qbXJW+bQ9LE/abT1ER1moh5Udsiu1O6rYN3WlNqpGSSYN++fSgrK8PcuXMxe/ZsTJo0CR5P11+2jhw5gi1btuDJJ5/sXodg7Nix+M53vpOK1IiIiIiIiCjVNN4ZMVil7OcGkUgEr7zyCl555ZUetxs3bhyWL1/evTYBEREREREREaVGShYuHD58OJ599llcc801yMvL+8L7oVAIM2fOxLPPPouNGzdi6NChqUiLiIiIiIiIiE6QkjsJnE4nvvvd7+K73/0ugK4FCo8cOQIASE9Ph98vW0iKiIiIiIiIiOQG5OkGwWAQwWBwIHZNRERERERERKcxqB6BSEREREREROcAjV9FB6uUrElARERERERERIMfJwmIiIiIiIiICAAnCYiIiIiIiIjoGE4SEBEREREREREAThIQERERERER0THn3JKSY4dmIs3nsl3eNDQMz0sT5RDwuTB9UrEoht/nwnS/VxQDkU5R8YDHgekTCmUxvPIYmseNeMKyXd5ragiNzRXlEPQ6Mb10qCiGy2liSJb9R4Oauipvmy4D00dkiGL4HZq4TlVoovKAAgWKLIKSgKYYohhlY/NQHE63Xd5lahiS7hPlEHJq4jr1uk2EXDm2y/vcprhOLSjiGHErDkUYQ3qe+12G+PwIeh2YPi5PFMPhdGB4tv22lRt0Q1WElxAWoCqy+hhXGBJdyGiqing8LsohKWOh34np42V1qsFCPJ6wXd7rMhDySNumU3wsXE5D1O8l5TotCZ/D73ViuuDaQlMVxGNJ+BzCviIZ16yaZSGeELRNt4GQzynKIeg2RPUBAC7TwJCg8DtE3P71KgBkeWXXJYOOxr9XD1bn3CTBtj312FpVb7t8broXtY0tohwunjgUqz6tFcUoG5uP9ZX2PwcAoDksKl4+Ng9rttUIY+RjzbZqUQxf0Ifmtojt8uML07Fl9wFRDtMnDcVHW2SfoyQ/HZUHmmyXzw25UXvwiCiHi88rwKrN+0UxykbmYv1OWftOQHbRrkCFBfsXJAAQT8TRGe8QxVi/ux7V9c22y5fkBlC595Aoh+kTCvHRJ/tEMcYPz8WWPfb7m7wMbxLqVBPHiFsxRC37fQUA8Xk+eUQ2Nnwq6zeTcZ7mZgVRe9j+WOZ3a4glZMdS1zQkhOfp1qoG/FVQJz63KRo/gCSNhecVYs2nsnHIZ6qysbA4C1uqBr6/KckLobLG/liWlOu0QTAWDpq2OWEo1myXjek+3WLbRHLa5ug8+39MIuoPTt8QEREREREREQBOEhARERERERHRMZwkICIiIiIiIiIA5+CaBERERERERDTAdH4VHax4JwERERERERERAeAkAREREREREREdw0kCIiIiIiIiIgIwwGsSdHR0YOPGjdi1axdM00RxcTEmTJgAl8s1kGkRERERERERnZMGZJKgtrYWDz74IF599VV0dnae9J5hGLjwwgvx9ttvw+l0DkR6REREREREROeklE8SfPDBB5g7dy4aGxu7/23IkCFIJBKoq6tDNBrFhx9+iEgkwkkCIiIiIiIiohRK6ZoEW7duxezZs9HY2IhAIIB/+7d/Q319PWpqalBbW4vm5ma89dZbuO2226CqXC6BiIiIiIiIKJVSeifBt771LbS3t8Pv9+P9999HaWnpSe97vV7Mnj0bs2fPPmM5FOelwzBN2+XdDh3ZIa8oh4DTQGlRSBQjzamjtCAoioGIW1Q84HWidHiOKEbQ6xDHMF1ORGJx2+XTfE6UjsoT5eBzO1E6IlcUI+BxwOcStk2fQ5aDW14faX6XOAYsRVYcQByWKEZ9x1E0dB4RxRgxxI8MQZ343SZ8huxY+txmEurUidKhGbbLB31OKNBEOShQAGGMho56tERbRTFKS7JF5dN98vPDn4Tz1O1xIjvksZ+DV0dluEaUQ74nBz5TNg4VZfvR3mH/WBi6imgsIcohKWOh2xSdYwBgGioiUfufJc3vRKk28P1N11hov99MynXaIBgLB03b9DpQWpIlimEizrYJwO3UkZ0REOWQFrDfbw9KqmxcpzMnZZMEy5cvx8cffwwAePjhh78wQZAqVXVHsXVPve3yuWke1B46KsrB4zJQsatOFKPMNFGx+6AoBiKdvW/Tg/KxeajYLfsc5WPzxTF8QR+a2yK2y48vSseWqkOyHLxOVFTKYpQMCaLyQJPt8rkhN2oPyr7UelwF4vooG5krjpGA/UmfLiriVkwUoS3ejsOd9usDAHZWH0FNfbPt8iW5QVTubxDl4HMXiutjfHGW6BzJy/TCEtepJo7RHmtHOBoWxaiolPW7k0dki+sjGedpblYQtYdbbJdPS9NwJCIbC4d4ssTn6d66o6Jj4XObovEDSNJYaCZhLBR+Ful53pWDvL8pyQuhssb+WJab7kVto/22DQyOsXDQtE23/PrGp1tsmzjWNo92iHI4f/QQUXmivkrZPf2/+93vAAAulwvf/va3U7VbIiIiIiIiIuqjlNxJYFkWPvjgAwDAP/zDP8Dr7boNrKqqCnv37oWmaSgsLERRUVEq0iEiIiIiIiKiU0jJnQR79+5FU1PXbbvnn38+tm/fjgsvvBDDhg3DZZddhksuuQRDhw7FiBEjsGzZslSkRERERERERER/JyV3ElRXV3e/PnDgAMrLy3H06FGYpom8vDy0tbXh4MGD2L17N6677jr84Ac/wFNPPdWvfVRUVOCVV17pdbtom2zRKSIiIiIiIqKzVUomCY7fRQB8vjbBnXfeiYULFyIU6lrlf+XKlfjmN7+J6upqPP3005gyZQpuvvnmPu9j27ZtePzxx3vdbsy8nwGQrQBPRERERERE9mk6H3k/WKVkkiASOXlF01tuuQXPP//8Sf82Y8YMvPfee5g4cSI6OjrwyCOP9GuSoLCwEPPmzet1u+2mC4DskTJEREREREREZ6OUTBIcX6jwuAULFpxyu5EjR2Lu3Ll46aWXsHPnTnz22WcYNmxYn/Yxbdo0TJs2rdftyu56AWiw/whEIiIiIiIiorNVSu7xyM7+fB2A3NxcFBQUnHbbyy67rPv1li1bzmheRERERERERPS5lEwSjB49GoqiAADS09N73Nbtdne/bm1tPaN5EREREREREdHnUvJzA4fDgYkTJ6KiogJ1dXU9bnviIoeBQOBMp0ZEREREREQppmvKQKdAp5GSSQIA+OpXv4qKigo0NDRg165dGDFixCm3e/fdd7tfT5o0Kel5uB06/BxqOOUAACAASURBVB7TdnmXQ4ffI3s6gq4q8HucohiGoSPgk8WwIrIbSXQjCcdCU8XHwuPQIeliTEOD322/TQCApkIcw+nQ4ffaP54upwN+r0uUg65pCPjdvW/YA8NhiGO0x2SLi1oWEInLYrS1W+hsE4WAxyFrW05DFZ9jmqaIYzh0WR4ehwnLEqUAwILoRAfQ2WmhvV0WQ3qem6q8PnRNg98r6zddwrFQV1W0C8+PFmcMKmQNw+mUjUMe0+i+09EuXZWfp6ZDR1rI2/uGPXBqiuizmEnpb+RjutOU1WnyrtNkMQzh8fQ4ktA2dVXcV+iGJr7edCORhLYpy6Grbcrq1GnqouPpchrwx2R9nsGnAVCKpGyS4O6778Zjjz2GSCSC+fPn4/e///0Xttm0aRPefPNNAF1rE+Tm5iY9j7bOGMKtkd43PA2Pw0S4My7KIaYZCFuaKAaystERk30R62y3fxwAIOZ1Ihzt+c6QXmMY8mNhNbeiuc3+Z4mEXAiHZVe78c4owk3NohgdRXkIC8Yvj9uFcIcoBVjZOeiIyS5UzWHpgCNNFOPRikpRea/lwXvbZT9XClXX4t1VO0QxcgNOUdvq8DkQbu0U5RC3FHGf1RlLiPLwugy0xFpEObg0N3RFdnH0yO/24O0N+0Qx0CzrKyLRgLhOY04Xwg7ZeeqJyMbCyv2tuPGej0U53H67Gw0B2Th2pDUqOp6WZYnGDwCIJWTnBwAUXzwOiSmyic1NS/8fmqP2y0cSqry/0XTxmN5haQgLPocnocqv0xR5jKiw77VUDc3Sz6E7ENZl51giIwutbbIv14maPaLPEoEmbldxKOL23aE7EVbsx/BoDoSjsv4mmppfihOlrqXl5ubi/vvvBwC8/vrruOGGG1BZ2fVFoKOjA8uWLcPll1+OaDQKwzDw6KOPpio1IiIiIiIiIkIK7yQAgEceeQS7d+/G0qVLsWTJEixZsuQL2xiGgcWLF+OCCy5IZWpERERERERE57yU3rOiaRqWLFmCl19+GVOnTj3p90kejwfXX389Nm/ejBtvvDGVaRERERERERERUnwnwXE33XQTbrrpJrS3t6Ourg4ulwvZ2dniBVqIiIiIiIiIyL4BmSQ4zuVyobi4eCBTICIiIiIiIqJjBnSSgIiIiIiIiM49qsqnNQxWrBkiIiIiIiIiAsBJAiIiIiIiIiI6hpMERERERERERASAkwREREREREREdAwnCYiIiIiIiIgIwDn4dIPRBWkIuA3b5R26juIcvyiHkNvARaNzZDG0OKZmO0Ux4hFNloOpyD+HxxTH0OMxxBIJ2+V9LhN+r0OUQ9DrwEXnFYhieNIcyPbaPyUduoZiv+yUDigxTM00RTGC8U5MCsja1mW5blH51k4N8RGy87Q+0oKLxsvq1KFaKB4Ssl3e7dCRneYV5RD0OHDR2CGiGH6n7Bzxuw04NZcoB1VRoUDWrkYWhtAcsd9XAABamkXFg255XxEyFVw0NCiK4VASKM62f464nSayM2TnWMCwMDzX/ngMAEZ+CG7DfrvQFQUxyxLlEPLI6zRafxQZqqx9Tx6WiWgsbru8z23C75J9jqDTwEUjs0QxPA4N2X77/Y3D0FCcJes3Q0noN6V9r66qomsbAAi5dVw0PF0UI02NozxH2H87sxGLS9qmA3638NrEbcqv07wuZHsF3yEMDcVpsmOZ6ZNdrw42mq4MdAp0GufcJMH2PYewtaredvncdC9qG1tEOVw8sQirt9aIYpRN0LD+swZRDEQ6RcXLh2dizSd7ZTHOK8SaTw+IYvhMFc1tEdvlxxdnYUvVIVEO0ycUYvXm/aIYJSOAyrqjtsvnBl2oPdgkyuHiiYVYtf2gKEbZsAys3yWL8X++JZskUJQAGq2oKEbj0Vas3iZrm7k+Q9RflOSFUFlzRJTD9AmFWP3JPlEM6TkyJNMLC7KLXUXRYcH+RSYA7KxtweqdsnMdjbJ+d/LIXGzYWSuKcfF5BeL+RjqWleSno/JwhyiHi/4hH02xw6IYVTWHseFT+8fT5zZF4wcAlI/Nw5ptsjE94fZizW771yYA4GsPD46xUNjfSPu9pFynJeEcKxuZi/WCcz0pbXN8AdZsl/U35ZM0rNklaxe+SMvgaJvS67RB0DbHFdj/wwNRf/DnBkREREREREQEgJMERERERERERHQMJwmIiIiIiIiICMA5uCYBERERERERDSxV5cKFgxXvJCAiIiIiIiIiAJwkICIiIiIiIqJjOElARERERERERAAGaE2CRCKBiooKVFdXIxaLobi4GBMnToSqcs6CiIiIiIiIaKCkdJLAsiw89dRT+PnPf46GhoaT3svMzMT999+PBx54gJMFREREREREZzFd43e+wSplkwTxeBw33ngjli1bBgBQFAXjx4+Hruv49NNPUV9fj/nz5+Ovf/0r3njjDSgKV7skIiIiIiIiSqWUTd88+uij3RME5eXl2LVrFz755BNs2LABtbW1uPXWWwEAf/jDH/DEE0+kKi0iIiIiIiIiOiYldxK0t7fjF7/4BQCgoKAA77zzDnw+X/f7wWAQixYtwsGDB/H222/jZz/7Ge644w4EAoGk51KcE4ShabbLux06skNeUQ4Bp4nSoRmiGGl6AqWZDlEMwBSVDrgNlI7KE8UIep0oLckWxTBVC5Fownb5NL8TpVqOKAef20TpcFmMgEeDL8dtu7zbYSLbGRLlEAr5MfXiTFGMYLQdpar9cwwADrTZPw4A0BnRoUdk54fX40ZpSZYohluHqL/we0z4XLLP4fO5UTp+qChGmktHqWnYLh/0mognLFEOGizownaVHzBROsTX+4Y9CcmGzXS/S9xX+IM+lE4YJorh1oDsLPv9hd9twueLiHJobTWhtcv6rOyMOpQOt9+2DF1FNGZ//ACAgNcprtOcvAxMz5H1vZ2f7UMkFrddPs1rolR4629yxkKHqN9LynWa1ym+vkkLukUxDF1BNCbrNwN+N0pH54tiBE2gVHBtAgCm4pRdpwWcKDVl9eHzOORtMz0IX7r9Pstt6sjOlfWbaSG/qDylTiKRwHvvvYd169ahqakJOTk5uOSSS1BWVpbU/axfvx6rV6/Grl270NnZiZycHEyZMgUzZsyAx+OxHTclkwQrV65EOBwGAPzTP/3TSRMEJ7rvvvvw9ttvo7W1Fa+99hruvPPOpOdSVdeErVX1tsvnpntR29giysHjMlCxu04Uo2xkLip21YpiSJU7DFRUHpTFMPPEMXymiuY2+53u+OIsbKk6JMvBXSiu05K8ECprjtgun4y2GcjLxuYjsgFsrCOOiqpGUYzadtnFshIzsPOw7HM4j7ajolLWLnJ9hqhOpG0CAHwBDyo+s9/nAcD4PD+2CPrNIekexCxZfRjQIbtcBqoPNYvrFG2touKTR+aK+wpPyI+KqobeN+xBrsdA7WFB2xwSROWBJlEOE6aNxsGmTlGMg/Vh0fH0uU3R+AEA5WPzxHWaPm44th6Uta3o/kbZWFiYji3Cz3G2jIUej0N8bVI2MkcUw+cy0dwubJsuU9z/lw/PFNep+DptWDa27JNdV/ic8vO0RDFQWXfUdvnckBu1Dc2iHM4flSsqT6nx17/+FTfffDM+++yzL7xXXl6OV199FUVFRaJ9VFZW4tZbb8Xq1atP+X4gEMDPf/5zfO9737MVPyWTBJWVld2vp0yZctrtLr300u7Xb7755hmZJCAiIiIiIiJKtg8++ABf+tKX0NHRAU3TcPXVV6OkpATr1q3D+++/jzVr1uCCCy7A2rVrbU8UVFVV4eKLL8bBg10TkSNHjsSFF14I0zRRWVmJDz/8EEePHsU//uM/oq6uDg8//HC/95GSSYK2trbu18Fg8LTbORyf3162YcOGM5oTERERERERUTK0tbXhlltuQUdHBwKBAFasWIHy8vLu9//7v/8b119/PQ4ePIjbb78d7733nq393Hfffd0TBI8//jgeeOCBk97fsmULLrvsMjQ0NGDBggW45ZZbMGLEiH7tIyULF564tsDxD3QqR49+fgvPgQMHEI1Gz2heRERERERERFKLFi3C/v37AQBPPvnkSRMEAHDttdfiRz/6EYCun+OvXbu23/uIx+NYsWIFAGDy5MlfmCAAgPHjx+OZZ54B0LU2wvLly/u9n5TcSXDizMXKlStx+eWXn3K74x/4uEOHDiEvr28LlWzbtg1vvvlmr9tF22ULXxERERERERGd6KWXXgIAhEIhfOMb3zjlNt///vfx85//HIlEAr/73e9wwQUX9GsfDQ0N6OjoAABMnTr1tNudOEHR0x/pTyclkwSXXHIJcnJyUFdXh2eeeQbf+c53MGzYySszt7e3Y8GCBSf9WyLR95VQKyoqMH/+/F63G/O1H0O6qj8RERERERHZp6rKQKeQNO3t7d13BsyYMQOmeervm9nZ2Zg8eTLWrVtn6+cGaWlpMAwD0WgU7e3tp93u+EQCAGRk9P+peimZJDBNEw899BDuueceNDc3Y/r06fjVr36FmTNnQtM0bNq0CQ888AA2b97c/aH7q7CwEPPmzet1u+2aC4D9RwQRERERERERHffpp58iFosBAMaOHdvjtqNHj8a6detQVVWF1tbWfj2q0DAMzJw5EytWrMCKFSvQ1tYGt/uLjyn9j//4j+7XV111VZ/jH5eSSQKg69aKyspKPPXUUzhw4ABuvPHGL2xTXl6OiRMn4vnnnweA087AnMq0adMwbdq0Xrcr+87zQL3scTBEREREREREAE563OHIkSN73LagoKD7dXV1NUaNGtWvff3rv/4rysrKcPDgQcyePRvPPPMMzjvvPADAkSNH8Jvf/AaPPfYYAGDhwoUYM2ZMv+IDKZwkALoWcJg9ezaefPJJfPjhh91PPcjJycEdd9yBhx56CHPmzAHQ9aSDrKysVKZHREREREREZ7HY0UO47rrret3uwQcfxOTJk/sUs7m5uft1dnZ2j9ueuKh/Q0NDvycJhg8fjg0bNuAHP/gB3n77bUyYMAFutxumaaKpqQkAUFRUhIcffhi33nprv2Ifl9JJAgC44oorcMUVVwDoOpi6rsPlcgEALMvq/i3HlClToChnz+9UiIiIiIiIaGBZnW1YtmxZr9vddtttfY7Z2dnZ/fpUt/+fqD8/LzgdRVFQUFAAt9uNcDiMtra27j/AK4qCvLw8+Hw+2/FTPklwor9P/KOPPkJjYyMA4Oqrrx6IlIiIiIiIiOgM03R1YHYcSMPChQt73Wz06NF9DnniH7ePr01wOicuKmjHunXrMGPGDDQ3NyM7Oxs//vGPMW3aNJimib179+KFF17AH//4R8yZMwf33nsvnn766X7vY0AnCf7eL37xCwBdCzJ885vfPCP7cDsM+D0O2+VdDk1UHgB0VRHHMHRVHEOq63PInhSha/IYHl2DotrvZExDXqeaJq8PpynLIxltU4MCnynrsA0tAb/LEMXw6bI2YVkastyyz6H6DORlukQxXIrsXHcmo20mob9xGLoohsdlQoHszjBpeQDICDiQnymbvQ839Dzw98ZMQt+tqxb8btk50tVf2I/hdurIz+r5LyW98Ts0JFyyxxKHnbIx3eMwxHct6qq8TrVEAl7hFVnUaUDyUUxThd/jFOVwtoyFuiK/NjF0WR4ehw5F+P1JVxVxX5GMGB5dFZ1nXf2mLAdN08Tt22mqomPhMnX43fLrf5LTPEH86Ec/SmpMv9/f/fr4Lf+nc+JTCZzO/rXLzs5OXHvttWhubkZRURHWrFmDnJyc7vcnT56Mr33ta3jggQfwy1/+Er/+9a9x8cUX4/rrr+/XfgbNJMHChQuxfPlyAMD999/f62857GrrjCLc2tn7hqfhcRqi8gAQS1jiGNFYQhxDqutzRGQxLAXhdtnTJqygG82CwSeimwj3/4EaJ4lbENdHR8Q94G2zM9yMQ7tkC3sWFAQQrm8Uxfj68HGi8oCKm0bLvsztb9FRN092QXHHfZ+I6qQjKGsTABDXTYRV2cVVp2YgnLD/Zc4HHV5D9uVcgQZL+GSa/3vHOLTHi0Uxzpvzuqh8JAl9dyxmIdx8+sce9YXH8CDc2ffHDP+93Gw3XnjkPFEOQ9x5MDXZhOI1b6mi/tvSgWbxmC6v0/DeA9i3vVYUw+c20dxmf0yOxIGwJZu0iUM5K8bCmAXxtUlU1UX9pgUdze2yvzbGEkBY0CaArr+IhsNtohiWuG0mxPUR13Rx++6IJkTH0+M0ELZkX/Kjiuwz0JmTnp7e/XrPnj09blt/wiL6eXl5/drP8uXLUVNTAwD4yU9+ctIEwYkeeeQR/O53v0NTUxOefPLJfk8SpGw6avXq1Zg5cyZefPHF7kc+VFVV4c9//jOuueYaPPjggwCAqVOn4mc/+1mq0iIiIiIiIiKy7fjTBQBg+/btPW67e/duAF13H/T3D+OrVq3qfj1lypTTbud0OnHBBRcAQPeaf/2RsjsJLMvCypUrsXLlytNuM2vWLLz22mtwOAb2NnoiIiIiIiKivsjNzUVRURH27t2Lv/3tb6fdzrIsfPzxxwDsLdR/fMF/AFB7+bn18dia1v87UFJ2J0FJSQm+/vWvo6io6KR/13Ud06ZNw6uvvoq3334boVAoVSkRERERERERiV111VUAgA0bNmDr1q2n3ObNN99EQ0MDAOCmm27q9z5O/HlCRUXFabeLRqNYt24dgK4JjP5K2SRBTk4OXnrpJezZswetra347LPPsHfvXrS3t+Ojjz7CDTfcwEceEhERERERnQNUVRmw/86Ee+65p/uv+3fffTei0ZMXzQmHw3jggQcAdK1hcKpJgoMHD6KsrAxlZWV46KGHvvD+jBkzur8zP/LII6ddJPHRRx/tnoy45ppr+v1ZBmSJTLfbjeLiYhQWFkLXB83aiURERERERET9Nnr0aNxzzz0AgI8++gizZs3CihUrsGHDBixZsgTTpk3Dzp07AQBPPPEEPJ4vLuociUSwYcMGbNiwAVVVVafcx5133gkA2LlzJyZNmoR///d/x9q1a7Fhwwb88Y9/xLx58/DTn/4UQNe6B3ae5MBv6ERERERERERCv/rVr3D48GH853/+Jz744AN88MEHJ72vqioWLlyIb37zm7b38etf/xqHDx/G0qVLsWfPnu5Jg783ZMgQLF26FPn5+f3eBycJiIiIiIiIiIRUVcXixYtxyy234LnnnsO6desQDoeRlZWFSy65BN///vcxceLE05b3+/3453/+ZwDA5MmTT7mNaZpYsmQJ/vKXv2DRokVYv3496uvr0dnZiczMTBQVFeHqq6/G7bfffsq7FfqCkwRERERERERESTJr1izMmjWr3+UCgQAee+yxPm172WWX4bLLLuv3PvpiQNYkICIiIiIiIqLBh5MERERERERERASAkwREREREREREdMw5tybB6MIMBLxO2+UduobiISFRDiGvExedVyCKEfQ4xDGkQl4nLho7RBbDY+Ki0TmiGLrHg5hl2S7vc+jwOzRRDkG3Ka4Pj9NAdprXdvmktE23gYtGZopiBB2auF0okNUHoEBTDFGEkOmHqcpilI48iMKcoO3ybocuahMAEHQouGio/RwAwG+q8Avahd9tJqVOpTE8hgcOzSGKcdGEIlH5oEfeV4TchrjfdBgairN8tsvnh3zIcMr6Cl0xoAvP0zFD06Go9tuFrgGxjk5RDqEkjMchr0M+FuoqYrGE7fI+jwN+wfURAARd+tkxFiahPoJeh2g81VUVsRxZ/x/yyq+xQk5NXKe6qiCWEFynuR3w+9yiHIIuAxeNyRXF8Dh0ZPtM2+UdhobihCLKIdNrf/+Dka7z79WD1Tk3SbB9XwO2VtXbLp+b7kVtY4soh4vPK8DqzftFMcpG5mL9zlpRDKnysXlYs61GGCMfa7ZVi2L4crPR3B61XX58fgBbdh4Q5TB9bK64TkvyQqisOWK7fFLa5sQirN4qq9Oykkys3yFrmxbiovIKVFiwf7EMAKZmIo6YKEbFzkOorg/bLi9tEwAwfdIwcZ2OL0rDFkG/mZfhTUKdauIYuqpBUexfqALAamGfN3lENjZ8Kotx8cShWL1V1m9K+4uQpxiGKruE0FUdEJ6nn+5vwl+32+9vfE4DzYebRDkMmrHQbaK5LWK7/PiSbGzZLzsWZ81YmIzrtDH5WL+rznZ5n8tEc3ObKIfy8QVYIzg/AKB8VA7WCPsbcdsclo0t+xpFOUyfWITVm2WfoyTHj8oDgraZ5kVtU7soh3F5AVF5or7i9A0RERERERERAeAkAREREREREREdw0kCIiIiIiIiIgJwDq5JQERERERERANLVWULOdKZwzsJiIiIiIiIiAgAJwmIiIiIiIiI6BhOEhARERERERERAMGaBK2trYhGu55NHwwG+1zOsizs3r0bmzdvRltbG7KyslBYWIjRo0fbTYWIiIiIiIiIkqBPkwTt7e3YuHEj/va3v2Ht2rX4+OOPUVlZ2f2+ZVk9lrcsC++99x4WL16MP/3pT2hoaPjCNoWFhXjwwQdx1113QVG4iAURERERERFRqvVpkuDXv/415s+fb3sn1dXVmDVr1kn/5nQ6EQqF0NjYiEgkgn379uHuu+/G8uXL8cYbb8AwDNv7IyIiIiIiosFL0/jL98GqXzXjcDgwZcoU3HnnnRg1alS/dzZs2DD86le/wqZNm9DS0oIDBw6gpaUFy5YtQ15eHgDgj3/8IxYuXNjv2EREREREREQk06c7CebMmYPZs2dj3Lhx0DQNAHDVVVdhx44dfdqJ1+vFsmXLMGfOnC/8lMAwDMydOxelpaWYOHEiWltb8ctf/hIPPvggdN32kgmnVZyfCcPptF3e7dCRnRUS5RBID6H0goAoRlrQg9LMHFEMxKKi4gGXitK4LIVg0IPSMQWiGGmjihHt5ScvPfGpgO4wRTmMmFSIof8wQRSjZlstfIWdtsu7dRXZDY2iHAIeJ0qHZohipPlcKB0ua5sKNGF5AMIYpgpoqlcUY9R5w5DRbL9O/Q4NPq9blIPPqaO0SNZnpflk7SLocyahThVI61RBAqoiG1dKLyoVlU83LJQmRCHgdxvi89TtMpDtsz8WZnhdMFWHKAcVChTh+slFw4ag3eWzXd5QFURbWkQ5BDw6SofLBsOg1yHuN01DRSRqv3GlpftRmjNElIPPiKF0VJ4oRsDrhM9vv+9NynWaVz6OpXkdovPU0FVEY35RDgG3KR/Ti/JQli2rUy3aiUhM0DYdCkoNWd/tMzXxWBjwOOAz7Y9DbqeB7ID9fhcA0ty805pSo09n3IgRI0Q7CYVCmDt3bo/blJSU4NZbb8Wzzz6LcDiMbdu2YcIE2ZeuU6k6eBRb93xxTYS+yk3zoPZwqygHT8iHin1HRTHKHA5UVMtiIGL/ywsAlBf4UFF5UBbDaaKi8pAoRmFWDlo67V+gDQ8YqNgj+3I9YWoJ9rbHRDFqmzqwqzZsu3yuz0St8Fh6xuSgYnedKEbZyFxxDAvC2SeosCD7JmYpQCIhy2NHXTOqG+33FyUZblQKzzGfMw8Vu2T1Mb44C1uq7LetvExvEupUE8ewYCFhyc7Tihr75ygATM5yiPtNj2OI+BzLTfeittH+l+P8bA8SlrBOVUNcp3sPd6Biv/2x0OfQ0Nx4RJRDeVFQXB/lY/PFMXxuE81tEdvlx+smtgjHMV+OKW7fJfnpqDzQZLt8Uq7TBsFYKK1PACgfmyf+HO7iImyqbRbFcMUiaO6w/4ep8VkubBkEY2FJXgiVNfb7C2m/CwDnj5ZN5BH11aD6IUhhYWH369ZWWQdPRERERERERP2T/Pv5BU58YkJ+fv4AZkJERERERERniqrxiXaD1aC5k+Dw4cNYsmQJAKC0tBQFBbLfqRMRERERERFR/wyaOwnuvfdehMNdv/VcsGBBv8tv27YNb775Zq/bRdtd/Y5NREREREREdC4YFJMEv/nNb/DSSy8BAK6//np8+ctf7neMiooKzJ8/v9ftxlz3MADZyqJEREREREREZ6MBnyR47bXXcO+99wIApk6dihdffNFWnJycHMycObPX7eoM2SObiIiIiIiIiM5WAzpJsGzZMnzjG99AIpFAWVkZ/vSnP8HlsvdzgBkzZmDGjBm9bld2938Ah+0/ApGIiIiIiIjobDVgCxe+8847+PrXv454PI4RI0ZgxYoVSEtLG6h0iIiIiIiIiM55AzJJ8Oabb+IrX/kKotEoxowZg/fffx8ZGRkDkQoRERERERERHZPynxusWLECc+fORTQaRUlJCT788ENOEBAREREREZ1DdG3AbmqnXqR0kuCdd97Btddei2g0ivz8fLz33nspnyBwO3T43abt8i6HJioPdB10v0N26A0V8DuEJ5aiiYrrqiI/FkmI4dE1KILypqrC7zJEOVixOByq7Hi6NEXULlxGMupDhd8jW9zT0OUxpCxYSYmiiFoW4HPq8Lvs16lTV8V1qmmKuD4cwjr1OGSfAUhOnSqAuE79Dtl5biaj39Tk55jLYYhiGJoqPpaWlYAiCwG3oYjqxGOqUATnKHBsHBPWRzJieBwGFMEBNXVFfF2hqRC3b6chu85KynXaIBgLPaasPoHkfA4dCfhNWbtwqAoUy/55amryfjMZY6HT1EQxXA5ZeaCr7yVKhZRNEqxatQrXXnstOjs7kZOTg/fffx9FRUWp2n23tpY2hJuabZf3aBbCTS2iHGKtrQhX14hiRD0WwnsOimIg0ikqHnPnIRxuk8XojIjqAwB8HVG0dMZtl8/ULIQPh0U57NnThP+3VxZjWPQIwjVHbJf3hNziYxmLBRFulbWLaCwhjiGlQBF/qVQVDZaaEMVobmhCuMF+f9Gh+MTnWDwJ9dEpjOFzyybhgON1KqNCAxRZlPB+Wd8d0dLk/WYsLq5Tj8eFsKDfjEKFLpwYVRUNFuznAABt9Y0IV9faLm+5DDQfFY7pQUNcTZuyQQAAIABJREFUH7GEJY5hWRaa2yK2y0faOxDeXyfKIe7OFbfvDp9j4K/TBsFYKK1PAIgl5P1/5GA9Dm+3f44BgE8Xts3irEExFnZE3KIYHqe8r4jGZdclRH3Vp0mCSCSCp5566qR/q6ys7H79+OOPn/TeV7/6VYwZM6b7/6uqqnDllVeivb0dADBz5kz8/ve/73Gffx+DiIiIiIiIiM6sPk0SdHR04Ec/+tFp3//79woKCk76gn/gwAG0trZ2//9LL72El156qcd9/n0MIiIiIiIiIjqz+jRJoOs6Zs6c2eegOTk5J/1/MBjsV/lTxSAiIiIiIiKiM6tPkwRutxvvvvuu7Z2MGzdOVJ6IiIiIiIjOHqomXL2WzhgukUlEREREREREADhJQERERERERETHcJKAiIiIiIiIiABwkoCIiIiIiIiIjunTwoVEREREREREyaJp/Hv1YMWaISIiIiIiIiIAnCQgIiIiIiIiomMUy7KsgU4ilZb8pQLtkZjt8poKxBKyQ+Y0dbRGIqIYbocDkWhCFAMJWXmnoaMjav9YAoDT1NARiYtibLFUxAQfJaQn4IuFRTl4vT60C8+k9ISBmOCDaCoQlxwIdLXNDsH5AQBOQ0NHVFan7Z1RWQ5J+Bwuh442YR6bmy10xO03jHSXhnF+TZSD0zTQEZF9DlPXEYnZP54KgPZOWZtwOYxB0S7eqmwVlc8PasjwtYtiDA2kQ0vI2oWqqYgLxgBdVdDSJh3HDPE51qlH0BG3H0NTVKQZXlEOTlNHR6d8TO8UjoWKYkFyeWLoKlqiss/hdzgREX4OQ1cRFY6F4us0Q0eb9DrNNNEpGAsVBZBeoSflOs1himOoVkLUNh26hs6YrF2pehxH29tEMUJOHyRpaCoQF16656b5ccX5I2VBBpGpz60asH3/7bsXD9i+/zc459Yk+Or0YlgQnKEWkJCUB5CwgM5EhyiGR/cCwjykFGiwIOy0oSEhjLFt/W4k4vZj5KU5MS7NEOUQMl1oi7WIYowKjgAwsHN2yaiPZMRIu/I3ovKTR+Ziw85aUYyLzyvAqs37RTFu/T/XokVwkTgq04M5E4KiHDRFR9wSXuAJ6zTcGsHwuf+fKIfysXlYs61GFKNsZC7WC9tFwcwLROVHjXZhaInsy8dVBUPhM0xRjLhlicbC7VVNuOTuV0U5TJ9QiI8+2SeK8eYLlyGh22/fpqqjNL1IlIMKHTFL+IVSd8uuTQAkrP+fvTsPr6q698f/3sOZp8wkhARImA2gicUgUBVai6IVrGi9Tigi96rUatsv3Gprr9UqXK/W3ktbsYqorRT8QXvF4lVAEVCMgspMIAYhEIbMwxlyhv37A42okJyzP4ckhffreXieE85en/05e6+91jrr7MGApA+JGgYa2xpFOaTa0qApohBQoHb7OA1QEY7J9qlds4v3qVRPGadJiesEgIa2ZtSHakUx+nv6o7vHaboia/uJ4sXLDYiIiIiIiIgIACcJiIiIiIiIiOhznCQgIiIiIiIiIgBn4T0JiIiIiIiIqHtpOn+v7qm4Z4iIiIiIiIgIACcJiIiIiIiIiOhznCQgIiIiIiIiIgCCexK0trYiHA4DAFJSOn+OdyQSQUtLfM+R93g80DTNbGpEREREREREZEJckwSBQAAfffQRysrK8P777+ODDz5ARUVF+/uGYXQa44033sCkSZPiSmr9+vUYM2ZMXMsSERERERERUXLENUnwu9/9DnPmzDnduRAREREREdFZQFOV7k6BTiGhyw1sNhuGDx+O4uJirF27Frt37za10tdeew3Z2dmnfH/w4MGm4hIRERERERGReXFNElx99dW47LLLcM4557TfK2DSpEmmJwmGDx+OvLw8U2WlVGiIQTZrpQjLG4jCMIQxDAOK8L6TipKM7SC7d4QBAIbsc2ghL/Ro55e8nEpDK3DYHhHlYBhRGML9EYsZ0NTuvheHAkW4T5MRY9TQXFH5NI9dHCPFLY/R/FkLwjHzdbMxogDD00Q5xAwDcVwR1iFDARTFfP3WVU2+T72OJMSQ71M9JmsrGuuAT339RDFq01V4vML234gBgn3qsFnE29LnsoljVNbZoblcpsvbNBUjZIcYDEQRFR5kMcOAqsjaTRUGPu9VTQlGQzgSaBTlYFedcFucohjH2xrZ+EQVlo8aBgRNN4AvLsU1f4wZMMTjzeOE9yhXkIRxgZQi3hb+SBj1obAoRr7bgC48TuX4yzt1jbgmCQYOHHi68+gyMURhICaKEUVUloNhoC0WEsVwwgFDmIcqfriFJs4BUBGDbNC9oyYAf8T8PrXoOqx22cDIa/WiNdIgiqEoSML2lFGSsE+TEaNs50FR+eJBOdhcXi2KMWZ4njiPQdl9cKTZ/LHutiiIGrJBjaroiAhjWBQFMcP8Pm2LhsXbsnRYrjhGyaAcbBLWC8gOc7jTnDh0VNb+3zxU3m5GYcAwzLebraGQeH+MG5EvjnFFrAj1TUHT5T0WHWFhf6wpFnGf7lac4nYzJpwkCBth1ATrRDnku7LFdVOBLh6nxcTlDXG9sGtW8T4VzlN8/sOYtE+39ICxiSquE/5ICEeF9VtF94/TpD/OEcWLj0AkIiIiIiIiIgCCRyBKNDc345NPPkFNTQ3cbjcKCwuRkZHRHakQERERERFRF9N0/l7dU3XLJMGIESMQjX71dJ2SkhI88MADmDx5cnekRERERERERHTW65ZJgmg0CrvdDkVREAgEAACbNm3ClClTMHXqVCxevBiqmtjM0o4dO/Dqq692utz1N1+DjEzhXYqIiIiIiIiIzkBdNklgs9kwbdo0TJo0CWPGjEFOTg4A4PDhw1i2bBl+8YtfoK6uDkuXLkXv3r3x29/+NqH4H3/8MebMmdPpcuMvHcdJAiIiIiIiIqKT6LJJggkTJmDChAnf+P/s7GzceeeduPTSSzF69GjU1NTgd7/7HX784x+jX7/4HxOVnZ190vhf53a7E8qbiIiIiIiI6GzRLZcbnMyAAQPwyCOPYObMmTAMA0uXLsXPfvazuMuPHz8e48eP73S5QKRR/BgVIiIiIiIiojNRj7ql5FVXXdX++uOPP+7GTIiIiIiIiOh0UTW12/5Rx3rUFurVq1f764aGhm7MhIiIiIiIiOjs06MmCaqrq9tfp6end2MmRERERERERGefHjVJsHjx4vbX5513XjdmQkRERERERHT26ZIbFwYCAfj9/g7PDnj33Xdx//33H09K13HNNdecllzeP7YdzeEW0+UVw44NRzVRDtagF2/sMp8DADxxRQMUTRZjWOpQUXkYBsKxkChEfagBjeF6UYx3X9yIJn+b6fJ1/bOw7bNaUQ7jRvbFuu0HRTE+er4PFC1iurxFsSLF5hPloCo62mJBUQyX7kYMUVGMM0Xzlu1orDV/nO4K5uFqTdbeXDHMgWbIjrFUqxuHA37T5Y02Q7R+AICqArqwy1LkaaBadpzXbDew+e9HRTG29BuDygzzbR4AtIYVBKLm2++GGtHqk2bJs9uwbZ/5ZLxuO54q6C/K4YKCNGypbhLFePPu89DLJzvWd9TvRtQw3/ZWfAbc8fheUQ4vznEjr09YFMNr8aBNMLYIRS34y17Z8eEIOfHG9kZRjMe+b0NUMV8vdEWDTXjdtNfiRWu0WRRjiG8wVGHbecR/BDHBTcOtqh2hWECUw/Ov1uH3r+0Txfjw932gaObrtwYNgaj5vhQAMuxZyHMXiGIQxSOuEVdbWxt++9vffuX/Kioq2l/PmzfvK+9deeWVGDr0yy+gNTU1GDJkCK6++mpMmjQJRUVFcLlcAI5fYvDKK69g/vz5aGs73qg/+OCDyMvLM/eJiIiIiIiIiMiUuCYJgsEgZs+efcr3v/5eXl7eVyYJAMDv9+Oll17CSy+91OG67rvvPjzwwAPxpEVERERERERESRTXJIGu65gwYULcQbOzs7/yd1paGn7605+irKwMmzdvRktLyzeWnzBhAmbNmoULLrgg7vUQERERERERUfLENUngdDqxatUq0ytxuVz4z//8z/a/GxoaUF9fD0VRkJGRAbfbbTo2ERERERER/XPRhPfdoNOnS25c+HUpKSlISUnpjlUTERERERER0Slw+oaIiIiIiIiIAHCSgIiIiIiIiIg+x0kCIiIiIiIiIgLQTfckICIiIiIiorOXpindnQKdAs8kICIiIiIiIiIAnCQgIiIiIiIios+ddZcb7N0VRl1L1HR5RQkg0KqJcmgzosgNtolifPBRG1RFFuNT22ei8lZdQzAcFsWIqm1oDQZEMUYWZCIUNr9PU1w2OG29RDl4bRpGDcgUxVhbVgPJ42J1TYVFaRblYLPoCEQiohgOixXhiPn9AQDfHlckKu+z69AdDlGMFLcFo4bmimLYbTrysnzmc/DY4WyW7dOje4OIIiiKEdajCITN1wvVAH54zXmiHPqleTBpbH9RjB17a6Gp3Ts3nuZ1YNTgbFGMnbv8cLoNUYyIAYSj5mOEgob4+PB6nBg1vJ8oRorTAqfVfPut6yo0tygFuAKtGGqLiWK8tfkg3DbZ2KLOH0DMMJ9Hcyswqq/s8dQ7y1tw5Iisbtr1GMJR831IDAqi9bL9EYiF0Tciaze3fBIGYL7d1JQoVEV2KrbT2ohAWDZWPOCqQjQmyyPQ1oIYzO8Tq6ajLSobm8SCYXH9XvdBLTTVfP1WVRXhiGzcPCQviDzZEIkoLmfdJMEf/rwL2yuPmS6fk+5GdW2LKIcxw/OwYesBUYzqQTnYVF4tiiFVOiwXG3ccFMbog407qkQxPE4rmv3mO8Gi/lnYVnlUlMO4Efko27JfFKO2thEVB+tNl09K3RzZDxt2yupVyYBMbCo/LIqRPfpcUflBFgvKqmT1akyeB2U7ZfVbuk8Kc1NR8d4eUQ7jRuRjnbBuSo+R9DQnrrn3QlEOY/tm4/xMpyjGLQ+uEu9TqeJBOdgsbLstqiLuQ5JSNwXtFQCMO38gyvbViWIUZdqx7VPzdfN4/7FPlEMy+sJAbSE27pa1mx6Eu70vtEXaxO2NtG71lHHaUeE4TTq2AZI0ThvRDxt3ydosj250e91MyjjtSG23180ZVxbjkqJhohhE8eDlBkREREREREQE4Cw8k4CIiIiIiIi6lya5zpZOK+4ZIiIiIiIiIgLASQIiIiIiIiIi+hwnCYiIiIiIiIgIACcJiIiIiIiIiOhznCQgIiIiIiIiIgDd+HSDSCSCAweOP4NW0zTk5eVBUZTuSoeIiIiIiIjorBf3mQR+vx/r1q3DE088geuuuw6DBw9GQUEBCgoKElrh22+/je985ztwuVzt5fv27Qufz4drr70WO3fuTPhDEBEREREREZFcXGcS/OEPf8Ddd9+NWCwmWtkjjzyCBx544KTvNTc3Y+nSpVi+fDlefPFF/PCHPxSti4iIiIiIiHomVeNZ5D1VXGcSNDU1tU8QWK1WlJSUIDs7O6EVrVixon2CICsrC3/961/R1NQEwzBw7Ngx/P73v4fD4UAkEsEtt9yCioqKBD8KEREREREREUkohmEYnS20bt067N27FyUlJRg2bBh0XcekSZPwj3/8AwAQRwhcfvnlWLlyJVRVRVlZGUpKSr6xzJ///GfceOONAID77rsP//Vf/5Xo5+nUD3/1Cg7VNJsub7fqCLZFRDlkpjhxrMEvipHmtaOuKSiKIZXhc6CmMSCM4URNo2xbWHQV4Yj5s1xSXDY0tIZEOWSlOnG0XvY53A4rWgJtpssnpW6muXBMWK/SXFbUNcnqxXO/ulxUPhiOIBqV7dPXtjTh40OtohhNu/bBL9inbocFLYGwKIesFCeOCtsbn8uGRsEx4nVZ8eyDl4ly0BQFLovsXru/f68ae+pk9XvHmx+Jyqd57KhrluWQjD7EYdURELQXaekepAzrJ8rhuwUuDO9tE8V4/PmPsK+6yXR5XVMQiXY+hulIUvrCFKc4hkVT2BfizBmnsW5+iXXzSxNK+uPBWy8WxehJrvj7lm5b94qrRnTbuv8ZxHW5wbhx4zBu3DjRinbv3g0A6N+//0knCADguuuuw2233Ya2tjbs2rVLtL5T2VNVi+2Vx0yXz0l3o7q2RZTDmOF5KNt5UBSjZFAONpVXi2JIlQ7LFX+O0mF9xDE8Tiua/eYb7aL+WdhWeVSUw7gR+eLPUZibioqD9abLJ6VujuyLsp2HRDFKCjOxabesbmZ4ZKefGYYVrRHzdQIAAqqG7fWyQUlgf41oUlJaJ4Dk1E3pMZKb6YbHKtunCjQYiIpi1BkaPg3JLpuTbsviQTnYLGy7k9GHSNuLonPycKxVNti9Id2J9BTZl6D9R5pE20LafwBJ7At3VIlisC887kwZp7Fufol180sjB/QSlSeKV5c9AjEaPT64czqdp1xG13XYbMd/VdA0rUvyIiIiIiIiIqLjuuwRiOeddx4+++wzfPbZZwiFQu2TASeqrKxEc/PxX91GjRrVVakRERERERFRF9K1Lvu9mhLUZXvm5z//OXRdR1NTE/7t3/6t/cyCL7S2tmL69OkAgIyMDMycObOrUiMiIiIiIiIidOGZBN/61rfwyiuvYNq0aVi4cCHeeecdfPe734XX68WxY8ewcuVKHD58GIWFhVi8eDEyMzMTir93716sWbOm0+UiIdmNyIiIiIiIiIjOVF02SQAAV111FVavXo3rrrsOe/fu/cZjDktLS/G3v/0NvXolflOOsrKyuM4+GDrlFwCsCccnIiIiIiIiOtN16STBQw89hP/4j/9ALBZDRkYGLrjgAmRnZ2Pfvn0oKyvDxo0b0a9fP/z+97/HrbfemlDs7OxsTJgwodPlDltsAGR3UyYiIiIiIiI6E3XZJMGTTz6JBx98EAAwY8YM/Pd///dXbl7Y2NiIH/7wh3j99ddx2223ISUlBVOmTIk7/vjx4zF+/PhOlyu5/WmgxvwjEImIiIiIiIjOVF1y48KWlhb84he/AACMHTsWCxYs+MbTDXw+H5YtW4bc3FwAwM9+9rOuSI2IiIiIiIi6mKoa3faPOtYlZxJ88MEHaG09fsPA66+//pTLORwOXHnllfjjH/+IiooK7Nu3D/369euKFImIiIiIiIiSoqamBps3b0ZTUxOysrLwrW99Cw6H47Ssq66uDp988gn27duHlJQU9O/fH8OHD4emaabidckkQXV1dfvrtLS0DpfNz89vf93S0nLaciIiIiIiIiJKpgMHDuDHP/4xli9fDsP48qwFu92O6dOnY+7cuXC5XElZ19atWzF79mysXLnyG++5XC5MmTIFL774YsJxu+Ryg5SUlPbXhw4d6nDZvXv3tr92u92nLSciIiIiIiKiZNm7dy9KSkqwbNkyGIaB/Px8XHLJJUhNTUUwGMT8+fNx4YUXorm5WbyuZ555BiUlJe0TBKqqom/fvkhNTQUAtLa2Yu3ataZid8mZBKWlpVBVFbFYDIsWLcKsWbNgsVi+sVxNTQ2WL18O4PgZB6flUgNNB3TBx5aWBwCrHfB4ZTGyegEB4aMcpZXTZpeVTxZdB/SY+fJqEubKPB6gV7YsRl4OYM80X95tAZr3dr5cZyIRWfkkXOalK+ZOjfqSAocmq5+XDG9G7/yoKMbjHwvbC1W6HehE157Tiu8MaBTFeOdZYfuvdcnc/GmX4YrijvENohiDM3Lgscp+DFA0LQl9uqD/AJLTh/QEiiIf3yhKcnKhniMjC+grHG/WH+7+cRpRF4jFYviXf/kXHDt2DJqmYf78+Zg5cyYAIBqN4sEHH8QjjzyCLVu24J577sFzzz1nel1///vfcccddwAABg4ciIcffhiXX355+4/sx44dw1tvvYVVq1aZih9XbxCNRvH2229/5f9qamraX69evfor7xUVFaFXr17tf6elpeEHP/gBli5dii1btuD73/8+nnvuOeTk5LQvs3PnTlx//fWor68HANx5552JfxoiIiIiIiLq8SyqcJK2h1m2bBk++OADAMAvf/nL9gkCANA0DQ8//DCqqqqwaNEiPP/887j//vtRWFiY8Hrq6upw2223AQAGDBiAd999FxkZGV9ZJjMzE9deey2uvfZaU58lrkmC1tZWfOc73znl+19/7y9/+cs3blA4f/58fPLJJygvL8frr7+O/Px8DBs2DLquo76+Hvv27Wu/ZuO73/0ufvnLXyb6WYiIiIiIiIi63PPPPw/g+L0HfvSjH510mX//93/HokWLYBgGFixYgLlz5ya8nieffBJ1dXUAgMWLF39jgiAZuuz8nczMTHz44Ye499574fV6EYlEsGXLFmzevBmVlZUwDAO9e/fGvHnzsHLlypNejkBERERERETUk0QiEbz11lsAgIsuuugr9+Q70eDBgzFkyBAAwIoVK0yta+HChQCOX9JfUlJiKkZn4jqTwOv1fuXOjGZ5PB488cQTmDt3LrZu3YrDhw/D7/fD5/MhNzcXQ4cOhcLr2YiIiIiIiOifxJ49e+D3+wEAI0eO7HDZESNGYNeuXdi9ezfa2tpgtcZ/348dO3bg4MGDAIArr7yy/f937tyJQ4cOwel0orCwEFlZWSY+xZe65MaFX2exWFBcXNwdqyYiIiIiIiJKml27drW/HjhwYIfL5ufnAzh+37+qqioUFBTEvZ5t27a1vx4+fDjefPNNzJw5E5WVlV9ZbsyYMZg3bx4uvPDCuGOfqFsmCYiIiIiIiIi6WrChLq57AVxzzTVx31jwxEca9unTp8Nl09PT218fOXIkoUmC/fv3t79+++238eSTT8IwDLjdbmRmZqKurg6NjY3YsGEDxo0bh6effhq333573PG/wEkCIiIiIiIiOisE62sxZ86cTpcrKiqKe5Lgi0sNgOOX2HfE4XC0v47FEnvCQ0PDl48ffuKJJ6CqKp566inMmDEDdrsdkUgEL774ImbNmoXW1lb867/+K0aPHo1zzjknofVwkoCIiIiIiIjOChaXG9dcc02ny+Xk5JiK39m9/BKdGDhRJBL5yt/z5s3DrFmz2v/WdR233norUlJScPXVVyMajeLBBx/EK6+8ktB6OElAREREREREXUrtsufsfZUnOwcvL12a3JgnnD1w4q/9JxMIBNpfJ/pEvxMvVcjMzDzloxanTJmCc845B9u3b8eqVasSWgfQhY9AJCIiIiIiIjrTeL3e9tdVVVUdLltbW9v+Ojs7O6H1nHh2w3nnndfhJMMFF1wAAGhsbMThw4cTWg8nCYiIiIiIiIhMGjZsWPvr3bt3d7jsp59+CgCw2+3o3bt3Qus58R4JJ55VcDIZGRntr8PhcELrOesuNxiYmwKXTTNd3m7VkZfpFuWQ4rJg1KDEZo2+LtVlwaj+qaIYCDg6X6YDaU4No4Z1fPfOzqT6HOIYFl1FOGr+2p4Upw1Oa64oB69Fw6j+aaIYbp8V6Q5B3VSBvMGyepXitmHUUNm2SPXaxTFUYdNkwICuxP/M2ZNxajZk2n2iGMP6piE3zWW6vMtuQbrbJsrB65Lv0xSXDU57YqfDncjnskGF+boNAAYgjuHU7IhZZft01JDEOvOvS3Nb5fvDLT/G7DYdeVnmt0V2ihsuPUWUQ1tUfqwPzE9D1FBMl9c1BZGI+f4DANKS0Oal+uzyvlBVZH2h2w6nyy7KweuWfw63XUe612m6vN2qIa+XrG4m4xiT9oW6riahbsrHWGluCy4YmCmKodcaCAs+S4rTCqdN1lZ4XfJ96nZY5HVT0O4CQIbP/Prp9CosLER6ejpqa2vx8ccfd7jsF+8XFRVB1xOr2+effz4cDgcCgUCnZwdUV1e3vz7xZonxOOsmCfbsr8H2ymOmy+eku1Fd2yLKYUxxIcr2mM8BAEosFmyqrO18wY6ccBdOM0oHZKKsPLFTV74RY2iuOIbHqqLZ32a6fFH/LGyrPCrKYZzbibJdR0QxCvtno+JIk+nyOV4bqisPinIYMywXZTtlMUoG5WBTeXXnC3YghkjnC3VEUREzZDFaImFU+5s7X7ADOyqO4uAx8zEKc1NRcbBelMO4EfnifSo9RnIz3YghKspBgSaO0Wa0wR+Vtd9luw6JyhcP7IXNwv0xZnieeJ9K+zKbuzc+azHfXgFAoae3+FjfU9WIst3m+xCPw4Lm1qAoh9IhOeL9UTo8v/v7wsJe2Hag4+toOzOuSN6nF/byiNq9nHQ3qhtl+7Qn9IUep1W0PwGgtChPPk7LyUXZAdmx7j5aI6ubfdPl47Rz5PtU2icn4zvEyAG9ROXp9Pre976Hv/zlL1i3bh2qq6tPeuPD999/H/v27QMATJ06NeF1WCwWjB8/Hq+99ho2b96MYDAIu/2bE7yGYWD9+vUAjl/ScOJZBfHg5QZEREREREREAnfccQcAIBqNnvQRi7FYrP3/bTYbbr755m8sU19fjzvuuAN33HEHnnvuuZOu54ubFTY2NuLRRx896TIvvfQSKisrAQA33XRTwp+FkwRERERERETUpSxqrNv+nQ4XXXQRrrjiCgDACy+8gFmzZuHYseNnj1dUVOC6667D22+/DQD4yU9+ctKbFra0tOCZZ57BM888c8qnElx66aXt63nooYfw0EMP4ciR42c019XV4YknnsDtt98OAMjNzcVPfvKThD8LJwmIiIiIiIiIhF566SUUFxcDAP7nf/4HWVlZUBQFAwYMwCuvvAIAuPbaa/HrX/9avJ7zzz8fAPDggw8iOzsbiqIgPT0dP/nJT9DW1oaMjAy8/vrr6NUr8ctUOElAREREREREJOTz+fDuu+/i0UcfRd++fb/y3nnnnYfnn38ef/3rX6GqJ/8abrfbMWHCBEyYMAEjRozocD3vvfcennjiCQwePPgr72VmZuLOO+/E9u3bUVRUZOpznHU3LiQiIiIiIiI6HWw2G+bMmYM5c+agtrYWTU1NyMzMhNvd+RPyMjMzT3mZwdfpuo57770X9957LxobG1FXVwev19vpoxHjii0QLooPAAAgAElEQVSOQERERERERERfkZ6enpQv7Z3x+Xzw+WSP2DwRJwmIiIiIiIioS6mq0d0p0CkkPEkQjUbx6aefwjAM5ObmwuVynY68iIiIiIiIiKiLxTVJsGvXLixduhQrV67E5s2bEQqF2t9LTU3F5MmTcf/996OwsLDDOJFIBFu3bsX777+PjRs3YtOmTWhtbQUAvP766xg0aJDgoxARERERERGRRKeTBGvWrMGECRNO+X59fT0WLlyIl19+GS+88AKmTp160uU2bdqEsWPHIhgMnvT9tra2OFMmIiIiIiIiotOh00cgfvGlPiUlBdOnT8fixYuxZ88eVFVVYe3atbjpppval7vhhhuwefPmU8b5IpaiKBgyZAiGDBmSrM9BREREREREREKKYRgd3jHivffeQ1lZGaZPn37KxzbMnz8fd999NwBg8uTJWL58+TeW+eyzz/Dqq6+iuLgYI0eOhMvlwty5czFnzhwAwNatW00/xzERew5Vi26SEYsaUDVFlENb2IDF2un8TIciUQUWXZYHOt71nQpHYrAIt0U4EoNFl22LlrZWKII0jJgKp9UqyqEtbEC3yLaFAh2aYHvGYgZUJGGfCutVMvbpA0+vF5XPSnHhSH2rKEZamh1VR5tFMW6cmgdNN79PnIoDg9L6iHIIhw1YhHUzEjGgC+pFIBjBI4veF+WQk+5GdW2LKEaaz4rDwnoxfIJscruvS8e5mTZRDCscsFtl9x2W9mUHj7bgv5Z+IMqhb5YPR+v8ohg/uu5c+DwW0+WNGOCw2EU5JKfdNMTtpmEYor4wHIlB0UQpIBoBbBZZkGg0JusLowZUTbYte0JfaMQARfYxklKvwoYKi0VYN8MR0WeJRGLQhfs0FI7CIrxduxFTklA3hWNFQ0dBTpYoRk8ybc3Jf1zuCs+PL+62df8z6PRwGT16NEaPHt3hMnfddReeeuop7NmzB6tXrz7pMn379m2fSOhOfbKcMBDr1hwUqIgaEVEMTbHAQDRJGZmjQBPnoEJDTBijIdQGQ/Dl2KbaYdVlPYdiaIgYsktm7Jq92+tmMvZHMmIsf6dcVL54UA42l1eLYowZnocNWw+IYtwxIwdtgnrhcziRk+4Q5ZCM/SE91ptaQ1j+zm5RDqXDcrFxx0FRjJJBOdgkrBfZ3xkgKn9OigupqbLBbobdA1U4RwwogKDdrG8O4P/erRRlMG5EPtZt2S+K8disUjgc5jeGAgVu4SRBT+kLxQxF1F4BgFW1AcJ+TIHKvjBJek7dFI6xklInVESMsCiCRbF0e93UFdmPWkTxEs5Rfuncc88FADQ3y355IyIiIiIiIqLuITzx5kuHDh0CAHi93mSFJCIiIiIiojOQRXAJOJ1eSTmToKqqCmVlZQDQ4ZMQiIiIiIiIiKjnSsqZBPfccw/C4ePX+dx3333JCJmwvXv3Ys2aNZ0uN2nypUhN83VBRkRERERERET/XMSTBHPnzsWyZcsAANOmTcPYsWPFSZlRVlaGmTNndr7ctzZwkoCIiIiIiIjoJESTBAsXLmx/hGFpaSkWLFiQlKTMSEtLQ3Fx54+ycDhkdwonIiIiIiIiOlOZniRYvHgxbr/9dgDAyJEj8eqrr8JiMf+sYqmJEydi4sSJnS4XiDR2++NLiIiIiIiIiHoiU5MEK1aswM0334xYLIahQ4di1apVyMjISHZuREREREREdAbSVf5w21Ml/HSDlStXYurUqQiHwxg4cCDWrl3LCQIiIiIiIiKiM0BCZxK8+eabmDJlCkKhEAoLC7F+/XpkZmaertyIiIiIiIiIqAvFfSbBmjVrcNVVVyEUCiE/Px9vvPEGsrKyTmduRERERERERNSF4jqT4K233sIVV1yBQCCA3NxcrF+/Hnl5eac7tzOWAgWqkvCVHl+LARjJSeefXorNKyqvQBXfzFJVdGiiCHQmGtdrJDRBxVATvyKMTrNHLugnKq8rFqiKLAcVOmKIyIKcIZy6A26L+GnOBEBRFFgV2Q2oVaiI8ebQ1AOpUKErHKkRxavTnvXDDz/EpEmTEAgEoKoq5syZg/LycpSXl5+yzNixY2Gz2b7x/xs2bEAwGGz/+8QYGzduxJEjR9r/7tevHwoLC+P+IERERERERPTPQVP5k2dP1ekkwerVqxEIBAAAsVgMs2bN6jTo/v37T3qmwfXXX48DBw6ctMyMGTO+8vfs2bPx2GOPdbouIiIiIiIiIkoOnstKRERERERERADiOJNg9uzZmD17dlJWtn///qTEISIiIiIiIqLk45kERERERERERASAkwRERERERERE9Dk+N4iIiIiIiIi6lM6nG/RYPJOAiIiIiIiIiABwkoCIiIiIiIiIPsdJAiIiIiIiIiICwEkCIiIiIiIiIvrcWXfjwrZoGFFETZePxQwEYmFRDqGIjqY22fxMrkuDTZfd7MOqWkXlDSMG6e1GgrEQokZEFGPzjkZEDfOZ6IqKiKKIctB1HZGY+XoFACUDUmCzyOqFrsoO6ahhwBDvVQNQZJ9j5IBeovLpHoc4htdpE8d456OD0DXz28JqsyAtN0WUg1M3YNVkbZauqDAE7aY/HBFvS5/bLo6R5pXXiw0fHxaV1zUdBmTtTf9cF1J8miiGAkV0rEfVsHhbepxWcYz1W6rhdFhMl1egwJHmEeWgAgjHZO3mkEwnfE7ZPg2E/ZBUrRa/gZ1VflEO/bIcyEyVfQ7VUGAogroZBRrCsv44FNbQGJDt03yfAptFkIcBaJrwODcUxBATxbCpNqjCPj0cDYt+llRiCgxF9jkOHG3BwdqAKMbIQi9sVvMHmRIDoMraf0PVYJVVC6K4nHWTBMeCxxCKBU2XNwwFOxurRTm0hHpjTZWssXvgfB/0SEgUo5cjS1QehoJQTJZDY1sTmsINohg3PLIRTf420+WLCnph2+EWUQ7jRuRh3e4johjlf7gUbYLOXFd0OCx2UQ6GoSAYlQ0S3bobhiGr35/slW3L4kE54hhuh1Uc40dPrkF1rfm6VXxuPgZdXiTKYUKeikDsqChGntOBxnCz6fLhoHyfOobp4hglSagXP/j3/xWVLx6Si82f1ohi/HXuWKQa5ts84PgkcVvMfIzqhph4W3qdNnGM3/x5E7btM789fR47skplx9jwXm588JmsH/vHzJFwCdvNKn8VYob5L6W7PwOmPblTlMPi/zcSbVbpl1I72gRji0hMxepq2f5oa0nHaztlfeG8y2yAar7d1BQNTt0mysGuOdAcbhTF6O8uhPB3FNS3NcAQjG8sqhXBqOwL/vNrjmL+a+WiGJt+Pw5KxPyku6boou0AACnWNLgsXlEMonjwcgMiIiIiIiIiAnAWnklARERERERE3UtTpZe40unCMwmIiIiIiIiICAAnCYiIiIiIiIjoc5wkICIiIiIiIiIAnCQgIiIiIiIios/xxoVERERERETUpXTeuLDHSniSIBqN4tNPP4VhGMjNzYXL5TodeRERERERERFRF4vrcoNdu3bh17/+NS688EK4XC4MGjQIgwcPhtvtRlpaGm677TZUVFSYSiASiWD8+PEoKChAQUEBpk+fbioOEREREREREcl0eibBmjVrMGHChFO+X19fj4ULF+Lll1/GCy+8gKlTpyaUwKOPPoq33nqr/e+hQ4cmVJ6IiIiIiIiIkqPTMwmCwSAAICUlBdOnT8fixYuxZ88eVFVVYe3atbjpppval7vhhhuwefPmuFe+Y8cOPPzww7BardB13h6BiIiIiIiIqDsphmF0eMeI9957D2VlZZg+fTrcbvdJl5k/fz7uvvtuAMDkyZOxfPnyTlcci8VQWlqKDz74AA8//DDmzZuHpqYmXH755XjttddMfJT4/HLhGzhY02y6vM2qoTkQEuXg9bhwsE4Wo3+WGy2tQVEMzVBE5dN9TtQ0tIpipHotONroF8U4eCSISDRmurzHaUVzICLKIc3nRF1TQBSjqCAVgZD5PBw2HaE289sBADLSXDja3CaKkemyola4Lfa0yiYNUzQDDbX1ohhpdg11TbK6abNoCIWjpst7XDYodosoh5w0OxqahMepx4rGFvNtlq7r0PLyRTmcm2XHBXk2UYyFf9+F8gOyeiHlc9nR6Je1/4P7+uBvkx2nDquOQJv59sama9i733xfCgBpPhfqBPUKADw2XdQna5oK1SarV6leO+oaZW3eOQUZ8AvafwAwQi0IC/pCm8WC8qoWUQ6D87wICeumx2FFc8B8DJtVQ50/LMvB5cShGtk+LehlE43TdE1BLCYbp2X47DgmHGNlp6eirkl2nCpGBJGI+b4wxWNDfbMsBygaKqtlbdbQvl4EQ+brlt2mIyg8zr89sh9uvrREFKMnmV32Xrete+6o0d227n8GnY7ER48ejdGjO96Id911F5566ins2bMHq1evjmvFTz31FD744AMUFRVh9uzZmDdvXnwZC722oRLbK4+ZLp+T7kZ1rawTHTM8Dxu2HhDFKBnaB5v2HBbFQETWUJUOy8XGHQeFMfpg444qUQyP04pmv/kBRVH/LGyrPCrKYdyIfGzYsl8U43BdCyoOmf8Ck5PmRnWdsG6O7I8N5UdEMUr6pmJTuaxuKv0KROWLs+zYtLNaFGPMwAzxcSptLwpzU1FxUPaldtyIfKwT1k3pMZLic2LQ5DxRDhOyXOibK5swOVjTLN6nUsWDcrC5XFY3Ycj7kB5RN88rwIYdh0Qxivr4sO1T83VT2n8AyekLQxEDG4Vtryca7Pa+UI3K2xtp3eop47SGQTnYJDjWe0rdLB3RDxt3ydosj250e91MyjjtWPfXTYfFgZsvFYXoUTQ+3aDHiuvGhfE499xzAQDNzZ3P0lVUVODnP/85VFXFs88+y0sNiIiIiIiIiHqApE0SHDp0/NcAr9fb6bK33XYbgsEgZs2ahVGjRiUrBSIiIiIiIiISSMokQVVVFcrKygCgwychAMAf//hHvPPOO+jbty8eeeSRZKyeiIiIiIiIiJIgKef533PPPQiHj9/I47777jvlcgcOHMDPfvYzAMCCBQvgcrmSsXoAwN69e7FmzZpOl4uEZDfwIiIiIiIiIjpTiScJ5s6di2XLlgEApk2bhrFjx55y2RkzZqClpQU33ngjLr00uXfdKCsrw8yZMztdbuiUXwCwJnXdRERERERERGcC0STBwoULMWfOHABAaWkpFixYcMplFy1ahP/7v/9DRkYGfvvb30pWe1JpaWkoLi7udLmgLrs7NhEREREREdGZyvQkweLFi3H77bcDAEaOHIlXX30VFsvJv4AfOXIE9957LwDgd7/7HdLT082u9pQmTpyIiRMndrpcye1PA7XmH4FIREREREREdKYyNUmwYsUK3HzzzYjFYhg6dChWrVqFjIyMUy5/1113ob6+Hpdddhmuv/5608kSERERERHRPz9djXV3CnQKCT/dYOXKlZg6dSrC4TAGDhyItWvXdjhBAKD9yQdr165FamrqSf81NTUBAN544432//v1r39t4iMRERERERERkRkJnUnw5ptvYsqUKQiFQigsLMT69euRmZkZd3m/3w+/39/hMpFIBA0NDQCA1lY+iYCIiIiIiIioq8Q9SbBmzRpcddVVCIVCyM/PxxtvvIGsrKy4yr788ssIBoMdLvP9738ffr8fo0aNwm9+8xsAQL9+/eJNj4iIiIiIiIiE4pokeOutt3DFFVcgEAggNzcX69evR15eXtwrGTNmTOeJ6MdTycjIwIQJE+KOnSin3QKfy2a+vE1WHgB0TRXHsKiAz6aJYkBY3qJr8s+hy7eFy2GFqiimy1ut8s+hJ+FzOKy6rG7adXGd0KNh+GIhUQyLEYVP+BCRq64dICpvDQCHYwlfTfUVNsUPn88liuEStjfSOgEkp27ahMdIhteKp6+0i3JIsVrh0p2iGA6HXbxPEYmIiluT0G4mow8R102bRbwtrRlpSD/HLYphC9YJ202LqP8AktQXhkPittfltJ0hfeEZMk6zyLZnj6mbKuBzyJ6Y7rKorJtITt206MKxP1GcOj3qP/zwQ0yaNAmBQACqqmLOnDkoLy9HeXn5KcuMHTsWNpvsIDhd/MEwGlvNd8ROu0VUHgAi0Zg4RjgcFceQCkfkOYQj8m0RMww0+9tMl29rk3+OSBI+R0ZbRFY3bXoS6mYS9mkS6mYgKruRjRZT0BSUfZkLWw3x53DqiiiGtE4AyambIeEx4nToMCDbp6oCAIYoRjAJ21M6SdCWhHYzGX2ItC/LCCWhbsYMNAqP01BYloe0/wDYF54oOX0hx2lAD6qbSdgWMavKuonk1M1wJCoq39Noiqxfp9On00mC1atXIxAIAABisRhmzZrVadD9+/cndKYBEREREREREXU/2fm4RERERERERHTG6HSSYPbs2TAMI6F/Zs4iaGxshGEYeO2110x9ECIiIiIiIiKS4ZkERERERERERASAkwRERERERERE9DnZM02IiIiIiIiIEqTz6QY9Fs8kICIiIiIiIiIAnCQgIiIiIiIios9xkoCIiIiIiIiIAHCSgIiIiIiIiIg+d9bduLBfTip0XTNd3mWzICvVJcrB67Rh5MBsUYy0VBdGDskVxUA0Kiru8zgwckAvUYwUt00cw2qzoi0aM10+zW3DSE0R5eD2OjGyqK8oRorTBrfHabq8y6Yjy+cQ5eB1yfdHmldeL76Xlyoqb4RiSB+XJ4phDTUgP1t2Q50D+/yi9sLrssHtsIpy8Dit4v2R7nVgpGY+hs9tQ4pVtk+tqhWqIuuyJozKQZ/eFlGMDz+pFZVPT0K76XXKj1OXXdaXZac7cXGprB/Ly03FuUOyRDEqt0ahwfxxatU1tEWEfaHb3jP6QuFnSUtC3XQnob1JcdlF7V5yxmnyzyHtC3tM3fQ4MXKwbLxpjYZZN5GcupnqkY3zehpN5Y0Le6qzbpJg39FmbN9XY7p8TpoL1UcbRTm4XXZ8Umk+BwAocbnwycFmUQwE/KLiDpsFn+w9IosxTB7Dk5WO5kDYdPmiPiq2CXPw9u6FTxoDohiFRhQVh1tNl8/x2VG9X1av3A6beH+UDMoRx5hc4BGVB1REhrhFEfY2KtjfGhTF+NmcQzh4zPxxWpibioqD9aIcvE75Pi3qn4VtlUdNl8/NdCPF5hXloECDAdmA+XvfTsPosPlJYgB49v/bISpfnITjw+2wimPkpLtRXdtiunxWRh9Mm9pPlEO+qw9sumwSbMrbW0TbwuO0otnfJsrBMUzvGX2h8LNIj3MgOe2NtN2T1m0gOceYtC/sMXUzPQ2fCMYmAOAJNLFuIjl1c9RQ4Q+ERHHi5QZEREREREREBICTBERERERERET0OU4SEBEREREREREAThIQERERERER0ec4SUBEREREREREADhJQERERERERESfO+segUhERERERETdS1eM7k6BTiHhSYJoNIpPP/0UhmEgNzcXLpfrdORFRERERERERF0srkmCXbt2YenSpVi5ciU2b96MUCjU/l5qaiomT56M+++/H4WFhaeMUVBQkFBil1xyCZ599tmEyhARERERERGReZ1OEqxZswYTJkw45fv19fVYuHAhXn75ZbzwwguYOnXqSZerrKxMKLHS0tKEliciIiIiIiIimU4nCYLBIAAgJSUFP/jBD/Dd734XJSUlcDgcqKiowJ/+9Ce8+OKLCAaDuOGGG1BYWIji4uJvxFmwYEGnySxZsgSrVq0CANxwww2JfhYiIiIiIiIiElAMw+jwjhHvvfceysrKMH36dLjd7pMuM3/+fNx9990AgMmTJ2P58uWmkhk8eDDKy8uRnZ2NqqoqaJpmKk5Hbnx4GaprWkyXt1k0hMIRUQ6pqR7Uh2Q36vB5HWgMyPJAKCgqnuLU0dDQKoqR6rajvkWWh6briMbMb0+PQ0dzc0CUQ1pGKuqCsv3hdFjhD5mPYdMUhJqaRTmkumyob/KLYvhcdjS2yvbpq49PFpU3DCCGmChGVctR1IYaRTGe+J8KNLa0mS7vtFngD4VFOaR5HKgT1m+Pw4rmgPnP4XVa8fJDk0Q5AAoAWbt5LFiLYFRWN//1Pz4Ulfc5rWgUtnlpHjvqmmUxjvdlUdPlC/I8uO3GPFEOea5eSLV5RTF++sf3UV7VYLq8pimIBkOdL9iBFLcNDU2yYyzV60B9iywPTQGiUfPtnsdlR7NwWJHmtKCuUTYucNqt8AfNtzc2i4ZQRNZWpLqs3d4XaqoiGtsAQIrHgYZWWb1Kzc5EfZssD62lSTZOs+toFn6ONJcVdcJ9Ku2TbRYNoahsW140si9+ecu3RTF6kse3vt1t6/7p8Iu7bd3/DDo9k2D06NEYPXp0h8vcddddeOqpp7Bnzx6sXr3aVCIbNmxAeXk5AOCWW245LRMEALBz3zFsrzxmunxOuhvVteYnGQBgTMkAbKioE8UoGZKDTZW1ohjwyxrL0gGZ2Lj9oCzG0Fxs3CmL4XFa0ew3P6Ao6puBbRWHRTmM+5YdG3YdEcUozM9AxeEm0+VzfHZU75d9jjHDcrFh6wFRjJJBOdhUXi2KETOEI1WoiBqyL9fBWAj1bea/fADAJ3uP4uAx8xM3hbmpqDhYL8ph3Ih88T4t6p+FbZVHTZfPzXQjBvNfSAFAgQZDGCMca0MgKvsCs0HY5hUP7IXNwjZvzPA88T6V9mVWR28cDcpuXJzn6iXep7sONuK93ebbXo/dguZ62WRg6ZAcbNwm2x+lw/OxcechUQyPVZX1hQNysO2I7PgYNyhTfIwU9k5FxSHz7V5OmhvVDbJJmzFDs7u9L5SObQCgtCgPG3fJ+uNSXyo2Vsr6IY+/STTRXJSfhm2fmu+DAGDcsBzxPpX2yTnpblQ3yiZ4h/XLEpXvaTQ+3aDHUpMV6NxzzwUANDebGxD/6U9/an89ffr0pORERERERERERPFL2iTBoUPHZ8C93sRPHWxpacHSpUsBAGPGjMHAgQOTlRYRERERERERxSkpkwRVVVUoKysDgA6fhHAqS5YsQWvr8VPcZsyYkYyUiIiIiIiIiChBnd6TIB733HMPwuHj1//ed999CZf/4lIDt9t9ykcodmb//v14//33O10u2ia7To2IiIiIiIjoTCWeJJg7dy6WLVsGAJg2bRrGjh2bUPndu3fjvffeAwBcd911cDqdpvJYv359XI9NHDrlFwCsptZBREREREREcroqexIVnT6iSYKFCxdizpw5AIDS0lIsWLAg4Rgn3rDw9ttvN51LWloaiouLO10uqFtMr4OIiIiIiIjoTGZ6kmDx4sXtX+pHjhyJV199FRZLYl/Ao9EoXnjhBQDAkCFDUFpaajYdTJw4ERMnTux0uZLbnwZqzT8CkYiIiIiIiOhMZerGhStWrMDNN9+MWCyGoUOHYtWqVcjIyEg4zmuvvYajR48/91RyFgERERERERERySU8SbBy5UpMnToV4XAYAwcOxNq1a01NEADAM888AwDQdR033XSTqRhERERERERElBwJXW7w5ptvYsqUKQiFQigsLMT69euRmZlpasVHjhzBypUrAQCTJk1CVlaWqThERERERERElBxxn0mwZs0aXHXVVQiFQsjPz8cbb7wh+mL/wgsvIBqNAuClBkREREREREQ9QVxnErz11lu44oorEAgEkJubi/Xr1yMvL0+04i+eapCdnY3LLrtMFCsR8x8uRiDqN10+ErNi3RFTt3JoZ2lzw3EgKIrx0MVuOKwhUYzert6i8rGoAigRUYyaQD380SGiGFffUwZVUUyXt9ot8GWminLQdQ0+uyaKsfyXF8BqM0yX16DDbXGIcojFVMSUsCiGVbFDVc1/DgAYcM1CUfmi/pnYVim7QWnJ4Bxs2n1IFCPD54TPZTNdPr1XKoZeM06Uw2UFMdxsyxXFqPVn4GiwzXyAcAwFP3hWlMN5A7Px0Z7DohjH68VRUQyfTXacW1UVPp9LFOO+W4fiyT7niGJsrQsiEDW/T1uOGZj5o82iHL41pAYf7KoWxSjsmwWf4DlNbpuGwkmjRTn0zXQjNLC/KMYfrx2M3BTZU6n3t1Qhhqjp8rs/DeOup7aKcphxbQHm/b8CUQyLYkPUMN8PxQwVB/z1ohxqWrKQd+hcUYx/LTJg0c2PN1WoorENAFgUO0KG+RwAINfRFxZNNu6t9h8W1U2b6oRNkz2d7I8rj2CLX3aMLX2oGFar+Uf2KVBhQPbIP5fmFZUnilenR8uHH36ISZMmIRAIQFVVzJkzB+Xl5SgvLz9lmbFjx8JmO/XAeMOGDe3lb7nlFmiabNCVCEOJISpoqAwlhlBM9gVIU4DWsKyR0DSIGxph3wNdUxGRbQpoKhCLmt8fANDsD6HJb36w2xaOobFV8AUIQCRqiGMcPwzMb1BFASDcp5qmIGbIdqquqTAExxgANLTIJtH8oYg4RrAtgoYW2UScw2ZBY6v5GMFIBK0R4XGuAmFDNpkXVYBgzPw+VWIx8f4IhMJJiCHfp1Jt0aioTgCAriuiATcARBFD2DAfI2JAvC2DbVHxPg2FhdtTVWBvk23LiAG0CGNYdFXcJxuIisYFMRhoFPSlAKCrENdNVTFEdRMKEBG2eYaqwB+VjtNkx6miQDjKOz6uiEVk+0PXFECRjQukdVNTIc4hHDPQGJD9CCIde6tQEBPuVU0TNhQ9jEW4X+n06XSSYPXq1QgEAgCAWCyGWbNmdRp0//79HZ5p8OyzX/6idNttt8WTJxERERERERGdZrLzh0xobW3FkiVLAABjxozBoEGDujoFIiIiIiIiIjqJTicJZs+eDcMwEvrX0VkELpcLLS0tMAwD69evT+qHISIiIiIiIiLzuvxMAiIiIiIiIiLqmThJQEREREREREQA4nwEIhEREREREVGyqGfB0w1qa2vR1NSEzMxMuN3u7k4nbjyTgIiIiIiIiCgJQqEQHnvsMfTr1w8ZGRkoKCiAx+NBcXExFi1adNrWe+DAAc1fiosAACAASURBVAwePBgFBQUoKCjA008/bToWzyQgIiIiIiIiEvL7/Zg4cSLWrVsHAFAUBR6PB01NTfjoo48wbdo0vPPOO3j22WeTvu7p06ejvLy8/e+GhgbTsXgmAREREREREZHQrbfe2j5BMH36dBw5cgSNjY3Ys2cPJk2aBAB47rnn8OijjyZ1vYsWLcKbb74Jl8uVlHicJCAiIiIiIiISeOedd7BkyRIAwA033IA//elPyMzMBAAMGDAA//u//4tvf/vbAICHHnoItbW1SVlvdXU1fvzjHwNA0iYfzrrLDTLt6UiNeUyXj8Q0XNhLEeUQbdPh1TRRDKfmgNNqE8XQFNnuP74VrKIYLosbuirLY+yYIQi0RUyXz/LZMWhYmiiHPqlO5PaRfQ6LYoVDN18vVEWDrsj2hwJAUWT1SlEUKMKmZeSAXqLy6R6HOIbXaRPHcPk8yMoxXzf79k7F+EKfKIf+nhhsVll70+JwocDjNF0+HIpivXBb+tx28f5I88rrBYRtd2aGD6PTZPsUcCDVZhdFGOQNIxyLmS5fEw6Jt6XHaRXH6FvYC+l9MkyXd1g1nH+e+fIAkOa0Yli2RRRDVxSowj45xZYKwzB/E7DctBCuntBXlIPb6US6sG5q0OCG+boZA2BAlkOaxYlL80Qh4LWosGmSPBSoimy8qSm6MIfjMVRF9puitG7qig5dkx1jRX09+MG4bFEMi2KH02J+WyhQYEB2oz6rKhvn9TQW1fyx3hM988wzAI6PhX/zm998431VVfHQQw/h4osvRjAYxMKFC/HTn/5UvN4777wTDQ0NmD59Oi655BJxPOAsnCTo7cxADFHzAQwFfTzmB/0AEI5GMbJXSBQj0+EGBJ0oACjChkpRNGiKYFsC8Fg9cBkOUQx9SD60iPlt0SdTQ6r3qCiHwT436kKybZHmckOVjQfEVGji04tUKLJjDMAne4+IyhcPyhHHcDus4hg5I9JR3Wy+bubZHLhuiPkv5wCgqxZEDfMTowCgKxbRPm1qbcPNwm3pGKaL90dJEuoFnLLT+Ly9s3DULtunvTMykGqTdd8ZNlU0WN3V3CDell6nTRzjnEmjUOc33yfbHCpuvkC2Ty2qFcGorPHOsOuQ9ukpVh8g2KdtGUEUj5PVzYG5GciwSyerVRiSbWEoSLHJxmnRmIECX4soRpotBdJ9KqVCE/fHmmKBIYyRapNNjIrrBIB+/aw43yOb5M1ye7p9nCb9MYhOr5UrVwIAxowZg/z8/JMuc9FFF6FPnz6oqqrCX//6V/EkwZIlS/C3v/0N2dnZePzxx1FVVSWK9wVebkBERERERERk0r59+9ovHzjvvPM6XPaL93fs2IFo1PwkXG1tLe6++24AwPz585GSkmI61tdxkoCIiIiIiIjIpO3bt7e/HjJkSIfLDhgwAMDxJyFUV1ebXuesWbNw7NgxXHXVVbj66qtNxzmZs+5yAyIiIiIiIjo7BVsDWLVqVafLnXvuucjIiO++NSc+bjAvr+ObmqSnp7e/PnToEPr06RPXOk60YsUKvPzyy/B6vfjDH/6QcPnOcJKAiIiIiIiIzgo1VYdx5/f/rdPlVqxY0f7Yws40Nze3v05NTe1wWYfjy/uxhcPhuOKfqKmpCTNnzgQAPP7448jJyUk4Rmc4SUBERERERERdqrtuBKnpalzX71ss5p6qoXTyZBJdl30Fv/fee3Ho0CGMGzcOM2bMEMU6FU4SEBERERER0Vkhd0Bf1NfXJzWm0/nl02FOPKvgZAKBQPtrVU3sFoFr1qzBc889B5vNhmeffTaxJBPAGxcSERERERERmeR2u9tfd3Yzwi+eggAAmZmZca8jGAxi+vTpAIBf/epXGDhwYIJZxi/hSYJIJIKDBw9i+/btqKysRCgUMr3y2tpaVFZWoqVF9ixaIiIiIiIiou4waNCg9tfl5eUdLnvgwAEAx88i6Owmhyc6duwY9u3bBwB49NFHkZqa+o1/F154Yfvyv/rVr9r//80330zk48Q3SbBixQrceOONGDRoECwWC/r06YOioiIUFBTA7XZj3LhxWLJkSVwrDIVCeOyxx9CvXz9kZGSgoKAAHo8HxcXFWLRoUULJExEREREREXWnIUOGtF9ysHXr1g6X3bZtW3sZm81man1NTU1oaGj4xr8TL3UIBoPt/5/oDRLjuifBY489hg0bNpz0vUgkgvXr12P9+vV4+eWXsWTJklPe5MHv92PixIlYt24dgOM3dfB4PGhqasJHH32EadOm4Z133jmt11cQERERERERJYuu67j44ovxj3/8/+zde3hU1bk/8O9c99wnk0xuJCFAgHAJCIKF4gEECl56igh6akHlWMvTamkV/VV7UxA9Fa1VWx61l1PpRbzQQuFIbS2ooEGgh+RYCJGAkUsSEnIh90zm/vsjMBITMpP9biTi9/M8eZ6B2eudtfdae609a/Ze63Xs2LEDbW1t3R5BOKu8vDw2SJDoyglnpaWlxV268ejRo7HJDL/+9a9j8eLFALqWc+yPhAYJHA4HFixYgKlTp2Ly5MkYOnQo3G43jh8/jvfeew9PPPEEKioqsHnzZtx7771Yu3Ztr3Fuv/322ADBHXfcgcceewypqan48MMPcc899+Cvf/0rXnjhBQwfPhw/+MEP+rUjRERERERERBfD0qVL8frrr6O9vR1PP/00HnzwwR7bPPLII7HXt99+e4/329vb8dJLLwEAhg8fjlmzZsXeUxQFc+bM6TMPZwcggK5HIOJtfz66aDQajbdRJBLpc+bF+vp6TJgwAVVVVbBYLKitrYXT6ey2zTvvvIOZM2cCAJYsWYIXX3yxx2fMmjUL77zzDiwWCyorK5GSkqJmn/r0yO/fRlV93zNO9sVqNsIX6P96lufyuq041Sibh8Gb7EJjW0AUQxeJW/R958FlQX1TuyyG24q6Zl/8DftQ64sgFA6rTp/kUBAIyPKQ5rGgoalDFCMzJQXtner3w2I2oDOgPj0ApHpsqGuV1atkiwGnW2TH4gvTbPE36kNLu4KSWnXL1pzlr6pDVeVpUQxFMcEfVF8mHqcCr90gykOqx466Rtl5muSyoalN/fwzNosRN39pmCgPiOphUbkU0Vm/3HIQZRXC2YwjEVFyj9uGNkGdAIDRWW74fOrLAwCsVgU+QT5MBj1KjzbE37APOcPSEbTJznVdYzOamtW3NyajDqlW2RpcKW4r6ptkfUh6egoa2mXXFsaQH8GQ+vrpsJpQ2dgiykOu14XmFlnddNnMaOlQ3w9pc51mQ22T8DrNbcfplk7V6Y0GHUJh4XWa24Z6wfkBAKmpbtQLrwuMQT9CYfV1021X0Nwuq1d2hwmVp9Vf/wNAttuJdp/6umUxG9EZCInyMP2yXCz+0mWiGAPJ74+8cdE+e+mIqzWPGYlEMHHiROzfvx8GgwEvvPACbrvttth7jz/+OH74wx8CABYvXoz169f3iFFRUYHBgwcDAL72ta/FBgwSVVJSgnHjxgHoehrggQceULUvCd1JEG9pBq/XiyVLluCJJ55AZ2cnysrKMHny5G7b/OY3vwHQ9YjBT37yk14/Y/Xq1bjqqqvQ2dmJdevW4f/9v/+X6H4kbPO7h3HwaJ3q9JkpDlQ3yDqOK8flYNeBClGMSWMHo+jIKVEMRGQXqlNHZWJPiWw/po7Jxp7SSlEMp82MVsEFRcHQNJQcrRXlYfr4wXh3/wlRjLy8dpRXN6tOn+mxo1r4ZfDKcYOxq0xWryZlO1F0uEYUY+p140TpzWYHPqyUXVw52gPYVXpSFCPTaRK1F3lZHpRXyb7UalE3C4ZnouSY+nZzUIod9y8dI8qDzWiHsZ/LBH1S1el2cZkiILtQvXxkJooP9z3rcTxBDfqQzIxkVJ9W317kDUpC+ckmUR4WjMjGoVbZlznzkZPYLzie0v4DAKaOycKe0ipZjCvyseeI+nMMAJyRTllfmOtFSbms7dakLxS2ewPmOm1kJoouhbo5aQT2HJZdFzjDwro5UK7TBkDdNBqMl9QggUkvG3gfaPR6PTZu3Ihp06ahrq4OS5cuxerVq+F2u1FTU4OTJ7uuQcaPH4/nn3/+Iue2b5otgejxeGKvI7380vK3v/0NAHDllVfGRkc+aebMmcjOzgYAvPrqq1pljYiIiIiIiOiCGj58OPbs2YP58+dDp9OhvLwcxcXFOHnyJCwWC5YtW4adO3fC5XJd7Kz2KaE7CRJxdmLDlJSUHhMjHDt2LLYe5MSJE/uMM3HiRFRWVqK0tBThcBgGg+xWWyIiIiIiIqJPw7Bhw7BlyxbU19ejuLgYLS0tSEtLwxVXXAGr1dpn2pycHCQwG8B5FRQUiNKfJR4k8Pv9WLlyJbZu3Qqgaz1Gs9ncbZuDBw/GXo8aNarPeMOHDwfQtRJCdXV17M4CIiIiIiIios8Cr9eLefPmXexsqNLvQYLrr78e7e1dzzEGAgHs27cPPp8Pdrsdq1atwvLly3ukaWr6+LnFnJycPuOfO1nhyZMnEx4kOHHiBPbu3Rt3u7BwgjoiIiIiIiKiS1W/Bwl27NiBlpbus9/a7Xbcf//9vQ4QAEBr68eziZ47d0Fvzr0FIxhMfEKjwsJCLFmyJO52o294EIA57nZERERERER0Yeh18tvi6cLo9yDB6tWr4ff70draipqaGuzcuRNHjhzBypUrsW7dOmzduhVjx449b3qdru+lhoxGdU9AOBwODB06NO52Oj3nOCAiIiIiIiLqTb+/kd999909/m/jxo249dZbcezYMVx33XUoLS2F3W6PvW87Zx3kc+8q6I3P9/HjAPGWXjzX/PnzMX/+/LjbTfrGr4BG2TJDRERERERERJciTZZAXLRoEZ555hkAXXMDrF+/vtv7Docj9rq6uu81Y8+uggAAqampWmSPiIiIiIiIiBKgySABgG7zAezevbvbeyNHjoy9Pnz4cJ9xKioqujKm18ed5JCIiIiIiIiItKPZIMG5jxf4/f5u740aNSr2yMGBAwf6jFNSUhJLoyiKVtkjIiIiIiIiojg0GyQoLS2NvU5OTu72ntFoxFVXXQWga3WEtra2XmOUl5fHBgm+/OUva5U1IiIiIiIiGkCMOt1F+6O+xZ240O/3x/1FPxKJYMWKFbF/z549u8c2S5cuxeuvv4729nY8/fTTePDBB3ts88gjj8Re33777fGyporNYoLbrv4OBZsiSw8ARoNeHMOECNwmUQgAspUeTHqdfD+M8mNht5qhF5zsZrNBXqYa7Ic1EoJbF1Kd3hYNitIDgDHkF8cwRcPiunlN1vlXSElEIBLCFwadEsX47bZUJJ0WhYC9oUpUL6xm44Com4oBcCvq2wuH2QCHyRF/wz7odQYAEVEM19AcpIds8TfsQ2dJafyN+mA2atDeaNCH2M0GuK3qVhMCALvDipwvyB4J/MoVbvwgN/Gljntz/xrZOWKzmET9BwCYNChTU1jeftvNBujD6s9Ts1Hep2vSF5ovkes0k6xeDKi6qQ+LYtgV5dK4ThsAddNk5Cpt9OmIe4WwadMmPPfcc1i2bBnmzJmDrKys2HuBQAB79+7F6tWrsX37dgDApEmTsGDBgh5xbrzxRowfPx779+/Hww8/jNzcXNx2220AugYZHn/8cfz+978HACxevBijR4/WZAc/qaMziOZ2f/wNz8NmMYnSA0AoHBHHCAbD4hhSwZA8D8GQ/FhEolG0dgRUpw8E5PsR0mA/vIEBUDc12A8tyjQK2bq5OgARyC5qguEomn2yi3arsL3xBkIDokz9wnPEYTMBGpSpdDVlfyiClk5ZmfqExzKgQbupRR9is8vqZmcgLD6Wen1UfJ52Cs8Raf8BDKC+0Mi+ELh0rtMGTN3U4FhEzHrWTWhTN4MhWZtJlKiEfkYoLCxEYWEhAMBqtcbuLGhqauq23ahRo7Bly5Zely7U6/XYuHEjpk2bhrq6OixduhSrV6+G2+1GTU0NTp48CQAYP348nn/+edFOEREREREREVH/xZ2TYPz48Vi4cCE8Hg8AwOfzoampqdsAQXZ2Nh566CEUFRV1u9Pgk4YPH449e/Zg/vz50Ol0KC8vR3FxMU6ePAmLxYJly5Zh586dcLlcGuwaEREREREREfVH3DsJxo4di40bNwIAjh8/jtLSUrS3t8NgMMDr9SIjIwMjRoxI+AOHDRuGLVu2oL6+HsXFxWhpaUFaWhquuOIKWK1W9XtCRERERERERCL9mrUoNzcXubm5mnyw1+vFvHnzNIlFRERERERERHKaLYFIRERERERERJ9t6tc/IiIiIiIiIlJBuswnXTi8k4CIiIiIiIiIAHCQgIiIiIiIiIjO4CABEREREREREQHgIAERERERERERnfG5m7gwy+tCKBRRnd5hM8NlU0R5sFuNyM9JEcVw2c3iGFIOqzwPDqtJHEMxGeAPhlWn97gs4jzYLPIyTXZbYdSrH7fTpG5aDMjP8ohiaFE39TCI0gNRmPUWUYQURxD5GQ5RDLveBZfVrDp9sktWJwDAZpGfY9JzJMWlQCcck45GdYBOFiPDpWBEmqxM/eK2WxGXh13RoO11WOGymVSn97oUOLx2UR4CIR2MOlmbNchrFx0LxaiHX3BNAGjUF1qM4rZX0UXYF+LSuU4bOHXThPzsZFEMRQ/WTWhTN112WfqBxijs1+nC+dwNElTVt6CsokF1+swUB6ob2kR58CbZRHkAuhp+aQwpj9MizoPHaRXHcNrMaO0IqE5vMhrEeUjz2MUx8iIelFc1qk6vWd08WiOK4TBlio9FIKq+PAEgGA2jOSA7FnWtBpTVyGJknG5BdX2r6vR5WbI6AWhTN6XnSFaqA1HILnb1Or04Rk2LH0dqZWXqEx5LuwZttxZ9iLS9iBiMqAy2iPIQhgP1fll5VNW1i46FtP8ANOwLhW0v+8Iul8p12oCpm0l2lFWeFsVwmvWsm9Cmbs5o94vSEyWKwzdEREREREREBICDBERERERERER0BgcJiIiIiIiIiAgABwmIiIiIiIiI6IzP3cSFREREREREdHHpdbqLnQU6D95JQEREREREREQAOEhARERERERERGf0+3GDUCiEU6dOoampCTabDYMGDYKiKP3+4FOnTqGurg52ux1erxdOp7PfMYiIiIiIiIhIOwndSbB161bccsstGDlyJEwmE7Kzs1FQUIBhw4bB4XBg+vTp2LBhQ58x9u7di29961u47LLLYDKZkJGRgXHjxmHYsGFwu90YO3YsnnrqKXR2dmqyY0RERERERETUPwndSbBmzRrs2rWr1/dCoRAKCwtRWFiIl19+GRs2bIDJZOqx3e9+9zv86le/6jVGNBpFaWkp7rvvPvzhD3/A3//+d2RkZPRjN4iIiIiIiOizwqDnxIUDVUJ3EjgcDixYsABr1qzB9u3bUV5ejvr6ehQVFWHt2rXIyckBAGzevBn33ntvrzEMBgNmzZqFH//4x3jttdfwwQcfoLGxEaWlpfjDH/6ACRMmAAD+9a9/4aabbtJo94iIiIiIiIgoUbpoNBqNt1EkEoFef/7xhPr6ekyYMAFVVVWwWCyora3tMcdAOByGwWA4b4xgMIiZM2di9+7dAIA9e/ZgypQpie5Hwm77yRZUN7arTq8YDfCHwqI8JNkVNLX7RTFcDitafEFRDEQjouRuqwnNbT5hDDOa22SPmAy+fASigiVUdMEQThytE+VhSK4XEUvPO2j6o/FYLVrbA6rTKwY9/L4OUR6SbAqaWmVl6rKZ0dKhfj8A4C9PfEWUPhyNIBSRnR8VDWG0+mTnyM83vI9mwbGwGnTwtbSJ8uBxWtDYKjvHHA4r2jrVH0+nzYT1D14tyoMO8l8bPqhuR0cwJIqx6nf/K0rvMunQcrpFFCPJYUGTsN1ULIqoLxuS6cZ/LrhMlAev04AUh6xcH/xdCT6sblWdXq8DIh3CfsxmQnOLMIbdguZ2WZka9DqEI3Ev6c7LbregPSKbzzrJrENTs/prLACwWozwdao/TxWTAf6g8DpNg3NM2hfqDTpEwurLEwDcDgXNbbLrTbc3Cc0BWV9o6PTJ6qbZiPYOWXloUaYDoW7OmJCLB5fOFMUYSP5Wuf2iffa12V+6aJ/9WZDQ4wZ9DRAAgNfrxZIlS/DEE0+gs7MTZWVlmDx5crdt+hogAACTyYTvfOc7sUGC0tLSCzJIcLDiNA4eq1edPjPZjurTsg7wyoIs7CqpEsWYNCYbReWyL7YIyxqqqSPTsKekUhYjPwN7DspiXHXFGHSE1HdgqXoj3v2wQZSHwQWD8ZGwE60/1YYjVU2q02cmWVBdWSvKw5VjsrBr/wlRjEkjM1F0uFoUQ3r3mUFnhClOuxXPiHQ9wlHZQMP7FU2obFDfXuR57Sgvk5XH9PGD8a6wTAtGZqFE0G5mpdgRhay9AQziGPkZVkQgGySQthWXZzlRLCyPK8flYNeBClGMzIxkUV/mdppxWY5VlAeDziQu00OnOrBbUCZOxYDWGvV1GzjTjx2QlenUMdnYUyrrC502M1oFX0oLRgxCSZ3sS9T0YUni9iYvy4PyqkbV6TNTHKhukA2uanGOSftCaXkCwNQxWdhTKrvenPpFJ/Z8JGv3nP52Wd0cnIKSD0+K8qBFXzgQ6uaoXK8oPVGiNFsC0ePxxF5HIuq+LJ19bAHouvOAiIiIiIiIiD49mg0SnJ3YMCUlJTa/QH/t2LEj9vqLX/yiJvkiIiIiIiIiosSIBwn8fj++//3vY+vWrQCAVatWwWw29ytGNBrFSy+9hJ/85CcAgJtuugljx46VZo2IiIiIiIiI+iGhOQnOdf3116O9ves5xkAggH379sHn88Fut2PVqlVYvnx53Bj33HMPSkpKAHQ9mnDgwAHU19fDYDDgrrvuwpNPPtnfbOHEiRPYu3dv3O3CftnEbkRERERERESXqn4PEuzYsQMtLd1nZrbb7bj//vsTGiAAgH379sUeTzhLr9fjP//zP7Fy5UpYrf2fDKmwsBBLliyJu93om1YDsPQ7PhEREREREWnDoMHKRXRh9HuQYPXq1fD7/WhtbUVNTQ127tyJI0eOYOXKlVi3bh22bt0a91GBu+66C/Pnz4ff70dtbS327t2L//3f/8Vvf/tbbNiwARs2bMA111zTr3w5HA4MHTo07na6OKssEBEREREREX1e9XuQ4O677+7xfxs3bsStt96KY8eO4brrrkNpaSnsdvt5YyxevLjH/+3duxeLFy/GRx99hIULF+LAgQPIy8tLOF/z58/H/Pnz42436c51QJNsuSMiIiIiIiKiS5EmqxssWrQIzzzzDICuuQHWr1/f7xhTpkzBq6++CgDw+Xyq5iUgIiIiIiIiIvU0WwLx3PkAdu/erSrG5MmTMWzYMADAu+++q0m+iIiIiIiIiCgxmg0SnPt4gd/vVx3H6/UCAFpbW8V5IiIiIiIiIqLE9XtOgvMpLS2NvU5OTlYVIxgM4tChQwCA9PR0TfJFREREREREA4tBr9nv1aSxuIMEfr8fiqL0uU0kEsGKFSti/549e3a394PBIIxGI3S6vpe5eOyxx2LLK1577bXxsqZKitWIbHff+9OXJJsRhrD69ABgMeiR7XWKYtgUE7K9DlEMBAKi5FajHtkemyyG2YjsVJcoxsl3D8IXCKpOb0yxIzvaIcpDXVklKqtld7+k203I9qhfnjPJZoZBWB4Wk15cHjarSRxDJ10SJ6pDVBYBLYEWtIVa4m/YhzRjCDBHVKdPMoTEx1LR4BxzmnWidjPVYRKXaVd6WYyWYBsCkU5RjGy9rN20R4Pi8rBoUKYeYV9mMURQ5zstykOy4oHZIPutIjnqF5WJVWeEO0XajxnE5WFV5GVqVYxw20Oq0zsVA7KtspZTMejE+5HksIhiJDkt4i8eWpxj0r7QapaVJ6BRvUIY2TbZ8bRarHBb1Z/rTqt8P7ToCwdC3bQpJlF6okTFPWM3bdqE5557DsuWLcOcOXOQlZUVey8QCGDv3r1YvXo1tm/fDgCYNGkSFixY0C1GWVkZFixYgG9/+9u4+uqrMWbMmNh74XAYhw4dws9+9jOsW7cOAJCamtrrKgpaaGjpQGWd+gv/cCSC6oY2UR5yByWjsl74hTLNjcp6WT4geCwEALKT7aJjCQDZqS5xDGfEgFaf+otEt2JEZa0sD0OHhVAhLA9z1Coq03CSBdXCY5mb4RaXR7pHXi+i0q/4uiiiUfVfzgEgEg0jGFE/+AQAtY0dqKxTf64rRr34WA7NTBLHSHJYRDGiiMjLFFFxjAjCCEVlF93SY5mWZBXH0OI8lfZlbT4PQlHZ+RHVoExPt3aKjoXTahb1HwCQneIYGH2hzYzWDvX7kuS0itorABiaJt8PxWy4+NdpA6AvlJYnAGSnOuV1c3C6+HrTqQvJ6qZNGRB94UComx1+WbtLlKiEhvUKCwtRWFgIALBarbE7C5qamrptN2rUKGzZsgX6XkbJysvLce+99wIATCZTbA6D1tZWhMPh2HZutxt//vOfVT+yQERERERERETqxL3nZfz48Vi4cCE8Hg+AruUJm5qaug0QZGdn46GHHkJRUVG3Ow3OysjIwNKlS5GdnQ2g6/GDszHODhB4PB58/etfR0lJCWbMmKHJzhERERERERFR4uLeSTB27Fhs3LgRAHD8+HGUlpaivb0dBoMBXq8XGRkZGDFiRJ8xvF4vfve73wEAamtrceDAATQ2NgIAUlJSkJaWhtGjR/d6BwIRERERERFdWvRx5quji6dfs4jk5uYiNzdX9IFpaWmYM2eOKAYRERERERERaY8/3RMRERERERERAA4SEBEREREREdEZHCQgIiIiIiIiIgAcJCAiIiIiIiKiMzhIQEREREREREQAOEhARERERERERGf0awnES0GW14VQKKI6vcNmhsumiPJgtxiQn+URxXBZTMgf5BbFQCAoSu5QTMjPSZHFsMpjKHYb/KGwCcpYlAAAIABJREFU6vQeh1mcB5tRh/w0hyhGskOB0aB+vViHxQSXPirKg91uQf6QNFEMl9OC/MFeUYxAOCRKH4wATX71dQIA6ho70dASEMXI9jpgV9Q3s8kOBUYI66ZFfo55XBZRjBSXgmhUuhZyFNDJxrUr6wJoaOsUxcjPFrbdNnl7Y1fkMRx2BS67RXV6q6LgyHHZsWz2+GCzW0Ux0jw2UZkoRoOo/wC62l55ecjbXsWggz8o6Atdirh+2xSj+Fgku60w6tWf65pcp1nl++Gyy85TxaiHX3C9CgAOqwZthcUkrhdKKAB/UH2/7nEo8us0y6VRN112WfqBxqiTXhvQhfK5GySoqm9BWUWD6vSZKQ5UN7SJ8uBNsqHsaI0ohsNmRtnRWlEMBPyi5B5rluhYAoDHaRXHcNpa0dqh/sucaWiaOA9pHjvKPjghipE3IgflNc2q02d6bKiu7xDlwZvhRVmT7Au6wx5C2ckmUYyTHVWi9HU+BVuOqz+WAFCxuwGvvVMuipFpjqK6oVV1+rwsD8qrGkV5SPPYxfXbZDSIYgxKdSAQkbU3Jr0CPWSDYI++VIY3/q9CFAMN9aLkdrNRXB7eJJs4RmZaEqpPq+/LQjoDFj5UKMrD12+ZinqH7IL3RE0zyo7VqU7vtJlF/QcAeGxmeV+oQdvrjHTK+kKTUXQsASDNJe/T8yKydk+z6zThfjissnqhSd10WrSpm9Xq+zEAcAbaBsZ12iVQN2e0y/pSokTxcQMiIiIiIiIiAsBBAiIiIiIiIiI6g4MERERERERERASAgwREREREREREdMbnbuJCIiIiIiIiurgMwlWL6MJhyRARERERERERAA4SEBEREREREdEZ/X7cIBQK4dSpU2hqaoLNZsOgQYOgKOrXOe7s7ER5eTnMZjNyc3NhNptVxyIiIiIiIiIi9RK6k2Dr1q245ZZbMHLkSJhMJmRnZ6OgoADDhg2Dw+HA9OnTsWHDhoQ/NBgM4tlnn8Xll18Om82GgoICjBw5EhaLBZdddhnuvfdeBINB1TtFRERERERERP2X0J0Ea9aswa5du3p9LxQKobCwEIWFhXj55ZexYcMGmEym88Y6ceIEbrjhBhQXF/d4LxqNYv/+/di/fz9WrVrVZxwiIiIiIiL6bNLrdBc7C3QeCd1J4HA4sGDBAqxZswbbt29HeXk56uvrUVRUhLVr1yInJwcAsHnzZtx7773njVNbW4tp06bFBghuueUW/P3vf0dNTQ1OnjyJHTt24JFHHsH48eM12DUiIiIiIiIi6g9dNBqNxtsoEolArz//eEJ9fT0mTJiAqqoqWCwW1NbWwul09thu0aJF2LRpEwwGA15++WXcdNNNstyrcNujm1Dd0KY6vWIywB8Mi/KQ5LCgqa1TFMPlsKClPSCKgWhElNztUNDc5pfFsFvQ3C47FgajAeH41fi87IoJ7R2y/dCiTK02BT5/SHV6xWSAPyCsm04Lmtplx8JlMaJFGONPj10jSt8ZjqLRLzsWH1TWorqlSRRj++vVaOtQf55aFaOoTgCAx2lBY6usbjqsZrT51O+H027Gi6uuFeUB0Itn2n2zrBy17a2iGC+9fFSU3mVT0DIA2hvFbBT1ZRlpVkyf6RXlYUhKBtI8SaIYz/7+nzhWpf481Rt0iITV9x+ARn2hy4ZmQVsBAAZEEBbsi91qQrswD5r0hRYjfJ3CvnAgXKfZzGgRHM9Lqm5GIwiH1V9z2q0mtPtkjyFfKnVzxoRcPLh0pijGQLKntvCiffbUtH+7aJ/9WZDQ4wZ9DRAAgNfrxZIlS/DEE0+gs7MTZWVlmDx5crdt9u3bh02bNgEA7rnnnosyQAAAB4/V4eDROtXpM1McokEGALhyXA52HagQxZg0MhNFh6tFMaSmjsnCntIqYYxs7CmtFMVwumxoFXRgBblelJTXiPIwffxgvLv/hChGXpYH5VWNqtNfSnXTGKfNiceh10MxyC6u6lN1aFJkFxT7y0+hqk79l1JpnQC0qZsFQ9NQcrRWdfqsVAcA2aCkDjpEILu4SvaGEHJ0iGJIj+XlIzNRLDw/tDhPpe3FzC8MgivNJsrD8FQFbrPsPD1yogF7Dqrvh5w2s6j/AAZQXyjcF+l5DrAvPJe0L2Td/Bjr5sdG5coGZ4kSpdkSiB6PJ/Y6Eul5Mbh27dquD9Trcd9992n1sURERERERESkEc0GCc5ObJiSkoIJEyb0eP/NN98EAEybNg2ZmZmx/29tbUVHh+yXHSIiIiIiIiKSEw8S+P1+fP/738fWrVsBAKtWrYLZbO62TXV1Naqqum53uvLKK9HS0oLly5cjOzsbLpcLdrsdKSkpuPnmm3Ho0CFploiIiIiIiGgAM+p0F+2P+pbQnATnuv7669He3g4ACAQC2LdvH3w+H+x2O1atWoXly5f3SFNR8fFzXXq9HlOmTOkxGHD69Gm8+uqr+Mtf/oLf/OY3uO222/qVr5qaGpSUlMTdLhyUPWNMREREREREdKnq9yDBjh070NLS0u3/7HY77r///l4HCICu1Q/OevLJJxEMBvHFL34Rjz/+OMaNG4eOjg6sX78eDz30EDo7O3H77bdj6NChmD59esL5euutt7BkyZK4242+4UEA5rjbEREREREREX3e9HuQYPXq1fD7/WhtbUVNTQ127tyJI0eOYOXKlVi3bh22bt2KsWPHdktz7pwDwWAQ06dPx5tvvgmTyQQASEpKwve+9z1MmDABV199NSKRCB544AG89957CefL4XBg6NChcbfT6Q0JxyQiIiIiIiL6POn3IMHdd9/d4/82btyIW2+9FceOHcN1112H0tJS2O322PvnvgaAn//857EBgnPNnTsXc+fOxT/+8Q/s3r0btbW1SEtLSyhf8+fPx/z58+NuN+kbvwIa1S+BSERERERERHSp0mR1g0WLFuGZZ54BAJw4cQLr16/v9n5qamrsdXJyMiZOnHjeWF/5yldir4uLi7XIHhERERERERElQLMlEM+dD2D37t3d3hs5cmTs9bnLH/YmJSUl9rqxsVGj3BERERERERFRPJoNEpz7SIHf7+/2nsvlQl5eHgCgubm5zziBQCD22mazaZU9IiIiIiIiIopDs0GC0tLS2Ovk5OQe71999dUAgJMnT3Zb7eCT3nnnndjr0aNHa5U9IiIiIiIiGiB0Ov1F+6O+xZ240O/3Q1GUPreJRCJYsWJF7N+zZ8/usc23v/1tPPfcc4hEIlizZg2efPLJHtucOnUKGzduBACMHTu222MKWklx2ZCd6lKdPslpgUEvq1gWs1GUBwCwWU3iGFJWRb4fWsVwK/2egzPGaTGI86BoUKZJDsvFr5uKCdmZHlEMLeqmQSdbhSQa1cGo7zk5an/oYIRJZxXFSPXYoINOdfoku6xOANrUTafNLIqRmmQVHQcAZ9LLYhj1RlgNFlEM6bG0a3B+aNGHeITthcuqwG2W3e1n0OlhNvR9fRFPsssqOhZWsxFue0iUhwHVFwr2xWmT181Lpi8cANdprJsfY938mE2RXdsQJSruN6tNmzbhueeew7JlyzBnzhxkZWXF3gsEAti7dy9Wr16N7du3AwAmTZqEBQsW9IgzZswY3HzzzXjllVfw1FNPIT09Hffddx/0Z06W8vJyLFq0KPY4wsMPP6zJDn5SQ0sHKutaVKcPRyKobmgT5SE3wy3KAwCke+ziGFLZqU5xHrJTXeIYTpsZrR2B+BueR5LDIs7D0MwkcQzFbLj4dXOQB5V1raIY6S758YwiKkoPHRCNRkQhgpEw2kL++Bv2oa6xA1WC4ymtE4A2dVN6jkQRkZcpouIYoUgIvnCnKIb0WKZp0HZr0YdI24vhPof4WOp0XXVDorHFJzoW0v4DYF94rkumLxwA12msmx9j3fxYhz8oSk+UqIR+fi0sLERhYSEAwGq1xu4saGpq6rbdqFGjsGXLltgX/0/65S9/iYMHD+LAgQO4//778dhjj2Ho0KHw+Xw4dOgQotGuC8Dvf//7WLRokeqdIiIiIiIiIqL+i3vPy/jx47Fw4UJ4PF23IPt8PjQ1NXUbIMjOzsZDDz2EoqKibncafJLb7cauXbtw1113wW63o7GxEcXFxfjggw8QjUYxfPhw/OlPf8Jjjz2mwa4RERERERERUX/EvZNg7NixsXkCjh8/jtLSUrS3t8NgMMDr9SIjIwMjRoxI+AOdTieeffZZPPXUUygqKsLJkydhtVqRl5eHUaNGqd8TIiIiIiIi+kzQcwLBAatfs73l5uYiNzdXkw9WFAXTpk3TJBYRERERERERyXH4hoiIiIiIiIgAcJCAiIiIiIiIiM7gIAERERERERERAeAgARERERERERGd0a+JC4mIiIiIiIik9NBd7CzQefBOAiIiIiIiIiIC8Dm8kyDL60IoFFGd3mEzw2VTRHmwW43Iz0kRxXDZzeIYUg6rPA8Oq0kcQzEZ4A+GVaf3uCziPNgs8jJNdlth1Ksft9OkblqMyM9OFsVw2RTxsYhGhSPLUSAqi4BQwIiAzy6KkZPuhsNiVp0+2SWrEwBgs8jPMek5kuJSIB2T7ipPWQxfwIr2Tpcohrztlp8fdkWDtteuwGW3qE7vctgRDCWJ8tAWAFwm2Zk6KNUhOhaKUQ+/4JoAYF94rkumLxwA12kDp26akT/YK4qhGPWsm9CmbrrssvREifrcDRJU1begrKJBdfrMFAeqG9pEefAm2UR5ALoabWkMKY/TIs6Dx2kVx3DazGjtCKhObzIaxHlI89jFMfIiHpRXNapOr0ndTHagrPK0KIZDkR/PYFR9eQIAojp0hn2iEIWHw9hU4hfFaK9pxsn6VtXp87JkdQLQpm5Kz5GsVAcA2cWuDgZEhTH+VmbA3pMGUQzpsbRr0HZr0YdkpiWh+rT69sLmdWHjh1ZRHtLHATZTkyhGVV2r6FhI+w+AfeG5Lpm+cABcpw2YuplkR9lJ2XnqNOtZN6FN3ZzRLrsuIUoUHzcgIiIiIiIiIgAcJCAiIiIiIiKiMzhIQEREREREREQAOEhARERERERERGdwkICIiIiIiIg+VTqd/qL9XWjbtm3DokWLkJubC4/Hg/z8fCxbtgz/+te/xLEDgQBef/11fOc738GUKVPgdDrhcDiQn5+PuXPn4vnnn0dnZ6foMz53qxsQERERERERXQh33nknfvnLX3b7v6amJhw+fBgvvPAC1q5di7vuuktV7KKiIsydOxeNjT1X2jh8+DAOHz6M7du344knnsCmTZswceJEVZ/DOwmIiIiIiIiIhH784x/HBgimTJmCN954Ax9++CFeeeUVjBw5EpFIBN/+9rfx5z//WVX8U6dOxQYIJkyYgPvuuw+vvPIKtmzZgqeeegrjxo0DABw7dgzz5s1DZWWlqs/p950EoVAIp06dQlNTE2w2GwYNGgRFUfr9wcFgELW1tQiFQsjKyoLRyJsaiIiIiIiI6LPn0KFDWLNmDQDg3/7t3/Dmm2/CbDYDAPLy8nD11VfjC1/4Ao4cOYK77roL//7v/w6LxdKvz9Dr9ViyZAm+973v4bLLLuvx/t13340777wTv/71r1FfX4+HH34Yv/nNb/q9LwndSbB161bccsstGDlyJEwmE7Kzs1FQUIBhw4bB4XBg+vTp2LBhQ0IfuHPnTsydOxd2ux3Z2dkYMmQIbDYb5s2bh23btvV7B4iIiIiIiIgupueeew7hcBgA8POf/zw2QHBWUlIS/uu//gsAUFdXh1deeaXfn3HNNdfgxRdf7HWAAOgaRFi7di0yMjIAAP/zP//T788AEhwkWLNmDdavX48jR470eC8UCqGwsBBf/epXccMNNyAYDPYZ56qrrsL27du7bRcMBrFt2zbMmzcPzzzzjIrdICIiIiIios8KvU530f4uhLNfyAsKCnD55Zf3us3ChQvh8XgAAH/84x8vSD7MZjOmTp0KAKitrVUVI6FBAofDgQULFmDNmjXYvn07ysvLUV9fj6KiIqxduxY5OTkAgM2bN+Pee+/tNcb69evxgx/8AAAwaNAg/OlPf0IwGEQ0GsWuXbswefJkAMCKFSuwZcsWVTtDRERERERE9Gk6deoUjh8/DgCYNm3aebczGAy44oorAADFxcUXLD8dHR0AoGpaAADQRaPRaLyNIpEI9PrzjyfU19djwoQJqKqqgsViQW1tLZxOZ7f0ubm5qKyshNPpxPvvv49hw4Z1i+Hz+TBlyhQcOHAAGRkZOHHiBEwmk6qd6sttj25CdUOb6vSKyQB/MCzKQ5LDgqY22bIULocFLb6AKIaU22ZGc6tsP9x2C5rbZTEMeh3CkbjV+LzsVhPafee/AyYRSS4rmtr9ohhWqwJfQH3dUgx6+H2yY5nktMrrptWElg5Z3dz4+JdF6cORMHxhnyjGn4ra8N7RdlGMjkMfobNT/bGwKkb4/CFRHjxOCxqF56nDakaboL1x2s14aZWsTLXw3N4aHKqT1YujO98XpXfZFLR0yNoKLfoQxWwU9WUerwuDJo8U5eFLw8woSI+IYqz59UGUV7aoTq836BAJq+8/AMDtUNDcJivTS6Yv1KBuWi1G+DrVt3sD5jrNZhb1hQOmbrodaO6U1QtDKIhwWP25zrr5sRkTcvHg0pmiGANJSWPRRfvsAs8kTeO9+eab+NKXvgQA+NnPfnbeH84BYPny5Xj22WcBdA0upKWlaZqX1tZWDBo0CG1tbZg5cyZ27NjR7xgJzRbY1wABAHi9XixZsgRPPPEEOjs7UVZWFrszAADefffd2MyKy5cv7zFAAABWqxU/+tGPcPPNN6OmpgabN2/GTTfd1J99ScjBY3U4eLROdfrMFIdokAEArhyXg10HKkQxJo3ORtGRGlEMqamjMrGnRLYfU8dkY0+pulk3z3LazGgVdMQFQ9NQclTdrThnTZ84BO8ekO1HXm4ayqubVafPTLKh+qT6ug1oVDdHZqLocLUoRjAiG2QIR6NoC7WKYhxv8GPXhw2iGKaPTqG6Xn0+8rI8KK/qucRNf0wfPxjv7j8hiiE9R7JSHYhANtihgwFRyC6uPqrvwD9PNIliHBIey8tHZqJYeH5ocZ5K+7KCMTmoOC47lrOHJKElKBuI++D4aew9eFJ1emn/AQBTx2RhT2mVMMYl0hdq0N5I270Bc50m7AsHTN2cmIc9ZbLrTSeCrJvQpm6OyvWK0lOXcDjc6xKCn+RwOBL+0frc2/p7+657rnMHBSoqKjQfJHj44YfR1tZV15YvX64qhmZLIJ59tgLounPgXKWlpbHXs2fPPm+Ma665JvZ606ZNWmWNiIiIiIiICOVlR5GcnBz37x//+EfCMVtaPr6r7dzvxb2xWq2x152dsjtcPum1117D008/DaBrhYVFixapiqPZIMGuXbsAACkpKZgwYUK395qbP/519OxMi71xu92x1/v27dMqa0REREREREQXxLlP8BuNfd+sb7PZLkge3nvvPXz1q19FJBJBTk4O/vKXv0CncpLGhB436Ivf78fKlSuxdetWAMCqVat6LPdw7oE4ffp0n7HOOnr0aNy5EIiIiIiIiOizR6/d79X9kjd8KMrLy+Nu19eP25907gSBZycNPJ+zjwJoad++fbj22mvh8/ng9Xrx+uuvw+tV/3hKvwcJrr/+erS3dz1DGAgEsG/fPvh8PtjtdqxatarX5x6GDBkSe11UVIQZM2b0Gnvnzp2x1+FwGLW1tQkXTk1NDUpKSuJuFw5qe0sHERERERERfTaYzCYMS+973oD+cjgcsdd1dX3PEXbuowkpKSnizz548CCuvfZatLS0wOPx4O2330ZBQYEoZr8HCXbs2NFtxwDAbrfj/vvvP+/ECDNnzoTdbkd7ezuefvppfOMb3+i2+sFZTz31VLd/B4OJz2T61ltvYcmSJXG3G33DgwDMcbcjIiIiIiIiiufcH8Xj3aVQVfXxhKJZWVmizz106BDmzZuH+vp6uFwuvPXWW+IBAkDFIMHq1avh9/vR2tqKmpoa7Ny5E0eOHMHKlSuxbt06bN26FWPHju2Wxu12484778STTz6JiooKzJs3D3/84x8xfPhwAEBjYyPuuecevPHGG6p3xGw2IykpKf6GOj6+QERERERERNoYO3YsjEYjQqFQ3LvbDx06BKBrYKG3H84T9eGHH2L27Nmorq6Gy+XC22+/3WNuQLX6PUhw99139/i/jRs34tZbb8WxY8dw3XXXobS0FHa7vds2q1evRnFxMd566y3s2bMHI0aMQE5ODgwGAyoqKhAOh5GamooZM2Zg48aNAACDwZBwvm688UbceOONcbeb9I1fAU2yZeKIiIiIiIiIgK45+L7whS/gvffew9tvv41QKNTrBIYNDQ0oKioCAMyZM0f153300Ue46qqrUF1dDavVii1btuDyyy9XHe+TNPlZfdGiRXjmmWcAACdOnMD69et7bGO1WvHGG2/gJz/5SWyegYqKChw7dgzhcBjXXXcdioqKYjMw6nQ6zdeMJCIiIiIiootPp9NftL8LYfHixQC65iR46aWXet3mmWeeQSgUAgAsXbq0x/vBYBDFxcUoLi7GsWPHeo1x9OhRzJw5E1VVVbBardi2bRuuuuoqjfaii2ZH6Nz5AHbv3t3rNkajET/4wQ9QVVWFQ4cO4e2338a7776Lqqoq/PWvf0VOTg7++c9/AgDGjRsXd/kIIiIiIiIioovt9ttvR2ZmJgDgu9/9Lv7v//6v2/t///vf8fjjjwMApk+fjunTp/eIUVNTg0mTJmHSpEn44Q9/2OP9yspKzJgxA5WVldDr9fjv//5vjB07Fk1NTef9O3d5xkRp9i383McLzl3KsDd6vR75+fnIz8/v9v8lJSU4ceIEAODqq6/WKmtEREREREREF4zNZsOLL76Ia665Bs3NzZgyZQpuuOEGuN1uVFVV4W9/+xui0Si8Xi/WrVun6jPWr1+PyspKAEAkEklo4v4TJ04gJyenX5+j2SBBaWlp7HVycrKqGM8++2zs9R133CHOExEREREREdGnYfbs2fjrX/+Kb3zjGzhx4gQ2bNjQ7f3LL78cL774IvLy8i5SDhMTd5DA7/dDUZQ+t4lEIlixYkXs37Nnz+53Rl577TX8+te/BgDcfPPNPe4y0EqKy4bsVJfq9ElOCwx62VMaFpsF2YPTRTFsyUnIHpb4xI69amsXJbdaTKJjCQBWxSiPYVPgDoRUp3c6LOI8KBYF2YNk65wmJbuQbTCpT28zwRBVfxwAwKLIy9Rm1aBeGK2i9IjqYDNaRCHumFGLG6a6RTHuX22D4cw8K2ok2TWom2b5Oea0mUUxUpOs0EH9cQBwJr0sxr1XOXFXRNZuzn9PdiztGpwfFg3K1CPsy0amK/jRInv8DfvgVZJgN8v6Qq/rQ9GxsJqNcNtl7aYm/ZhGMST74rTJ66YW7U2SsE/W5DpNg/2Q9oUDpm5aFWRnqvvxLxbD3866CW3qpk1Rf51In565c+fi6NGjePPNN7Fv3z40NTUhIyMDM2bMwKRJk/pMO2jQIHz00UcAAIfD0eP9b33rW/iP//iPfuVn0KBB/doeSGCQYNOmTXjuueewbNkyzJkzp9tajoFAAHv37sXq1auxfft2AMCkSZOwYMGCHnH279+PF198EbfeeitGjx4dm2+goaEBzz//PB599FFEIhFkZWXhF7/4Rb93JFENLR2orGtRnT4ciaC6oU2Uh9xsLyrrZTHS0z2obJB9yUdrqyh5dopddCwBIDvVJY7hdNnQ2hFQnT7JpojzMDQ3TVymitMuKtNwyILqOlmZ5mpQHukeeb0A+v/sVDc6HaDi+atz6fURhKJ9PzoVT11jByoFZaKYDfK6mZkkjpHksIhiRBFBVFqmiIpj6PVhRCNBUQzpsUzT4PzIzXCLY0j7srGdSYhAdiyNBh2k5/rpFp/oWDhtZlH/AQDZqc6B0RcK90V6ngPatDfSdk+T6zQNzjFpXzhg6uaQsPh60xloY92ENnWzwy9rd+nTo9frMXfuXMydO7df6QwGA4YOHXre991uN9xu2Y9YiUjocYPCwkIUFhYC6Fql4OydBU1NTd22GzVqFLZs2QJ9L6Nkra2t+OlPf4qf/vSn0Ov1cLlcPWIMGTIEr7/+OlJTU9XtDRERERERERGpFveel/Hjx2PhwoXweDwAAJ/PF5sp8azs7Gw89NBDKCoq6nanwbnS09NjjxBEIpFuMVwuF+677z68//77GD16tHiniIiIiIiIiKj/4t5JMHbsWGzcuBEAcPz4cZSWlqK9vR0GgwFerxcZGRkYMWJE3A8aPnw4Dh06hNOnT+PgwYM4deoUDAYDcnNzMX78eC53SERERERE9Dmh18nmaKALp1/fzHNzc5Gbmyv6wOTk5F7XhCQiIiIiIiKii4vDN0REREREREQEgIMERERERERERHQGBwmIiIiIiIiICAAHCYiIiIiIiIjoDC4pQERERERERJ8qHXQXOwt0HryTgIiIiIiIiIgAfA7vJEhx2ZCV6lSd3uOwQK+XjXopJj2yUhyiGDaTAVkemygGlKgoucVsEB1LALAo8hhWmwKXTVGd3mkzi/OgGPXISpHFcFtNyEpWX6Yeqwl6r6xeKSa9+FjYLEZxDAhHlqPRqDiGSWeA1WARxUhPtkFylrntirxumuTnmMNmEsVIdVshLlPIy9QAI0x6syjGQDg/tCjTZIdV1Jc5FLP4WEajgE74W4XXLevTLWYDXHb1/QcAWBR5mWrSF5qNon1xWmXnOQAoGlwXSNs9Ta7TzPIylZ7rA6ZuGvXISraLYlgDUdZNaFM3bYpJlJ4oUZ+7QYKGlg5U1bWqTh+JRFHd0CbKw5BBKag61SSKkeGxoepkgygGAn5R8pxkm+hYAkBOqlscw+kKo7UjoDq9x66I8zAsNx1VDbIYFqsJVTXNqtNHkiyorpHVqyGpTvGxyPA4xDEg+moN6HT6MwMF6pmviSEUAAAgAElEQVSNJtgiss741GlZe2MxG+V1M9MjjuFxWIUxohCXKfSIIiKKYTQYYBJ2e9Jjma7B+TEkI0kcQ9qXtfuTodfJLnaNegOEIVDf4hMdC6fNLOo/ACAn1TUw+kLhvsjPc23aG2m7p8l1mgbnmLQvHDB1MzuAqprTohhOBFk3oU3d7PAHRemJEsXHDYiIiIiIiIgIwOfwTgIiIiIiIiK6uPQ6/l49ULFkiIiIiIiIiAgABwmIiIiIiIiI6AwOEhARERERERERAA4SEBEREREREdEZHCQgIiIiIiIiIgAXcXWD48ePo6OjA2lpaUhJSblY2SAiIiIiIiKiM0R3ElRUVCA/Px/Dhg3DsGHD8Ktf/eq829bW1mLt2rWYN28eXC4XhgwZgjFjxsDr9cJms+GGG27A3r17JdkhIiIiIiIiIgHRnQR33HEHDh8+HPt3U1NTr9tVV1dj8ODBCIVCvb7v8/mwefNmbNmyBT/60Y/wyCOPSLJFREREREREA5iOT74PWKpL5ve//z22bdsGu90ed9tQKIRQKASTyYQbbrgBv/71r7F//35UV1ejuLgYDzzwAMxmM6LRKB599FH88Y9/VJstIiIiIiIiIlJJF41Go/1NVF1djTFjxqCpqQm/+MUv8N3vfhcAsGbNGjzwwAM9tj916hSefvpprFixAunp6b3GfPvtt/GlL30JkUgEWVlZqKys7G+2EnLro5tQ09CmOr3ZZEAg3O9D1o3baUFzR1AUw+WwoMUni4GgLL3bZkZzq08Ww6Gguc0vimGwWBCORFSnd5iNaGvrEOUhKdmJJl9YFMOqGOELqI9hNugQaJfth9uuiMvUZVfQ0i4r09d+ukCUPhoFIjr1dQIATnWcRlOgRRTjsbWH0NQSUJ3eajHC19n7HViJ8jgtaGztFMVwWM1o86nfD6fNhJce/rIoD1HooIOs7a3vPI3OiOxY3Lnyn6L0LpuClg7Z+ZHksKCpTbYfimKCP6i+vcnLceK7S/NEeUhRkuE0x/+hoS/fW/sODp9oVJ3eoNeL+g/gTLspbPM06QuF++KwmdAmvDbRom5aLSb4OtXnw2wyICCo2wDgdljQLNwPaV84YOqmx4lm4fWmIRBg3YQ2dXPGZbl48D9nimIMJOUthy7aZ+e5Rl20z/4sUPW4wV133YWmpibccccdmDVrVtzt09PTsWbNmj63mTVrFm666Sa8+uqrqKqqwuHDhzFy5Eg12etT6bE6HDxapzp9ZooD1c2yRubKcYOx62CVKMakUYNQ9GGtKAYCso5j6qhM7CmpkMUYk409pbIBIWeKB62CLzAFOR6UlMnyMP2KEXj30ClRjLxMN8qrm1Wnz0yyorq6QZSHK8dkYdf+E6IYk0ZmouhwtShGBLJOFDodwlHZl+uWYDuqOmTnWHHZKVTVtapOn5flQXmV+i9AADB9/GC8KyzTgqFpKDmq/lhkpTrEZaqDQRyjNdiK5mDvj8UlSnosLx+ZiWLh+XHluBzsOiBrezPTklB9WjBgbhuEUz71fSkAJClJCEVlF/6lR+uxW9CfOm1mtHao7z8AYOqYLOwplfXpmvSFwn2RnueANu2NtN3LTHGgWvBjEKDNOSbtCwdM3ZyYhz1lNaIYTgRZN6FN3RyV6xWlJ0pUvx832LBhAzZv3oyMjAw8+eSTmmZm4sSJsdd1dbKLDyIiIiIiIiLqn34NEjQ0NGD58uUAgGeffRZJSUmaZqam5uORytTUVE1jExEREREREVHf+vW4wXe+8x3U1dXh+uuvx8KFCzXNSCAQwJ///GcAwODBgy/IowZERERERER08el1XN1goEp4kGDr1q14+eWX4XK58Pzzz2uekTVr1sQmK/ze977X7/Q1NTUoKSmJu104KJtPgIiIiIiIiOhSldAgQUtLC775zW8CAJ588klkZmZqmont27fj4YcfBgBMnjwZ3/rWt/od46233sKSJUvibjf6hgcBmPsdn4iIiIiIiOhSl9AgwYoVK3Dy5ElMnz4dy5Yt0zQDRUVFWLRoUWzpw82bN8No7P+iC2azObE5EnhbCxEREREREVGv4n5jfuutt/DCCy9AURT89re/1fTD33//fcybNw8tLS3IyMjAP/7xD2RlZamKdeONN6KxsTHun9Wj7V0QRERERERERJeKPn+y7+zsxB133AEAWLVqFUaMGKHZBx85cgRz587F6dOn4XK5sG3bNowZM0az+ERERERERDQwceLCgavPkqmrq8OxY8cAAI899hg8Hk+Pv2nTpsW2X7VqVez/t23bdt64Bw8exPTp01FfX4+kpCRs27YNBQUFGu0SEREREREREamR8MP/LS0tcbfp7OxEZ2fX6gHBYLDXbcrKyjB79mzU1tbC5XJh586dGD9+fKLZICIiIiIiIqILpM9BgrS0NGzfvr3PAEePHo1NZvj1r38dixcvBgBMmDChx7ZHjhzBrFmzUFtbC6vViq1bt3KAgIiIiIiIiGiA6HOQQFEUzJkzp88AJSUlsdcjR4487/YVFRWYNWsWqqurYTab8dprr2H69OkqsiyT5XUhFI6oTu+0KnDZFVEeHGY98rMSWImhD26TDvleqygGYBGldlrNyB+aJorhcFjFMRRvCvxB9WWa7DQjPyrKAuxmg7g8UsyA0aN+eU6nzQDXILcoDw6nDfljholiuB16cZnq4s+pGie9DiadSRQj25YKr8UlijEkuw4Op0N1+mSnAqNBdixsSU7kj8sTxUhOdiDfrb7NSnYompRpAnPt9indmoYUJVkUI3/oB6L0brdN3m66ncgfNVgUw+m0wZXe+x1/ichIT0a+W1av7EYrTLr+r2Z0rsx0D/J96tt/s0mPQED9cQAAp92C/MEpohgOtx35I7NFMRQd4A+GVadPTrYj3yRbItpukx+LFJdV1O45bQpcLpsoDw6HDfnDZBNdu71JyNer74fMRj0C7R2iPDid8v1wGCG+vlFMDviDIdXpk93y/bBrUKYpHjuMdrvq9E6bGa5B6aI8uLweUXqiRMl65wTV1dVhxowZqKqqAgB885vfBAC8+eab501TUFCA9HTZidSbqvoWlJ1oUJ0+M8WB6oY2UR68HgfKKtTnAegaaCg7US+KIeVx2VBWcVoWw2EVx3BGFbT61F/kmXQulFU2ivKQ5lTEZZqX7kR5lfp8aFI3Uz0oO9kkiuHIsovLNAr1F/1d9PIYOiASVX9RAwDHa1tRWdeqOn1ephvlgvYKANIyU1F2slkUw6SYUVYd/5Gz88nyWDUoU50GMYAI1H+JAiCu23arWRzDm5qEsirZeZqZDlQ3qv8CkpfpEB9LvQZlWn26HWWV6o+n02pCa3unKA8euyK6rgAAT0qSuB9ymvVo7QioTm8yGeR9od0kPhZ5WR55X9gsK1NvkkNUrwDA4bKJzlOnxYTWRlnb7XHaxPvhsRrE15tOm1lYN40oq5S1eWkeu/hY5On0KK9Wn4/MZAeqfbJ2c4bgepeoPz6VQYLDhw/HJkAEgLVr12Lt2rV9pnnppZfwta997UJnjYiIiIiIiD5lOp3uYmeBzoPrThARERERERERAA3uJCgoKEA02vcD3VdeeWXcbYiIiIiIiIjo4uKdBEREREREREQEgIMERERERERERHQGBwmIiIiIiIiICAAHCYiIiIiIiIjoDA4SEBEREREREREADVY3+P/s3XlYVGX7B/DvzLAMMOwIIoK4b2CKa6GmkprLq2UuaZZrarZnqb1ZvZlZ2ltqiyWm5ZLm0qbpq0maWyImaqCICS6IoCjKvs/z+4PmIAIDc54R/NX3c11cF3DOc597zrnPOTPPnPMcIiIiIiIiIkvo+H31XYtbhoiIiIiIiIgA/AOvJPB0cYRfPWfV7d0Nemi1Gqkc7G108PMySMVwtLeReh3WoLeTfx16e/kYDk52cLHXqW7vbKeFn4eTVA7W2KauTvZ1X5u2Ovh5WqE2JdcFIPc6hJCPUWI0otholIrh4+YAUZqMKq6OdtL7ub0N4OfuIBXDYKeFn5tedft6znaQ3qYQ8jGEUWp7AJA/dtvJ7x/2Og38PBylYng42UEL9evCwU6LEqPcuiwxlkCnsZWK4eViL7U+9bZauDjIvRXS2+mk91O9rVb62OugFXBxtFPd3llvY51zoeS6sMq50FZum9rbaOT3dVud1H6qt9HBRVcilYPe1hrv0+TfbzrY2cDFyV51e2e9nfxx00Yr/z7N0VZqH3E32EGr/lQKAHC0U/9+l8gS/7hOguuZuUhOy1Ld3mgUSLmeLZVDYH03JKfelIpR38VB6nVYg389F+nX4e9hkI7hnJmLrNxC1e3dG3sj+dJVqRyaeOilX4de5173tRlQgmTJGPVt5dcFJD68AAA0GhiF3JurlLzrSMpJkYqRevWm1DbVa+RqAgCa+OUj+bzc63DXFCP5XJr6AF4GyG5TDbQQkOu0uVl4E1nFmVIxZGvbx8VBOkZgPWckX0iVimEs8EBKeo7q9jd9dEjMuiCVQyu35rDRyV3QeO16FpIvX1fd3tnRTur8AQD+Hk7S+6m/ryeSr0ieC22E3LnQXmedc6HkutDb2dT9ubCes1RdAUB9g53Ufmq12pR8Hf5u8u83ZV+Lu8FB+nU08ZJfF3qNEcnJN1S3N3o5IyVTbpvmBvtKtSeqKd5uQEREREREREQA/oFXEhAREREREVHd0mj4ffXdiluGiIiIiIiIiACwk4CIiIiIiIiI/sJOAiIiIiIiIiICwE4CIiIiIiIiIvoLOwmIiIiIiIiICACfbkBERERERES1TMunG9y1pDoJsrOzMWXKFBQVFQEAxo4di6FDh1Y677FjxzB//vwaxZ03bx5atmwpkxoRERERERERWUiqk2DGjBlYv3698nenTp2q7CRISUnB5s2baxT3hRdeYCcBERERERERUS1T3Umwd+9ehIeHQ6vVwmg0WtR29OjRMBgMVU6vX7++2rSIiIiIiIiISCVVnQS5ubmYOHEiAOC5557D4sWLLWq/YMEC+Pv7q1m0tDaB9eDh7KC6vZ2tDs38PKRycDXo0aNdgFQMF2cH9HDSS8VASYlUc1cne+nX4WqQj6Gz0aHEKFS3NzjYwt1Zbl26WWGbOjjao4G3m+r2djZa+dp0sEGPpu5SMVzstNLrQgudVHshNNBq5IZc0Wnsodep3x4A0KGFD5r4ql+fDnobNPB0lsrB3ckePdr6ScUwONjB3dFOdXtnRzv5bQqNdAxobKDTyO3r0sduR/ljnjWON/Z6ezRroL6+/b2c4O3gKZUDAGg0ctu0TWMv2OjUx9BptSix8IuO21nlXOhsjx5tfKVi6ACp12JwvEvOhXpbqePeXfM+TbIu7p7adECPDo2lYuiEYG3ir9osUf9+FQC8XdR/hiGyhKp30XPmzEFiYiLCwsIwceJEizsJ6tKp82k4eS5NdXtfTwNSrmdL5RAa7I+DMUlSMTq2DcDRP69IxUBhgVTzbm38EHkqWTJGQ0SeuiQVw9nFEVm5harbBzXyQmxCqlQOPdoFYP8fF6ViNA30QcLlm6rb+7o7IuXKDakcrFKbLXxx9EyKVAwj5DqwoNHCKIqlQmQU5iMpR259HjtzBclpWarbN/VzR0KyXA7WqM2gxt6IPXdVdXu/egbpbaqBTjpGdlEO0gvk1qfsugxp4Ytoyf3DGvupr7cbUtLVn8scHBoiv0TuXKjTeKFEcj89de4aDp1Ufx5ydrSTOn8Ad9G5UPK1yO7ngJXOhZLHvbvmfZrkufCuqc12gYg8LXfMcrYRrE1YpzZb+ct1gBHVlMVDSkZGRmLJkiVwcHBAeHg4NBrNnciLiIiIiIiIiGqZRZ0EhYWFmDRpEoxGI95++200adLkTuVFRERERERERLXMotsN3nrrLZw6dQohISF48cUXVS901qxZOHv2LK5duwaDwYCmTZti0KBBGDt2LPR6yfvsiYiIiIiI6K6mBa9Iv1vVuJPgxIkTWLhwIXQ6HVauXAmt1uI7FRS3PjYRAGJiYvDDDz9g7ty5CA8Px4MPPmhxzPT0dJw7d67a+YzFcvd3EREREREREf1d1aiToKSkBOPHj0dxcTFmzZqFe+65R9XC9Ho9QkNDERoaiubNm0Oj0eD48eP46aefcPr0aSQlJWHIkCHYuXMnevfubVHsHTt24LHHHqt2vtYPvw5A/SjdRERERERERH9XNeokWLhwIY4fP45mzZrhrbfeUrWgTp064erVq3B2Lv/okMceewzvv/8+FixYgNmzZ6OoqAijR4/G+fPnLbr1wM7ODm5uNXick0b9FRBEREREREREf2fVfmKOj4/Hf/7zHwDAF198AXt7e1UL8vb2rtBBcKtZs2ZhwoQJAIArV67ghx9+sCj+8OHDcePGjWp/HNzlnkNMRERERERE9HdltpPAaDRi/PjxKCwsxOTJk3H//fff0WReeukl5fcDBw7c0WURERERERFR3dBqtHX2Q+aZvd0gOTkZkZGRAIA//vgDDzzwQIV5srOzld+XL1+OXbt2AQDmz5+PLl26WJRMy5Ytld8vXLhgUVsiIiIiIiIiklPjpxtERUVVO09CQgISEhIAANeuXbM4mYKCgrLEbCx6OiMRERERERERSTL7SdzNzQ0LFiwwG+Dy5ctYsmQJAKB///7o06cPAKBVq1YWJ3PkyBHl91uvKiAiIiIiIiKiO89sJ4GzszNmzpxpNkBsbKzSSdC7d+9q569KUVERXnvtNeXvfv36qYpTHT8vFxSXGFW3d3awh4uTusEbTQyO9mjZ2FsqhquzA1oG1pOKgeISqebOBge0DPCUimFwtJOOYW9rg4KiYtXtPQzyOThZYZt6ejjDxs5WdXtnvS1cHNW3B/6qTcl14WqQj5GSmyrVPqNAh6hr2dXPaMbp6EwcPHFTKkYDL2cYHNQ/ctXD2QE2Orn75hwdbKW3h4eL3L7u4ayHUUilAK1GQFP9WLtmrdySiUNn0qViSO8fTvL7h8FB/pjl7GgPF71OdfvcXA2mL7oilcOQPvaw85I7Zrm5OUqtCztbHQqLJM+FVjhu3hXnQhe9/LlQL3+88XSRO+5Z5X2aXn57yJ4L75radHZAyyb1pWLYF+WzNmGd2pRtT1RTtXJNf3JyMmbPno1p06bh3nvvhVZbfgeLj4/H5MmTcejQIQBAaGiockWC1XO5lon4i9dVt/f1NCDlutyHDy93A+KT5N6oGpydEH/phlQMFKs/YAOAu5Od1LoEAHeDg3QMZ0c7ZOUWqm5vq9NJ5+Dt6Sy9TZtqbZCQkqG6va+bI1KuytWEl7P89jDo5esivyRfqn1uiR1S83KkYqSk5yHmvNz69EUBUq5nqW7f1M8dCclyOXi7OUlvD9l9pEE9A4yQe7OrhRYC6jt4AeB8Wg7+uCB53Lwity6drLB/eLk6SseQPZcVa3RIKFR/3AWAngV+KMwpkopxJT1bal3Inj8AwN2g57nwL9Y43sge96zyPs0K+5jsufCuqc16HoiXPA85l+SzNmGd2ux5T0H1MxFZQa10EhiNRqxduxZr166Fq6srWrduDScnJwBASkoKTp06pczbqFEjbNiwoTbSIiIiIiIiojqg0WjqOgWqQq10EtjZ2cHNzQ03b95ERkaG8sSEconY2ODxxx/Hf//7X3h4eNRGWkRERERERER0C+lOgpYtWyIxMREAqvxw7+Pjg/T0dPz555+Ijo7GxYsXcf36dWg0Gnh7e6NFixbo2bMnXFxcZNMhIiIiIiIiIpWkOwlsbW3RuHHjaufTaDRo0aIFWrRoIbtIIiIiIiIiIroD5IaKJiIiIiIiIqK/jVoZk4CIiIiIiIjIRKvh99V3K24ZIiIiIiIiIgLATgIiIiIiIiIi+gs7CYiIiIiIiIgIADsJiIiIiIiIiOgv/7iBCz1dHOFXz1l1e3eDHlqdXN+Kva2NVA4A4OhgC796LlIxUFQk1VxvJ/869PY66RgO9rZwcS5R3d7Z0U46B3s7W/j5uErFcDXo4VdPqG7v7mQLrbFYKgd7W/nt4ai3Ql3oHKTaG2x0CHAySMXI9xbo0tJDKkZBWga0Oo3q9q5OevnatMI2NTjaSsWo5+oAjXSftACgfl0CQAtfJ9zMk9uml4w5Uu2tsX9YY5t6GByg1apfn14uenh5yJ2D6jvZwsZZJxXjnKsj/LzV56G31cHFyV4qB739XXIutLORei3ODnL7OQDY28m/Dlcne/n3aRK1DQD2Vnh/I7uv6+3uktq01cLPU+586lAs91pYm2Uc7W2l2hPV1D+uk+B6Zi6S07JUtzcaBVIy8qVyCGwIJGcUSsWob9QiOVvuQz6y1K8HAPD3dJJalwDgX89VOoazpzuy8tR/OHZ3g3QOTVoEILlY7sCtFzZIzlffSWC00yDlmtzrCPR2kV4X9d0N0jF8HX0k22vRzFXuw2C6XwbG9HWUijHsucNITs9V3V5vbydfm77u0jHcDQ6SMQR0Grk3RhpoIaC+MxAAnn84AHklXlIxgoedkmrvY4X9I7C+m3QMo1Eg5Xq26vbBzTyw8PlmUjnU03vDVivXSfBD7nGpfczZwQ5ZWerbA4B/PfnjplXOhY52yMpV/95Cfj+3zvFGb2cj/z5NorYB6+xjsudC2e0JWKk2A4xIllyfziX5rE1YpzZzCyTf+xPVEG83ICIiIiIiIiIA/8ArCYiIiIiIiKhuaSVvI6Q7h1cSEBEREREREREAdhIQERERERER0V/YSUBEREREREREANhJQERERERERER/YScBEREREREREQHg0w2IiIiIiIiolmk1/L76biXVSZCdnY0pU6agqKgIADB27FgMHTrUbJvU1FQsWrQIu3fvxtmzZwEAOp0Obdu2xeDBgzF9+nQ4OTnJpEVEREREREREKkh1EsyYMQPr169X/u7UqZPZToKtW7di9OjRyMnJqTBt37592LdvHxYtWoQtW7agU6dOMqkRERERERERkYVUX+Oxd+9ehIeHQ6utWYhjx45h2LBhyMnJgY2NDV5++WXs2bMHR48exY4dOzBhwgQAQEpKCgYOHIj09HS1qRERERERERGRCqquJMjNzcXEiRMBAM899xwWL15cbZuFCxeiuLgYALB+/XoMHz683PT+/fsjMDAQb775JtLS0rBs2TK8+uqratIzq01jH3i4qr+dwc5Oh2bFQioHVzcn9AhpLBXDxdkRPQyOUjFQyRUdlnDV69CjXYBcDGcH9Oggty509vYoMRpVtzfY6eBuL/c63Bxs0aN1fakYDvY2aOBpUN3eTgs0c9ZJ5eDqaCe9TV2c7KVjaCH3OoTQQKuRG3JFp9FBr5Pbx0Kae6NxfTfV7R3sbNDAXS4Hd2e99PYwONjB3Vmvur2zo638NoVGOoadzh4ajUYqhvT+4Si/f7gZ5Lepvb0tmvl7qW7vV88VTjbOUjkAGug0tlIR2gZ6wUanvi50Wi1KSkqkcnB1kj9uuhrk60Kn1cqdCx3t4O4qd7xxs8Lx30Fviwae6mvLzlaHZn4eUjm4WmEfkz0Xym5PAHC1wvZwdXNCj/aS79PyslFSIlGbelupcxBgnePm3VCb3m68JZtqh6p30XPmzEFiYiLCwsIwceLEGnUSREdHAwD8/f0rdBCYzJgxA3PnzkVJSQkOHjyoJrVqnbp4HSfPp6lu7+thQMrNPKkcQjs2wcHEG1IxOrbwxdHzkldb3JTLoVsTT0T+cVEuRrtARJ5OkYrh7OyIrLxC1e2D/N0RG39JKoceoc7Yf/a6VIymvm5IuJKlur2viz1SziVL5RDauj4OSm7Tji18cfSM3DY1Qu5NOzRaGEWxVIjCkgJkFd2UihH951VcSlO/TZv6uiEh6ZpUDj3aBWC/5DYNauyN2HNXVbf3q2eQ3qYa6KRjlIgiFBrzpWLIrsuQFr6Iltw/QoP9cTAmSSqGr7cbUtKzVbc3GHTS69KgcYKQ3KYnL1zHoZPqj3vODnZS5w8A6NbKF5GxctujW5uGiDwldx5ydrRDVq7EubCJD2Ivyp3HerT1k95Hmvq5IyFZ/fsTX08DUq6rr23AOvuY7LlQdnsCQLc2fog8Jfe+oFuoKyIT5d5vOudlytVmgCdiz16WysEa58K7oTZbNVLfuXs30nDgwruWxVsmMjISS5YsgYODA8LDw2v8rUxubi4AwM2t6m/VnJycOGghERERERERUR2x6EqCwsJCTJo0CUajEW+//TaaNGmC2NjYGrVt0aIFLl26hKtXq/42Kj09HVlZpd+6tWrVypLUiIiIiIiIiOpccnIy1qxZg6ioKGRmZsLb2xu9evXCo48+ChcXF6st5/jx49i0aRNOnDiB/Px8NGrUCP369cOwYcNga6v+lj6LOgneeustnDp1CiEhIXjxxRctWtAzzzyD3bt348qVK1i8eDFeeOGFCvPMnj0bQgjY2tpiypQpFsUnIiIiIiIiqksrVqzAM888g/z88rflrV+/Hq+99ho2bdqEXr16SS3DaDTipZdewpIlSypMW7lyJYKCgvD999+jWbNmquLXuJPgxIkTWLhwIXQ6HVauXFnjpxqYPPzww5g7dy7efPNNvPjii9i/fz8GDRoEFxcXpKWlYePGjfj111+h1+vx5ZdfokWLFhbFT09Px7lz56qdz1gsd38XERERERER0e3WrVuHyZMnAwB8fHzw/PPPo2nTpoiKikJ4eDiuXbuGgQMHYt++fejUqZPq5cycOVPpIGjdujWeeuopeHp64ueff8bq1asRGxuLXr164ciRI/D19bU4fo06CUpKSjB+/HgUFxdj1qxZuOeeeyxeEAC8/vrr6N27NyZMmIDvvvsO3333Xbnp3bp1w8aNG+Hv729x7B07duCxxx6rdr7Ww/8DwN7i+ERERERERESVuXLlCqZNmwYAaNq0Kfbv3698QB85ciQmTpyIHj16ID09HY8//jhOnTql6qlLhw8fxgcffISlj0oAACAASURBVAAAGDRoEDZt2gQHBwcAwJgxYzBy5EgMGTIEycnJePbZZ7F582aLl1GjywEWLlyI48ePo1mzZnjrrbcsXojJli1b8Oijj+Ls2bMAgPr166N9+/bKYIaRkZHo378/Dh8+rHoZRERERERERLVp+fLlyvh6H330UYVv8Nu0aYP//Oc/AIDTp09j27Ztqpbz3//+FwCg1+uxYsUKpYPAZODAgRg/fjwA4LvvvqvR1fa3q7aTID4+XnkxX3zxBezt1X0Lv23bNjz88MNITk5GaGgozpw5g5SUFBw7dgw3btzAkSNH0LJlS8TFxaF3797KIxNrasyYMRBCVPvj4NFQVf5EREREREREldmwYQMAwN/fHwMGDKh0nokTJ0Kv1wMAvvzyS4uXkZGRgS1btgAA+vbtCx8fn0rnmzBhAgBACGH9KwmMRiPGjx+PwsJCTJ48Gffff7/FCwCAoqIiTJ48GUajES1btsSuXbvQvHnzcvN06tQJv/zyC5ydnZGXl4fp06erWhYRERERERHd3XTQ1tmPtWVkZChP/evVq1eVtxE4OTmhc+fOAIDffvvN4uUcPXoUhYWlY+z17du3yvm6desGJycnAMDevXstXo7ZMQmSk5MRGRkJAPjjjz/wwAMPVJgnOztb+X358uXYtWsXAGD+/Pno0qULgNIXk5qaCqC09+T2SyJM/Pz88PDDD2P16tU4fPgwrly5UmXvCBEREREREVFdM3UQAKW3FZjTqlUr7N+/H6mpqbhx4wbc3d1rvJyTJ08qv3fo0KHK+XQ6HYKDgxEZGYljx47VOL5JjZ9uEBUVVe08CQkJSEhIAABcu3ZN+f/58+eV3wMCAszGaNmypfJ7WloaOwmIiIiIiIjornXp0iXl9yZNmpid99bPt5cuXbKok+DixYvK797e3jVajunLekuY7SRwc3PDggULzAa4fPmy8viF/v37o0+fPgBKe0hMbr1yICMjw2y8lJQU5Xe14x8QERERERHR3cvBxq1OlhsfH48BA0KqnW/FihXo3bt3jWKaBiwEAC8vL7PzGgwG5ffMzMwaxa9s/vr165ud19HREUDpEAJ5eXlVXs1fGbOdBM7Ozpg5c6bZALGxsUonQe/evSud/9ZLITZv3oypU6dWGquoqAg//fQTgNLRGqvrhVFj6QsPIievqNJp363/Cof2ReDeng9g2Ojxlc6j0QBCMgcbWxsUi8rvU0m5dBEfvlW6Dt9f/k2VMXQ2OpQYJTMprnw9AMCn77+F82fjMWzMRNx7f8XbTABAp9GgpOg+qRR0NtoqX8exqN+wbuVS1PdriBmvv1dlDI1WCyHUrwutRgNjcUmV019/aQry83Mx/aXX0bhZy0rnsbG3rXKb1jgPrQZVbdLt363Hnv/9gA5du2PM5GcrnUcDQBQVSuVgo9WguNhY6bQb6dcwf84LAIC5H4TDwcGx0vl0Og1KSuRq015rqHLaSy/OQOzJk3ju2Wcw+F+Dq5hLSO+nPo728NRX3kO7d88+fLjwQzQKbISPPltSZYyvZjVEYVHl67MmNFpAmFmXNapNnQbFkttDq9PAWEWM7T9uxJ6dW9ChcyjGTHiqihy0ZreprKtXr2Ls2CcAAN9//61yD97tPOz0MEL99gCA7QurftTuiqX/xenY4xg4dBR69/9XpfNYY/8wFyMu9jhWLv0v3Ny98No7i6uModFpICRWhcHRBvUdqv7mY/zjE5B2NQ3/eftNdO7SudJ5dBoddBqd+iQAvD81DJk5lR/39uzciu0/bECroPaY9PTLlc6jgfw5XafToOQuOG5qNEBVp8Ka1Ka5c1BN2Wg1KC6pfF3UtDa1Wg2MEomYWw8A8M5rL+DmjWuYOP1ltA5qX+k81jhumtume3ZuxfYf/6rN6Xe4NqvIIS8vF2/MmAIA+Pe8xXD3qPxDjc7eDiWQe3+jKS6q8n3aupVLcSzqN/R+8F8Y+NCoSufRajQwVlFXNWVum547G4+lH74Nvd4Rb38YXmWMO12bH8x7FamXkzBmwnR06Fz5+2u/es6ql09lCgsLazTif25ubo1jFhcXK79X90W3i4tLjePe7tbOCEsUFRVZr5PAWgICAhAaGoqDBw8iIiICM2fOxHvvvQettmzQiJycHIwbN065NWHUqFHQ6eTePFSma2u/KqdtWn4F0VEH0SUkGH1CAq2+7JqIQTqiDx8AAPQJrjrXO+2N8/GIPnwQk8c9hj73mL9F5E5JjfsN0VEHERQUhD4d6mZ7AMDDx6OQmZmJln4GdO/YuE5y+HltGqIjD6BlY3/0CWpQJzlcvKhDdFTpACvdgxvC1dW1TvI4ejQaBw8exPBHhkOntb1jy7HR2lU5Let6Nn7dvRdBQUFwsau6F7x78J3tIb8ranPTDURH/YaWTRuhTx3lUFRYgt2/7AYACKOmyrqwRr2Ye40fpJ5HdNRvGPHwv+psXeSlnkJ01G/w9/evsxwA4NDBSCQlJWHGSy/DwabyThtr6NSy6uNh1M85iI46iPpernV2Tr9bjpuszTLjTx1DUlIS5r5hV2d5RO3KRXTUb6jv5VZnOWRkZCi12bmlT7W3A98pX1y/hOiog+jbu3udvdc7kJeM6Kjf4OLiUqe1+fzZk4iNjcWM55+u0zz+CQICArBx48Zq5wsJqf5qAxMbm7KP1QUFBWbntfTqgVs5O6vrKLK1tew9UK10EgDAsmXLcN999yEzMxPvv/8+Nm3ahNDQUDg6OuLGjRvYt28frl69CgBo2rQpFi1aVFupERERERER0T+Aq6srRowYYdWYt95CkJ6ebnbenJwc5XdLP/TfOv+VK1fMXpWQl5cHANBoNBZdRQDUYidB27ZtcfjwYUydOhX79u3D+fPnyw1oCJS+gOHDh2Pp0qUWDeBAREREREREVBcaNCi7si0xMdHsvKYvxoHSp/tZwt/fX/k9LS0NzZs3r3Y5ah4EIN1J0LJlS2VFeHh4mJ23VatW2Lt3L+Li4nDgwAGkpqYiOzsb7u7u8PPzQ58+fSxeUURERERERER1pV27dsrvcXFxZueNj48HUPp0Ak9PT4uW07ZtW+X3EydO4L77Kh+/wmg0Ko9lbN++8vFXzJHuJLC1tUXjxpbdN9O6dWu0bt1adtFEREREREREdcrNzQ1BQUGIjY3Fvn37qpwvPz8fR44cAQB0797d4uV07twZdnZ2KCwsREREBJ56qvJBo3///Xdl7APT0wctoa1+FiIiIiIiIiKqyrBhwwCU3m7wyy+/VDrP6tWrlTEJxo4da/EyXF1dMWjQIADAzp07cf369UrnW7VqlfL7Qw89ZPFy2ElAREREREREJGH69OnKY5inTp1abuwBADhz5gxeffVVAEDz5s0xZMiQCjGSkpKg0Wig0WgwZsyYSpfzyiuvACgdAHH8+PEoLCz/KOCff/4Zy5YtAwAMGTLE7LgFVam1gQuJiIiIiIiI/o58fHzwwQcfYNq0aUhISECnTp0wdepUeHt748yZM1i5ciXS09Nha2uLL774AjqdTtVy7r33XkyZMgXh4eH46aef0KVLFzzxxBMwGAw4fPgwVq9ejZKSEnh5eWHJkiWqlsFOglu0bt0aYWFhdTpegsFgQFhYWJ0t36RTp07Q6/Vo2LBhneVQv359hIWFWTzmhbX16tULOTk5cHO7s8+8N6d58+YICwtDcHBwneWg1+uV2rz1WbC1jbVZhrVZ6m6pzfbt26OgoACBgXXzrG8A8PLyQlhYGLy9vessB6D0PsurV6/Cy8urznIIDAxEWFiYqgGbrIW1WYa1WeZuqE0bGxulNvV6fZ3lERwcjKtXr6r6ptNa3NzcEBYWpnwDXFe6desGHx8f1K9fv07zIDlTp05FYWEhZs6ciaSkJMyZM6fcdC8vL6xZswY9e/aUWs4nn3wCrVaLzz//HCdOnMCMGTPKTW/bti2++eYb1cd9jRBCSGVIRERERERERACA5ORkrFmzBlFRUcjMzIS3tzd69eqFRx99FC4uLlW2y8vLw7Zt2wAAAQEB6NKli9nlHD9+HJs2bcKJEyeQn5+PRo0aoV+/fhg2bBhsbW1V589OAiIiIiIiIiICwIELiYiIiIiIiOgv7CQgIiIiIiIiIgDsJCAiIiIiIiKiv7CTgIiIiIiIiIgAsJOAiIiIiIiIiP7CTgIiIiIiIiIiAsBOAiIiIiIiIiL6CzsJiIiIiIiIiAgAYFPXCdS1nJwcZGZmoqSkBC4uLnBxcanrlO4aOTk5WLduHQBgzJgxcHJyqvUcMjIykJiYCHt7e7Ro0QI2NnVXsgUFBSguLq619cDarBprszzW5t2DtVkea/Puwdosj7V592BtllfbtUlUKfEPUlxcLH7++Wfx9NNPi/bt2wtXV1cBoNyPXq8XrVu3FmPHjhUbN24U2dnZdySXrKwskZ+fb1GbmJgYcfToUZGenn5HcrrdxYsXlfVy8eLFWlmmEELk5uaKt99+W7Ru3brctrGzsxP9+vUTu3btstqyTp8+LT788EPx7LPPivfff1+cPn26wjzh4eEiODhYaDQaAUA0atRIPP300yIhIcFqebA2LcPaLMXarB5rk7XJ2izF2izF2qwea/PvW5tENfWP6STYtm2baNmyZYWDdHU/np6eYunSpcJoNErncPPmTfH666+L+vXrCwBCp9OJTp06iU8//VQUFhZW297f318AEOvWrZPOpSbuxEF727Ztws3NTXh5eYlr165VmJ6QkCCaNm1a7XZ55ZVXpHN55ZVXlAPxrT9vvfWWMs+4ceOqzMHJyUkcPnxYOg/WpuVYm6xN1mYZ1iZrsyZYm6xN1maZf2JtEllCI4QQ+JtbuHAhZs2aVe5/3t7eaNWqFXx9fZVLvvLz83Hp0iWcO3cO58+fLzf/ww8/jM2bN0OrVTeMQ1paGnr27InTp09XOr158+bYtGkT7rnnnipjBAQEICkpCevWrcPo0aMtWn5BQQHeeOMNi9pkZmbi888/BwBMmzat3KVxTZo0wdSpUy2KZ4qzbNky9OvXDzt37iw3raSkBCEhIfjjjz8AAPXq1UNYWBgCAgJQUlKCEydOYO/evSgqKgIALFmyBM8995zFOZjavvDCC1VO/+qrr2AwGDB8+HAAgIeHB+6//34AwIEDB5CWlgYA8PX1RXx8PJydnVXlwdpkbd6OtVmGtQklDmuzDGuTtXk71mYZ1iaUOKxNIgl13Utxp+3cuVPpiQsICBCff/65uHLlSrXtbt68Kb7//nvRvn17pf2CBQtU5zFgwAAljru7uxgyZIgYPHiwcHd3V/7v6OgofvzxxypjyPTsZmRkWNyrbe4nNDRU1XoICQkRAMQ777xTYdrq1auV+FOmTKn08rgLFy6ITp06CQDC1dVV5ObmWpxDdna2cHJyEgBEgwYNxJo1a0RCQoL4448/xL///W+h1WpFo0aNRGhoqAAgXnrpJZGXl6e0LywsFHPmzFFy/eSTTyzOQQjWpglrswxrszzWZinWZhnWZinWZhnWZnmszVKsTSI5f/tOgm7dugkAIigoSGRkZFjcvri4WPzrX/8SQOmlYAUFBRbH+P3335UdvGfPnuXu8SooKBAff/yxchDR6XTi+++/rzTO3+Gg7eHhIQCIDRs2VJg2cOBAAUD06dPHbIzU1FRlfW3evNniHL799ltlXcfGxlaY/tZbbymv84EHHqgyztChQwUA8eCDD1qcgxCsTRPWZhnWZhnWZhnWZhnWZinWZhnWZhnWZhnWJpGcv3UnQUFBgdBqtQKAiIqKUh0nMzNTuLi4CABi//79Frd/5ZVXBADh4uIi0tLSKp0nJiZGOShrtVqxatWqCvPIHLSzsrKETqcTAETbtm3FgQMHxI0bN8z+xMTEKAevmJiYctOysrIszkEIIezs7AQAsXXr1grTmjdvLgCItWvXVhtn5MiRAqi8h7g67733ntkD8pUrV5TXbe6ksHXrVgFANG7c2OIcWJtlWJtlWJtlWJtlWJulWJtlWJtlWJtlWJtlWJtEctTd8PT/RGpqKoxGI5ycnNC5c2fVcZydndG6dWsAQFJSksXt4+LiAADDhg2Dl5dXpfMEBQXh0KFDaNOmDYxGIyZMmIDly5erzvl2BoMBR44cQXBwME6ePInevXtj0aJFcHJygpubW6U/rq6uSntXV9dy0wwGg6o86tevDwA4c+ZMhWl5eXkAgEaNGlUbx8PDA0DpfWyWMt3/17x580qne3t7K/fDNW3atMo4gYGBAIDr169bnANrswxrswxrswxrswxrsxRrswxrswxrswxrswxrk0jO37qTwN7eHkDpADG5ublSsUwHB71eb3HbGzduAAD8/f3Nzufn54eDBw8iKCgIRqMRU6ZMwRdffGF5slXo0KEDoqOjMXfuXADA3Llz0b59exw6dMhqy6hJDgCwbdu2CtMaN24MAIiPj682zuXLlwGgypOgOQ4ODgBQZU0YjUYUFBQAKH12b1UKCwsBlNWZJVib5bE2S7E2y7A2y+cAsDZZm+WxNkuxNsuwNsvnALA2idT6W3cS+Pj4wN3dHSUlJfj4449Vx9m1a5fSO9uuXTuL2zs5OQEoPXlUx83NDb/88gtCQkIAAE8++SQ+++wzi5dZFRsbG7z++uuIjo5Gp06dcOrUKYSGhuLZZ59Fdna21ZZTlccffxwAsHv3bqxevbrctKFDhwIAli5dqowoW5kzZ87gf//7HwCgY8eOFudg6tHdv39/pdMPHz6sHLSrmgcAIiMjAZT1VluCtVkRa5O1eSvWZhnWZinWZkWsTdbmrVibZVibRJLq+n6HO23atGnKfVfLli0TJSUlFrXftm2bcn9Yr169VOXw9NNPCwCif//+NW6TmZkpunbtqtyr9Nlnn1n9ubXFxcVi4cKFwt7eXgAQ/v7+Yvv27cr0O/HcWiGEMoqrVqsV8+fPF0VFRUIIIfLz80VQUJAAIAYMGCAuX75coe3BgwdF48aNBQDRvHlzVc8TPn78uPK65s2bV25aVlaW6N69u7CxsRGenp7Cw8NDXLp0qUKMtLQ00ahRIwFATJ482eIchGBtmsPaZG2yNstjbZZibVaNtcnaZG2Wx9okUu9v30lw48YN0bBhQ2UnbdCggXjhhRfEV199JSIjI8Wff/4pEhMTlZ8jR46IjRs3ilmzZikHEADC1tZWREdHq8rhyy+/FACEwWAQ2dnZNW6XlZUlunTpouRgGhTHWgdtk/j4eHHvvfcqyxk9erRIS0u7YwftpKQk5YBn2iaTJ08Wq1atEuvXr1dGpLW1tRUdO3YUQ4cOFQMGDBBNmjQptz1+/fVX1TncekJs27atmDx5shg9erRwc3MTAMTIkSPF1KlTBQDh4+MjFi9eLKKiokRUVJT49NNPRWBgoNJ+z549qnJgbVaPtcnaZG2WYm2WYm1Wj7XJ2mRtlmJtEqn3t+8kEEKIkydPimbNmik7maU/rq6uZp8nW53Lly8LjUYjAIhly5ZZ1PbGjRvivvvuK5ePtQ/aQghhNBrFkiVLhKOjowAgPDw8lFFZrX3QFqJ0nfTt21fV9qhfv77YsWOH1PL//PNP4eXlVWl8Nzc3cfbsWXHp0iWlV7+qn0ceeUQqD9Zm9VibrE3WZinWZinWZvVYm6xN1mYp1iaROv+ITgIhhMjLyxMfffSRaN++fY0PDoGBgWL27Nni2rVr0svv06ePACBatmxp8SVo2dnZolevXnf0oG2SmJhYbll36qBt8uOPPyrrprqfkJAQ8e6771rUO25OfHy8eOihh4SDg4MAIOzt7cXQoUNFfHy8Ms/x48eVy+5u/dFoNGLcuHEiLy9POg/WZs2wNlmblmBtsjZZm6xN1iZr04S1SWQZjRBC4B8mOTkZBw8exLlz55Ceno68vDyUlJTAYDDAyckJjRs3RseOHdGmTRurLfPcuXNITEwEAHTr1k0ZXKamcnNzsW7dOggh0KdPH7OPSrGG8PBwvPzyy8jKygIAXLx4sdrRcmVcv34d0dHRuHDhAm7evAmj0Qig9PEwjRo1Qps2beDj43PHln/z5k04OTnB1ta2wrS8vDz88MMP+OOPP6DT6RAQEIABAwbckfXB2qwea7MMa9M81iZrk7VZirVZhrVpHmvzn1GbRNX5R3YSUM3k5+crI+S6urpCo9HUcUZEpVibdLdibdLdirVJdyvWJtHdh50ERERERERERAQA0NZ1AkRERERERER0d2AnAREREf0tZWdnY8+ePfj2229x4sQJlJSU1HoOQgjExsbi+++/R0REBG7evFnrOQDAlStX8L///Q8//vgjzp49Wyc5FBYW4vDhw9i8eTMOHTqkXGJe2xITE7FlyxZs374dKSkpdZIDUHZp/fbt2+ssh9mzZ0Oj0WDQoEF1lkNSUhI0Gg00Gg2SkpLqLI9BgwZBo9FgwYIFdZbD+vXrodFoEBAQUGc5EAHsJCD6f2379u3KibUuBQQEQKPRYP369XWWw4IFC6DRaNC9e/c6yyEzM1PZHrGxsXWWh+mNzlNPPSUda8eOHZg2bRpGjBiBZ599Fr/88kuN2h08eBAdO3ZEx44dpXO4cOEC3nzzTYwePRpPPPEEli5dWuMPWoMGDULHjh2xc+dOqRzy8/OxZs0aTJgwAaNGjcLs2bNx/PjxGrVdtWoVOnbsiEmTJknlAABHjhzBK6+8gpEjR2LSpEnYsGEDCgoKqm2Xk5OjbI+EhASpHNLT07F48WKMHTsWjz32GN59911cunSpRm2ff/55dOzYUfpN+NGjRzF58mS0bdsW3bp1w7Rp05CcnKxMLyoqwiuvvAJvb2/06dMHw4cPR/v27eHv74/PP/9catkmGRkZeP/999G9e3cEBwdj8ODB2LJlS7l5fvnlF7Rq1QrBwcEYNmwY+vbtCy8vL4wdO9ZqH0537NiBUaNGoXXr1ujRowdef/11ZRA4oHR7jRgxAr6+vhg4cCAeeughNG/eHO3bt5feL0wuXbqEWbNmoUOHDujQoQPGjBlTYf9Yvnw5GjRogG7dumHEiBG477774O3tjdmzZ9eohqtTUlKClStXYsCAAWjTpg3CwsLw+eef49a7ak+dOoXQ0FA0bdoUQ4cOxaBBg9CgQQP069evTo/ZRER3G5u6ToCIiO4+qampGDx4MI4ePVru/5988gnatm2LZcuWITQ0tMr2GRkZiI6Ols7jzTffxPz581FcXKz8b82aNZg5cybmzJmDV155BTqdrsr2MTExSEpKQnp6uuocjh8/jiFDhlT4hmvBggUYMGAAli1bZnb06dTUVERHR8PBwUF1Dnl5eZg4cSK++eabcv9fuXIlGjRogA8//BCjRo2qsn1JSYmyPfLy8lTnsXHjRjz55JPIzMws9//XX38d48aNw+LFi+Hs7Fxl+7NnzyI6OhpdunRRncPXX3+NJ554QhmVHAAOHz6MDRs2YP/+/QgKCsLEiROxdu3aCm1TUlLw1FNPISYmBp9++qnqHNLS0hAaGoo///xT+V9sbCy2bduGV199FfPnz8e+ffswYMAAFBUVlWtbUlKCr7/+GpGRkYiMjISXl5fqPF599VW899575f534MABbNiwAYcOHYKjoyMefPBBHDlypELbEydOYMCAAVi7di3GjBmjOoeYmBj07NmzXMfd8ePHsWHDBqxduxajR4/GBx98gJdffrlC26ysLCxYsABHjhzBzp07YWOj7m1pUVERBg4ciIiICOV/cXFx2L17N3bs2IHvvvsOSUlJ6NmzJ65fv16h/a5du9C1a1f8+uuv6Ny5s6ockpOTUVhYaFEbUw2npqbi3Llz5aY1btzY4hyysrJw7do1i9qYtltubm6FHLy9vS1+OoIQAufPn7eozeXLl5XfL168WO54r9fr4evra1E8oHQfzc7OtqhNbm4uAODatWsV1kXDhg0rfSKBOQUFBeVeW01cvXoVAFBcXFwhBxcXF3h6eloUj0i1unjuIhFZx7Zt25Rn6dYl07N97+Qzlavz3nvvCQAiNDS0znLIyMhQtkdMTEyd5TFw4EABQEybNk1V+6KiItGuXTuzz5HW6XRi8eLFVcawRm1+/PHH1T7Punv37uL69etVxpCtzdTUVOHp6Wk2BxcXF/G///2vyhjWqM3HHnus2nUxbdq0Kp+Lbo3a3L17t9BqtWZzaNasmTh9+nSVMWRrMy4uTtjZ2SnL8/DwEIGBgUpeLVq0EDt37lSmh4aGisWLF4vVq1eL559/Xjg5OSnTtm/frioHIYTo16+fEsfOzk40btxYuLq6Kv/bs2ePaNGihQAgPD09xauvvipWrVolPvzww3L71kMPPaQ6h40bN5Zb9w0aNBB+fn7K3+PHjxfvvPOO8vcjjzwiPvvsM/HVV1+Jxx57TOh0OiX/CxcuqMohNzdXNGzYUFmGwWAQjRs3Fvb29gKAcHJyErGxscLW1lapj/fee0+sXr1avPHGG+WeC79gwQLV62LmzJnl1kWjRo1EvXr1lL8XLVokRo4cKQAIW1tbMWXKFLFixQqxbNky0adPn3L1W1hYqCqHoKCgavdRS37U+Oyzz6yag5rj5q3HGmv8qD1ujh492qp5qDluHjhwwKo5qD1uEqnBTgKi/8fYSVCGnQRlZD+IffTRR8rr6Nmzp/jtt9/EjRs3RFxcnJg9e3a5D1pvvPFGpTFka/PatWvKBw0XFxexatUqceXKFZGSkiK+/vprcc899yjxg4ODRVpaWqVxZGtz7NixynKeeOIJERcXJ9LT00VkZKSYNGmS8kFLr9eLrVu3VhpDtjYPHTqk5NC4cWPx008/ifT0dHH+/HmxePHich+0Ro0aVemHHGvUZuvWrQUAodVqxbx588SFCxfE1atXxc6dO8XgwYOV+D4+PuLEiROVxpCtTdP20Ol04ssvvxRGo1EIIcSFCxdEp06dBAAlz0mTJlVo/+effwoPDw8BQNx///2qcrh1ewwcaELwkgAAEhdJREFUOFBcu3ZNCFHaufbaa68pNQlA+Pr6ikuXLpVrX1JSIh599FElRnx8vKo8TB9KPT09xcGDB5X///7778LLy0vY2tqKli1bCgDi008/rdA+IiJCqd+XXnpJVQ6LFi1SXsfs2bOV2svKylI+lLdp00YAEF26dBG5ubnl2mdkZIi2bdsKAKJevXpVdnKZk56ernRCBAcHi7NnzyrTvvnmG2FrayuaNWsmbG1thY2NjdizZ0+FGLd2pmzcuNHiHIRgJ4EJOwnKsJOA/j/j7QZEdWTGjBm4ePGiVAzZe1p37dqF8PBwqRgALL688VZ5eXl44oknpHM4ffq0VPuPP/4Y+/btk4px+2XFloqPj8ecOXOkYgCQvsx/2bJlAIA2bdpg586d0Ov1AAA3Nze8++67mDJlCoYMGYLY2FjMnTsXubm5eP/996XzvtXXX3+t3Ke8adMm9OvXT5k2ZswYjBo1Cq+99hoWLFiAmJgY9O7dGzt37kSDBg2slkNOTg42bNgAABg1ahRWrVqlTOvatSu6du2KSZMm4eGHH8aVK1cwbNgwrF27FiNHjrRaDkDpvdxA6fqPiIhAkyZNAADu7u54/vnnMWnSJIwfPx7ffvstNmzYgNzcXHz77bcWXxprTnR0NOLi4gAACxcuxIwZM5Rp/fr1Q79+/bB27VpMnDgRV65cQa9evRAREYGQkBCr5QCU3n8PAFOmTMH48eOV/wcEBOD7779Ho0aNEBcXB4PBgCVLllRo36xZM/znP//Bc889h/379yMzMxMuLi4W5WAaZM7NzQ3ffPONcnuFjY0N5s2bhwMHDmDv3r0ASm+X8fPzK9deq9Xis88+w9atW5GTk4MtW7ZUeim+OUlJSco99O+++y7uu+8+ZVrHjh2xdOlSjBw5EvHx8ejSpQumT59eIUZYWBjGjx+PFStW1Hiskdvt2rULANC9e3e8++67yv8NBgNWr16NAwcO4NSpUwBKb425/ZYbFxcXrFq1Cp06dUJaWhqioqLQrVs3i3LYvXu3cuxdv349mjZtqkwbNWoUYmJi8M477wAAnnrqKfTq1atCjFdffRVr165FXFwctmzZghEjRliUw608PT3x9NNP1+gy/TfeeAMFBQUYN24c2rRpo3qZt9NoNBg3bhxat25d7bzbt2/H3r170bJlS0ycOLHctPbt20vl0bZtWzz++OPVjpuUnp6ujFMya9YseHh4KNMaNmwolYNer8dTTz2F+vXrVzvvypUrER8fj/79+6NPnz7lptWkvTl9+vRB//79q50vOjoaGzZsgKurK/7973+Xm9ahQwepHIgsUte9FET/VPzWoRS/dShzN3zrUFhYqHy7uGbNmirny8rKEv3791eW9eKLL5abLnslwahRowQA0bt3b7PzffHFF8ql5s2aNRNJSUnlpstcSbBv3z7lNdz67eTtLl68KJo3by4ACI1GI7788sty02WvJDB9E3v7Or6V0WgUTz/9tJLvoEGDRH5+vjJd9kqCTz/9VAAQ7u7uZi/H3rt3r3BzcxMAhKurqzhy5Ei56TJXEly+fFl5Db/88kul85iuMHnkkUdqFOfWb+BrasiQIQKAeOyxxyqdvmTJEiX+1atXq40zZswYi3O49ZaKrKysCtNzc3OV/fiDDz6oNo6NjY0oLi62OI/GjRsLAFXeejRx4kQBQDRp0qRGcT7//HOLc3j33XcFANG8efNKp9965cfPP/9cZZx58+YJoPRqBDXCw8OVq6yaNm0qfv3112rbuLi4CABi27ZtqpZ5uz///FN07NhRABD29vZi/vz5oqioyGybWbNmCaD0qhhrKC4uFtOnTxcajUY5hickJJhtc/HiRWUbXbx40Sp57Ny5U/j6+gqg9LYkc+czE9Px6b333rNKDunp6eJf//qX8tqeeOIJkZ6ebrbNunXrBADh7+9vlRyI1OLTDYiISJGYmKg8Jq5Hjx5VzmcwGLB161YMHz4cALBo0SJMmzbNanlcuXIFANCpUyez802aNAnff/89bG1tcfbsWdx33324cOGCVXMwGAzlvp28nb+/Pw4dOoSgoCAIITBp0iTlagxr5mHuSREajQaffPIJXnvtNQDAtm3b0K9fv3Kj3MswXanTtWtXs1co9OzZE3v37oWXlxcyMjLQq1cv/Pbbb1bJ4dYB54KDgyudx/StfbNmzaqM4+vrq1w9oOZxhKY8WrRoUel007K9vb1Rr169KuOY5lOTg+nqLW9vbxgMhgrTHRwclG+yzQ2AZ8qhuLgYqampqvNo3rx5pdNNr7+6QfhMeZgGbbOEaX+vKodbr+Qwl0fbtm1V5wAATz75JGJjY/HAAw8gISEBvXr1wpQpUyoM8nknNWvWDIcPH1ae9vPvf/8bISEhFQagvZN0Oh0+/fRT7N+/Hy1atMCePXvQtm1bfPDBB7X6CNJ+/fohLi4OEydORHp6Oh5//HH079/faueHmnB3d8eWLVuwbt06eHl5YfXq1WjVqhU2b95cazkQqcVOAqI6Ynrj8uCDD0KUjg9i8c+2bduskgNQOqKw2jzMjexeHWdnZ+UN+6xZs1TncPsI32rXhaurq+ocMjIyrJIDAKxbt051HgMHDlSdg7jlcWG3/l4ZW1tbbNiwQekoWLZsGcaPH19u1HnZPFxdXaudd8iQIfj6669ha2uLpKQk9O7d2ypvBE2vw9xo/Saenp7Ys2cPgoODYTQaMW3aNKt1FFiSx7x58/D2228DAPbt24eBAwdapaPAtD2qqwkAaNeuHX799Vf4+PggJycHffv2VX05+61uvVS9usuX3d3dzU431ZWafdaUR3U52Nvbm50uczuIadk1efytuTxuzUHNfmtafnWj+td0XeTk5FicQ023R3V52NnZAZB7+kdgYCB27dqFFStWwMXFBcuXL0fr1q2xdetW1TEtpdPpMHPmTJw4cQL33XcfYmJi0KVLF7z00ktSr81SoaGhOHHiBGbOnImioiK8/PLL6Ny5M06cOFFrObi6umLFihXYtWsXAgMD8fPPP6NNmzZYsmRJjY5l1jJ69GicOnUKI0eOxNWrVzFixAg89NBDVnsMKtGdwE4Cojpi+oa0skdT1XYOgPx97GppNBrlkVN1lQMA5ZFsGRkZSExMrJMcAgMDlXsxf//99zrJ4dZ7+m997nxVtFotvvnmG4wdOxYAsGrVKjzxxBPS3xiZ8jh58mSN5h8xYgR++uknODg44Ny5c+jevXuFRxZaytRpk5KSUqNvA728vLB//37l0ZDTpk3D0qVLpXIASr8tBqCMCVCdOXPmKI/3O3DgAPr27Wvxo8BuZ7ovuKaPNmvbti0OHDgAX19f5ObmYuDAgdIdBbfWpqWPWLudqeNEzePETHlY+miz25k+pKjpLAgICABQ+pg3mU65Wz8oqcnD9PhGNVchVJaHmhxMtSmbg6kmLB2jojITJ05EXFwcBg8ejMuXL2PIkCEYMWKE6qsU1GjRogUOHDiAjz/+GHq9HosWLUKbNm3KPSbyTtPr9cojLoODg3Hs2DF07NgRs2bNQn5+fq3l8cADD+DkyZN49tlnkZeXhxdeeAFdu3ZVxvWoDfXq1cOGDRvwww8/oH79+vjxxx/RqlUrZcwZorsNOwmI6ojpA/r169crPAu3tvj6+sLHxwdA3X0oBco+oNdlJ8GtA6zdDXnUVQ4uLi4IDAwEAGXwterodDqlcwAoHXTQ0oHYbmcaoCkqKqrGbfr164ctW7bAwcEBly5dQrdu3aSu7ggODla+naxpHq6urti+fTu6du0KAHj66afx1Vdfqc4BKBs8LDIyssZtpk+fjo8++ggAcPjwYTzwwANSOZgGxouPj6/xh7FmzZph9+7d8PPzQ2FhIQYPHoyYmBjVOTg4OChXLVU1UOn8+fMRERGBRx99tMo4BQUFyiX+aga6ND2z3TQg3+26du2KiIgIrF+/3mwcU0eHmmfAmzoJjEYj4uPjK51ny5YtiIiIUGrRXA42NjbKB35LtGrVCgCq/LD15JNPIiIiAvPnzzcbx3QOvH2QR0tyiImJqbRz0tvbGxEREYiIiFA63Cpj+lbXWoOfNmjQAFu3bsW6devg6emJzZs3o1WrVli9erVV4teERqPBM888g5MnTyIsLAznz59H3759MW7cONy4caPW8ujQoQOio6Mxb9486HQ6LFy4EMHBwTU+x1iDo6MjPvroIxw8eBCtWrXCkSNHEBISgjlz5lR7JYw1DR06FHFxcRg/fjwyMzMxZcoU9OrVCwkJCbWWA1FNsJOAqI7cen9xXX5AN+VRlx+MTW9ir1+/Lv3tr1pNmzZVLkG+G7bHsWPH6iwH0wjMa9asqXEbrVaLVatWYcKECQCAM2fOSOXQs2dPAEBCQgL2799f43YPPPAAvv32W+j1ely+fFnqfmAXFxfcc889AFDtB77b2/38889K55fskzdMH/B37txp0a0Dzz77LBYtWgSg5lchVKVLly7KPe6W3E/bqlUr7N27F35+fsjPz5fev01jEVR1VcI999yDsLAwNGrUqMoYBw8eBFD6wdj0AdMS9957LwDg6NGjlT7RxNPTE2FhYcoVJVUxHXPVjCDv7++vdPBW1Xl0//33IywszOzVEqYcWrduDRsbyx94ZdoeVeXQtGlThIWFKftRZa5evarsI+3atVOdQ2FhYaXHTXt7e4SFhSEsLMzs7Qam40xQUJDFOZgzevRoxMXFYcSIEbhx4wbGjRtX6/fGBwYGIiIiAl988QVcXFyUe+NNT2+pDTY2Nnjttddw/PhxdO3aFWfPnkWvXr0wefJkVeNyqHXvvffixIkTePXVV2E0GvHOO++gXbt2ynGhNri5ueHLL7/Ezp074e/vj7179yIoKAgffPABiouLay0PIrMsH+uQiKylZ8+eIiQkRHzyySeq2l+8eFGEh4eL8PBw1Tl88sknIiQkRGpk43Xr1onw8HCzI8Cbk5qaKkJCQkRISIg4cOCAqhjHjx8X4eHhYsuWLaraC1E6EndISIh47rnnVLUvLCxUtkd1IxhXZceOHcq6SE1NVR0jPDxc9br86aeflNGY9+7da1Fbo9EonnnmmXJPWVDDaDSKgIAAAUCMHDnS4va//vqrcHZ2lnryhhBCzJkzRxkpPCUlxaK2OTk5okePHtJP3rh1NH5zI9VX5fPPP5d+8oYQQgwdOlQApc+9t9S5c+dEkyZNpJ68IYQQ8+fPFwBEw4YNVbUXQoipU6cKAKJz586q2qenpyuvY/v27apiHDt2TIlx8uRJVTEGDx4sAIhHH31UVXshhOjatasAIKZPn66q/fbt25Wneqg95q1YsUIAEHq9XhQUFKiK4efnJwCId999V1X7rKws5ckEX331laoYNfHDDz8IHx8fAUA4OTkpT6Cw1tMNaiI5OVkMGjRIqT9XV1erPt2gJoxGo1i8eLFwcHAolwOs+HSDmjh+/Lho3769UsOmc4a1nm5QE1lZWeKpp56qsD34dAOqa+wkICKicoqLi8WYMWPE8OHDxaJFi1TFeO6555TODrVWrlwphg8fLkaOHCkyMjIsbr9v3z7RsWNHERISInbs2KEqh4SEBDF8+HAxfPhw8e2331rcPjc3VzzyyCMiJCRETJw4UVUOQgjx8ssvi+HDh4spU6aoav/ll18q20NtZ15ERISyLtR8sE1ISBDdu3cXISEhqt+EZ2dni8TERJGYmCiMRqPF7QsKCsS4cePE8OHDxcaNG1XlIIQQ58+fF4mJieLmzZuq2i9fvlwMHz5cqibS09NFYmKiuHTpkqr2Fy5cULZnZGSkqhjFxcXK9rj1kZuWeO2118Tw4cPF3LlzVbUXorQjLTEx0ewjJ83Zt2+fsi7S0tJU51ETN27cEOPGjSvXcVebnQQm69atEx4eHkoOtdlJYJKYmCh69+5dbl3UZieBEKU1PH/+fGFvb6/kUJudBCb79u0TTZs2VXJgJwHVNY0QtTi8JxERERHRP9y+ffuU8SQefPBBqacEqZWWloYff/wRQggEBAQot5rVth9//FEZ1HHMmDHKrU216cyZM8oYCV26dDF7i8ydkp+fjw0bNqCwsBAGgwGjR4+u9RyITNhJQEREREREREQAOHAhEREREREREf2FnQREREREREREBICdBERERERERET0F3YSEBER/V97cEAAAAAAIKT/qzsCAACqGpMJ3iBqCFMdAAAAAElFTkSuQmCC;" vertex="1" parent="1">
          <mxGeometry x="-40" y="80" width="1033" height="697" as="geometry" />
        </mxCell>
        <mxCell id="4wYjV3V1VM_4UX03if4N-3" value="图像块1" style="text;html=1;strokeColor=none;fillColor=none;align=center;verticalAlign=middle;whiteSpace=wrap;rounded=0;direction=east;flipH=0;flipV=0;fontSize=21;rotation=-90;" vertex="1" parent="1">
          <mxGeometry x="-150" y="400" width="190" height="30" as="geometry" />
        </mxCell>
        <mxCell id="4wYjV3V1VM_4UX03if4N-5" value="图像块2" style="text;html=1;strokeColor=none;fillColor=none;align=center;verticalAlign=middle;whiteSpace=wrap;rounded=0;direction=east;flipH=0;flipV=0;fontSize=21;rotation=0;" vertex="1" parent="1">
          <mxGeometry x="381.5" y="790" width="190" height="30" as="geometry" />
        </mxCell>
        <mxCell id="4wYjV3V1VM_4UX03if4N-6" value="相似度" style="text;html=1;strokeColor=none;fillColor=none;align=center;verticalAlign=middle;whiteSpace=wrap;rounded=0;direction=east;flipH=0;flipV=0;fontSize=21;rotation=-90;" vertex="1" parent="1">
          <mxGeometry x="780" y="413.5" width="190" height="30" as="geometry" />
        </mxCell>
      </root>
    </mxGraphModel>
  </diagram>
</mxfile>
